%TF.GenerationSoftware,KiCad,Pcbnew,(5.1.9-0-10_14)*%
%TF.CreationDate,2021-03-28T17:09:14+02:00*%
%TF.ProjectId,FPGA,46504741-2e6b-4696-9361-645f70636258,rev?*%
%TF.SameCoordinates,Original*%
%TF.FileFunction,Legend,Top*%
%TF.FilePolarity,Positive*%
%FSLAX46Y46*%
G04 Gerber Fmt 4.6, Leading zero omitted, Abs format (unit mm)*
G04 Created by KiCad (PCBNEW (5.1.9-0-10_14)) date 2021-03-28 17:09:14*
%MOMM*%
%LPD*%
G01*
G04 APERTURE LIST*
%ADD10C,0.150000*%
%ADD11C,0.120000*%
%ADD12C,0.200000*%
%ADD13C,0.127000*%
G04 APERTURE END LIST*
D10*
X102952380Y-119369047D02*
X103666666Y-119369047D01*
X103809523Y-119416666D01*
X103904761Y-119511904D01*
X103952380Y-119654761D01*
X103952380Y-119750000D01*
X103952380Y-118416666D02*
X103952380Y-118892857D01*
X102952380Y-118892857D01*
X103857142Y-117511904D02*
X103904761Y-117559523D01*
X103952380Y-117702380D01*
X103952380Y-117797619D01*
X103904761Y-117940476D01*
X103809523Y-118035714D01*
X103714285Y-118083333D01*
X103523809Y-118130952D01*
X103380952Y-118130952D01*
X103190476Y-118083333D01*
X103095238Y-118035714D01*
X103000000Y-117940476D01*
X102952380Y-117797619D01*
X102952380Y-117702380D01*
X103000000Y-117559523D01*
X103047619Y-117511904D01*
X102952380Y-116797619D02*
X103666666Y-116797619D01*
X103809523Y-116845238D01*
X103904761Y-116940476D01*
X103952380Y-117083333D01*
X103952380Y-117178571D01*
X103952380Y-115845238D02*
X103952380Y-116321428D01*
X102952380Y-116321428D01*
X103857142Y-114940476D02*
X103904761Y-114988095D01*
X103952380Y-115130952D01*
X103952380Y-115226190D01*
X103904761Y-115369047D01*
X103809523Y-115464285D01*
X103714285Y-115511904D01*
X103523809Y-115559523D01*
X103380952Y-115559523D01*
X103190476Y-115511904D01*
X103095238Y-115464285D01*
X103000000Y-115369047D01*
X102952380Y-115226190D01*
X102952380Y-115130952D01*
X103000000Y-114988095D01*
X103047619Y-114940476D01*
X102952380Y-114226190D02*
X103666666Y-114226190D01*
X103809523Y-114273809D01*
X103904761Y-114369047D01*
X103952380Y-114511904D01*
X103952380Y-114607142D01*
X103952380Y-113273809D02*
X103952380Y-113750000D01*
X102952380Y-113750000D01*
X103857142Y-112369047D02*
X103904761Y-112416666D01*
X103952380Y-112559523D01*
X103952380Y-112654761D01*
X103904761Y-112797619D01*
X103809523Y-112892857D01*
X103714285Y-112940476D01*
X103523809Y-112988095D01*
X103380952Y-112988095D01*
X103190476Y-112940476D01*
X103095238Y-112892857D01*
X103000000Y-112797619D01*
X102952380Y-112654761D01*
X102952380Y-112559523D01*
X103000000Y-112416666D01*
X103047619Y-112369047D01*
X102952380Y-111654761D02*
X103666666Y-111654761D01*
X103809523Y-111702380D01*
X103904761Y-111797619D01*
X103952380Y-111940476D01*
X103952380Y-112035714D01*
X103952380Y-110702380D02*
X103952380Y-111178571D01*
X102952380Y-111178571D01*
X103857142Y-109797619D02*
X103904761Y-109845238D01*
X103952380Y-109988095D01*
X103952380Y-110083333D01*
X103904761Y-110226190D01*
X103809523Y-110321428D01*
X103714285Y-110369047D01*
X103523809Y-110416666D01*
X103380952Y-110416666D01*
X103190476Y-110369047D01*
X103095238Y-110321428D01*
X103000000Y-110226190D01*
X102952380Y-110083333D01*
X102952380Y-109988095D01*
X103000000Y-109845238D01*
X103047619Y-109797619D01*
X127297619Y-98702380D02*
X126964285Y-98226190D01*
X126726190Y-98702380D02*
X126726190Y-97702380D01*
X127107142Y-97702380D01*
X127202380Y-97750000D01*
X127250000Y-97797619D01*
X127297619Y-97892857D01*
X127297619Y-98035714D01*
X127250000Y-98130952D01*
X127202380Y-98178571D01*
X127107142Y-98226190D01*
X126726190Y-98226190D01*
X127726190Y-98178571D02*
X128059523Y-98178571D01*
X128202380Y-98702380D02*
X127726190Y-98702380D01*
X127726190Y-97702380D01*
X128202380Y-97702380D01*
X128583333Y-98654761D02*
X128726190Y-98702380D01*
X128964285Y-98702380D01*
X129059523Y-98654761D01*
X129107142Y-98607142D01*
X129154761Y-98511904D01*
X129154761Y-98416666D01*
X129107142Y-98321428D01*
X129059523Y-98273809D01*
X128964285Y-98226190D01*
X128773809Y-98178571D01*
X128678571Y-98130952D01*
X128630952Y-98083333D01*
X128583333Y-97988095D01*
X128583333Y-97892857D01*
X128630952Y-97797619D01*
X128678571Y-97750000D01*
X128773809Y-97702380D01*
X129011904Y-97702380D01*
X129154761Y-97750000D01*
X129583333Y-98178571D02*
X129916666Y-98178571D01*
X130059523Y-98702380D02*
X129583333Y-98702380D01*
X129583333Y-97702380D01*
X130059523Y-97702380D01*
X130345238Y-97702380D02*
X130916666Y-97702380D01*
X130630952Y-98702380D02*
X130630952Y-97702380D01*
X107142023Y-100692142D02*
X107751547Y-100692142D01*
X107446785Y-100996904D02*
X107446785Y-100387380D01*
X108056309Y-100196904D02*
X108551547Y-100196904D01*
X108284880Y-100501666D01*
X108399166Y-100501666D01*
X108475357Y-100539761D01*
X108513452Y-100577857D01*
X108551547Y-100654047D01*
X108551547Y-100844523D01*
X108513452Y-100920714D01*
X108475357Y-100958809D01*
X108399166Y-100996904D01*
X108170595Y-100996904D01*
X108094404Y-100958809D01*
X108056309Y-100920714D01*
X108894404Y-100920714D02*
X108932500Y-100958809D01*
X108894404Y-100996904D01*
X108856309Y-100958809D01*
X108894404Y-100920714D01*
X108894404Y-100996904D01*
X109199166Y-100196904D02*
X109694404Y-100196904D01*
X109427738Y-100501666D01*
X109542023Y-100501666D01*
X109618214Y-100539761D01*
X109656309Y-100577857D01*
X109694404Y-100654047D01*
X109694404Y-100844523D01*
X109656309Y-100920714D01*
X109618214Y-100958809D01*
X109542023Y-100996904D01*
X109313452Y-100996904D01*
X109237261Y-100958809D01*
X109199166Y-100920714D01*
X109922976Y-100196904D02*
X110189642Y-100996904D01*
X110456309Y-100196904D01*
X108703928Y-97695000D02*
X108627738Y-97656904D01*
X108513452Y-97656904D01*
X108399166Y-97695000D01*
X108322976Y-97771190D01*
X108284880Y-97847380D01*
X108246785Y-97999761D01*
X108246785Y-98114047D01*
X108284880Y-98266428D01*
X108322976Y-98342619D01*
X108399166Y-98418809D01*
X108513452Y-98456904D01*
X108589642Y-98456904D01*
X108703928Y-98418809D01*
X108742023Y-98380714D01*
X108742023Y-98114047D01*
X108589642Y-98114047D01*
X109084880Y-98456904D02*
X109084880Y-97656904D01*
X109542023Y-98456904D01*
X109542023Y-97656904D01*
X109922976Y-98456904D02*
X109922976Y-97656904D01*
X110113452Y-97656904D01*
X110227738Y-97695000D01*
X110303928Y-97771190D01*
X110342023Y-97847380D01*
X110380119Y-97999761D01*
X110380119Y-98114047D01*
X110342023Y-98266428D01*
X110303928Y-98342619D01*
X110227738Y-98418809D01*
X110113452Y-98456904D01*
X109922976Y-98456904D01*
X107675357Y-95497857D02*
X107942023Y-95497857D01*
X108056309Y-95916904D02*
X107675357Y-95916904D01*
X107675357Y-95116904D01*
X108056309Y-95116904D01*
X108322976Y-95116904D02*
X108856309Y-95916904D01*
X108856309Y-95116904D02*
X108322976Y-95916904D01*
X109161071Y-95916904D02*
X109161071Y-95116904D01*
X109465833Y-95116904D01*
X109542023Y-95155000D01*
X109580119Y-95193095D01*
X109618214Y-95269285D01*
X109618214Y-95383571D01*
X109580119Y-95459761D01*
X109542023Y-95497857D01*
X109465833Y-95535952D01*
X109161071Y-95535952D01*
X110303928Y-95383571D02*
X110303928Y-95916904D01*
X110113452Y-95078809D02*
X109922976Y-95650238D01*
X110418214Y-95650238D01*
X107675357Y-92957857D02*
X107942023Y-92957857D01*
X108056309Y-93376904D02*
X107675357Y-93376904D01*
X107675357Y-92576904D01*
X108056309Y-92576904D01*
X108322976Y-92576904D02*
X108856309Y-93376904D01*
X108856309Y-92576904D02*
X108322976Y-93376904D01*
X109161071Y-93376904D02*
X109161071Y-92576904D01*
X109465833Y-92576904D01*
X109542023Y-92615000D01*
X109580119Y-92653095D01*
X109618214Y-92729285D01*
X109618214Y-92843571D01*
X109580119Y-92919761D01*
X109542023Y-92957857D01*
X109465833Y-92995952D01*
X109161071Y-92995952D01*
X109884880Y-92576904D02*
X110380119Y-92576904D01*
X110113452Y-92881666D01*
X110227738Y-92881666D01*
X110303928Y-92919761D01*
X110342023Y-92957857D01*
X110380119Y-93034047D01*
X110380119Y-93224523D01*
X110342023Y-93300714D01*
X110303928Y-93338809D01*
X110227738Y-93376904D01*
X109999166Y-93376904D01*
X109922976Y-93338809D01*
X109884880Y-93300714D01*
X107675357Y-90417857D02*
X107942023Y-90417857D01*
X108056309Y-90836904D02*
X107675357Y-90836904D01*
X107675357Y-90036904D01*
X108056309Y-90036904D01*
X108322976Y-90036904D02*
X108856309Y-90836904D01*
X108856309Y-90036904D02*
X108322976Y-90836904D01*
X109161071Y-90836904D02*
X109161071Y-90036904D01*
X109465833Y-90036904D01*
X109542023Y-90075000D01*
X109580119Y-90113095D01*
X109618214Y-90189285D01*
X109618214Y-90303571D01*
X109580119Y-90379761D01*
X109542023Y-90417857D01*
X109465833Y-90455952D01*
X109161071Y-90455952D01*
X109922976Y-90113095D02*
X109961071Y-90075000D01*
X110037261Y-90036904D01*
X110227738Y-90036904D01*
X110303928Y-90075000D01*
X110342023Y-90113095D01*
X110380119Y-90189285D01*
X110380119Y-90265476D01*
X110342023Y-90379761D01*
X109884880Y-90836904D01*
X110380119Y-90836904D01*
X107675357Y-87877857D02*
X107942023Y-87877857D01*
X108056309Y-88296904D02*
X107675357Y-88296904D01*
X107675357Y-87496904D01*
X108056309Y-87496904D01*
X108322976Y-87496904D02*
X108856309Y-88296904D01*
X108856309Y-87496904D02*
X108322976Y-88296904D01*
X109161071Y-88296904D02*
X109161071Y-87496904D01*
X109465833Y-87496904D01*
X109542023Y-87535000D01*
X109580119Y-87573095D01*
X109618214Y-87649285D01*
X109618214Y-87763571D01*
X109580119Y-87839761D01*
X109542023Y-87877857D01*
X109465833Y-87915952D01*
X109161071Y-87915952D01*
X110380119Y-88296904D02*
X109922976Y-88296904D01*
X110151547Y-88296904D02*
X110151547Y-87496904D01*
X110075357Y-87611190D01*
X109999166Y-87687380D01*
X109922976Y-87725476D01*
X117267976Y-87877857D02*
X117534642Y-87877857D01*
X117648928Y-88296904D02*
X117267976Y-88296904D01*
X117267976Y-87496904D01*
X117648928Y-87496904D01*
X117915595Y-87496904D02*
X118448928Y-88296904D01*
X118448928Y-87496904D02*
X117915595Y-88296904D01*
X118753690Y-88296904D02*
X118753690Y-87496904D01*
X119058452Y-87496904D01*
X119134642Y-87535000D01*
X119172738Y-87573095D01*
X119210833Y-87649285D01*
X119210833Y-87763571D01*
X119172738Y-87839761D01*
X119134642Y-87877857D01*
X119058452Y-87915952D01*
X118753690Y-87915952D01*
X119934642Y-87496904D02*
X119553690Y-87496904D01*
X119515595Y-87877857D01*
X119553690Y-87839761D01*
X119629880Y-87801666D01*
X119820357Y-87801666D01*
X119896547Y-87839761D01*
X119934642Y-87877857D01*
X119972738Y-87954047D01*
X119972738Y-88144523D01*
X119934642Y-88220714D01*
X119896547Y-88258809D01*
X119820357Y-88296904D01*
X119629880Y-88296904D01*
X119553690Y-88258809D01*
X119515595Y-88220714D01*
X117267976Y-90417857D02*
X117534642Y-90417857D01*
X117648928Y-90836904D02*
X117267976Y-90836904D01*
X117267976Y-90036904D01*
X117648928Y-90036904D01*
X117915595Y-90036904D02*
X118448928Y-90836904D01*
X118448928Y-90036904D02*
X117915595Y-90836904D01*
X118753690Y-90836904D02*
X118753690Y-90036904D01*
X119058452Y-90036904D01*
X119134642Y-90075000D01*
X119172738Y-90113095D01*
X119210833Y-90189285D01*
X119210833Y-90303571D01*
X119172738Y-90379761D01*
X119134642Y-90417857D01*
X119058452Y-90455952D01*
X118753690Y-90455952D01*
X119896547Y-90036904D02*
X119744166Y-90036904D01*
X119667976Y-90075000D01*
X119629880Y-90113095D01*
X119553690Y-90227380D01*
X119515595Y-90379761D01*
X119515595Y-90684523D01*
X119553690Y-90760714D01*
X119591785Y-90798809D01*
X119667976Y-90836904D01*
X119820357Y-90836904D01*
X119896547Y-90798809D01*
X119934642Y-90760714D01*
X119972738Y-90684523D01*
X119972738Y-90494047D01*
X119934642Y-90417857D01*
X119896547Y-90379761D01*
X119820357Y-90341666D01*
X119667976Y-90341666D01*
X119591785Y-90379761D01*
X119553690Y-90417857D01*
X119515595Y-90494047D01*
X117267976Y-92957857D02*
X117534642Y-92957857D01*
X117648928Y-93376904D02*
X117267976Y-93376904D01*
X117267976Y-92576904D01*
X117648928Y-92576904D01*
X117915595Y-92576904D02*
X118448928Y-93376904D01*
X118448928Y-92576904D02*
X117915595Y-93376904D01*
X118753690Y-93376904D02*
X118753690Y-92576904D01*
X119058452Y-92576904D01*
X119134642Y-92615000D01*
X119172738Y-92653095D01*
X119210833Y-92729285D01*
X119210833Y-92843571D01*
X119172738Y-92919761D01*
X119134642Y-92957857D01*
X119058452Y-92995952D01*
X118753690Y-92995952D01*
X119477500Y-92576904D02*
X120010833Y-92576904D01*
X119667976Y-93376904D01*
X117267976Y-95497857D02*
X117534642Y-95497857D01*
X117648928Y-95916904D02*
X117267976Y-95916904D01*
X117267976Y-95116904D01*
X117648928Y-95116904D01*
X117915595Y-95116904D02*
X118448928Y-95916904D01*
X118448928Y-95116904D02*
X117915595Y-95916904D01*
X118753690Y-95916904D02*
X118753690Y-95116904D01*
X119058452Y-95116904D01*
X119134642Y-95155000D01*
X119172738Y-95193095D01*
X119210833Y-95269285D01*
X119210833Y-95383571D01*
X119172738Y-95459761D01*
X119134642Y-95497857D01*
X119058452Y-95535952D01*
X118753690Y-95535952D01*
X119667976Y-95459761D02*
X119591785Y-95421666D01*
X119553690Y-95383571D01*
X119515595Y-95307380D01*
X119515595Y-95269285D01*
X119553690Y-95193095D01*
X119591785Y-95155000D01*
X119667976Y-95116904D01*
X119820357Y-95116904D01*
X119896547Y-95155000D01*
X119934642Y-95193095D01*
X119972738Y-95269285D01*
X119972738Y-95307380D01*
X119934642Y-95383571D01*
X119896547Y-95421666D01*
X119820357Y-95459761D01*
X119667976Y-95459761D01*
X119591785Y-95497857D01*
X119553690Y-95535952D01*
X119515595Y-95612142D01*
X119515595Y-95764523D01*
X119553690Y-95840714D01*
X119591785Y-95878809D01*
X119667976Y-95916904D01*
X119820357Y-95916904D01*
X119896547Y-95878809D01*
X119934642Y-95840714D01*
X119972738Y-95764523D01*
X119972738Y-95612142D01*
X119934642Y-95535952D01*
X119896547Y-95497857D01*
X119820357Y-95459761D01*
X117687023Y-97695000D02*
X117610833Y-97656904D01*
X117496547Y-97656904D01*
X117382261Y-97695000D01*
X117306071Y-97771190D01*
X117267976Y-97847380D01*
X117229880Y-97999761D01*
X117229880Y-98114047D01*
X117267976Y-98266428D01*
X117306071Y-98342619D01*
X117382261Y-98418809D01*
X117496547Y-98456904D01*
X117572738Y-98456904D01*
X117687023Y-98418809D01*
X117725119Y-98380714D01*
X117725119Y-98114047D01*
X117572738Y-98114047D01*
X118067976Y-98456904D02*
X118067976Y-97656904D01*
X118525119Y-98456904D01*
X118525119Y-97656904D01*
X118906071Y-98456904D02*
X118906071Y-97656904D01*
X119096547Y-97656904D01*
X119210833Y-97695000D01*
X119287023Y-97771190D01*
X119325119Y-97847380D01*
X119363214Y-97999761D01*
X119363214Y-98114047D01*
X119325119Y-98266428D01*
X119287023Y-98342619D01*
X119210833Y-98418809D01*
X119096547Y-98456904D01*
X118906071Y-98456904D01*
X117267976Y-100692142D02*
X117877500Y-100692142D01*
X117572738Y-100996904D02*
X117572738Y-100387380D01*
X118182261Y-100196904D02*
X118677500Y-100196904D01*
X118410833Y-100501666D01*
X118525119Y-100501666D01*
X118601309Y-100539761D01*
X118639404Y-100577857D01*
X118677500Y-100654047D01*
X118677500Y-100844523D01*
X118639404Y-100920714D01*
X118601309Y-100958809D01*
X118525119Y-100996904D01*
X118296547Y-100996904D01*
X118220357Y-100958809D01*
X118182261Y-100920714D01*
X119020357Y-100920714D02*
X119058452Y-100958809D01*
X119020357Y-100996904D01*
X118982261Y-100958809D01*
X119020357Y-100920714D01*
X119020357Y-100996904D01*
X119325119Y-100196904D02*
X119820357Y-100196904D01*
X119553690Y-100501666D01*
X119667976Y-100501666D01*
X119744166Y-100539761D01*
X119782261Y-100577857D01*
X119820357Y-100654047D01*
X119820357Y-100844523D01*
X119782261Y-100920714D01*
X119744166Y-100958809D01*
X119667976Y-100996904D01*
X119439404Y-100996904D01*
X119363214Y-100958809D01*
X119325119Y-100920714D01*
X120048928Y-100196904D02*
X120315595Y-100996904D01*
X120582261Y-100196904D01*
X110281190Y-85323571D02*
X110614523Y-85323571D01*
X110757380Y-85847380D02*
X110281190Y-85847380D01*
X110281190Y-84847380D01*
X110757380Y-84847380D01*
X111090714Y-85847380D02*
X111614523Y-85180714D01*
X111090714Y-85180714D02*
X111614523Y-85847380D01*
X111995476Y-85180714D02*
X111995476Y-86180714D01*
X111995476Y-85228333D02*
X112090714Y-85180714D01*
X112281190Y-85180714D01*
X112376428Y-85228333D01*
X112424047Y-85275952D01*
X112471666Y-85371190D01*
X112471666Y-85656904D01*
X112424047Y-85752142D01*
X112376428Y-85799761D01*
X112281190Y-85847380D01*
X112090714Y-85847380D01*
X111995476Y-85799761D01*
X113328809Y-85847380D02*
X113328809Y-85323571D01*
X113281190Y-85228333D01*
X113185952Y-85180714D01*
X112995476Y-85180714D01*
X112900238Y-85228333D01*
X113328809Y-85799761D02*
X113233571Y-85847380D01*
X112995476Y-85847380D01*
X112900238Y-85799761D01*
X112852619Y-85704523D01*
X112852619Y-85609285D01*
X112900238Y-85514047D01*
X112995476Y-85466428D01*
X113233571Y-85466428D01*
X113328809Y-85418809D01*
X113805000Y-85180714D02*
X113805000Y-85847380D01*
X113805000Y-85275952D02*
X113852619Y-85228333D01*
X113947857Y-85180714D01*
X114090714Y-85180714D01*
X114185952Y-85228333D01*
X114233571Y-85323571D01*
X114233571Y-85847380D01*
X114662142Y-85799761D02*
X114757380Y-85847380D01*
X114947857Y-85847380D01*
X115043095Y-85799761D01*
X115090714Y-85704523D01*
X115090714Y-85656904D01*
X115043095Y-85561666D01*
X114947857Y-85514047D01*
X114805000Y-85514047D01*
X114709761Y-85466428D01*
X114662142Y-85371190D01*
X114662142Y-85323571D01*
X114709761Y-85228333D01*
X114805000Y-85180714D01*
X114947857Y-85180714D01*
X115043095Y-85228333D01*
X115519285Y-85847380D02*
X115519285Y-85180714D01*
X115519285Y-84847380D02*
X115471666Y-84895000D01*
X115519285Y-84942619D01*
X115566904Y-84895000D01*
X115519285Y-84847380D01*
X115519285Y-84942619D01*
X116138333Y-85847380D02*
X116043095Y-85799761D01*
X115995476Y-85752142D01*
X115947857Y-85656904D01*
X115947857Y-85371190D01*
X115995476Y-85275952D01*
X116043095Y-85228333D01*
X116138333Y-85180714D01*
X116281190Y-85180714D01*
X116376428Y-85228333D01*
X116424047Y-85275952D01*
X116471666Y-85371190D01*
X116471666Y-85656904D01*
X116424047Y-85752142D01*
X116376428Y-85799761D01*
X116281190Y-85847380D01*
X116138333Y-85847380D01*
X116900238Y-85180714D02*
X116900238Y-85847380D01*
X116900238Y-85275952D02*
X116947857Y-85228333D01*
X117043095Y-85180714D01*
X117185952Y-85180714D01*
X117281190Y-85228333D01*
X117328809Y-85323571D01*
X117328809Y-85847380D01*
X118089285Y-103310000D02*
X117994047Y-103262380D01*
X117851190Y-103262380D01*
X117708333Y-103310000D01*
X117613095Y-103405238D01*
X117565476Y-103500476D01*
X117517857Y-103690952D01*
X117517857Y-103833809D01*
X117565476Y-104024285D01*
X117613095Y-104119523D01*
X117708333Y-104214761D01*
X117851190Y-104262380D01*
X117946428Y-104262380D01*
X118089285Y-104214761D01*
X118136904Y-104167142D01*
X118136904Y-103833809D01*
X117946428Y-103833809D01*
X118565476Y-104262380D02*
X118565476Y-103262380D01*
X119136904Y-104262380D01*
X119136904Y-103262380D01*
X119613095Y-104262380D02*
X119613095Y-103262380D01*
X119851190Y-103262380D01*
X119994047Y-103310000D01*
X120089285Y-103405238D01*
X120136904Y-103500476D01*
X120184523Y-103690952D01*
X120184523Y-103833809D01*
X120136904Y-104024285D01*
X120089285Y-104119523D01*
X119994047Y-104214761D01*
X119851190Y-104262380D01*
X119613095Y-104262380D01*
X117565476Y-106421428D02*
X118327380Y-106421428D01*
X117946428Y-106802380D02*
X117946428Y-106040476D01*
X119279761Y-105802380D02*
X118803571Y-105802380D01*
X118755952Y-106278571D01*
X118803571Y-106230952D01*
X118898809Y-106183333D01*
X119136904Y-106183333D01*
X119232142Y-106230952D01*
X119279761Y-106278571D01*
X119327380Y-106373809D01*
X119327380Y-106611904D01*
X119279761Y-106707142D01*
X119232142Y-106754761D01*
X119136904Y-106802380D01*
X118898809Y-106802380D01*
X118803571Y-106754761D01*
X118755952Y-106707142D01*
X119613095Y-105802380D02*
X119946428Y-106802380D01*
X120279761Y-105802380D01*
X116136904Y-108961428D02*
X116898809Y-108961428D01*
X116517857Y-109342380D02*
X116517857Y-108580476D01*
X117279761Y-108342380D02*
X117898809Y-108342380D01*
X117565476Y-108723333D01*
X117708333Y-108723333D01*
X117803571Y-108770952D01*
X117851190Y-108818571D01*
X117898809Y-108913809D01*
X117898809Y-109151904D01*
X117851190Y-109247142D01*
X117803571Y-109294761D01*
X117708333Y-109342380D01*
X117422619Y-109342380D01*
X117327380Y-109294761D01*
X117279761Y-109247142D01*
X118327380Y-109247142D02*
X118375000Y-109294761D01*
X118327380Y-109342380D01*
X118279761Y-109294761D01*
X118327380Y-109247142D01*
X118327380Y-109342380D01*
X118708333Y-108342380D02*
X119327380Y-108342380D01*
X118994047Y-108723333D01*
X119136904Y-108723333D01*
X119232142Y-108770952D01*
X119279761Y-108818571D01*
X119327380Y-108913809D01*
X119327380Y-109151904D01*
X119279761Y-109247142D01*
X119232142Y-109294761D01*
X119136904Y-109342380D01*
X118851190Y-109342380D01*
X118755952Y-109294761D01*
X118708333Y-109247142D01*
X119613095Y-108342380D02*
X119946428Y-109342380D01*
X120279761Y-108342380D01*
X104510476Y-105532380D02*
X104510476Y-104532380D01*
X104891428Y-104532380D01*
X104986666Y-104580000D01*
X105034285Y-104627619D01*
X105081904Y-104722857D01*
X105081904Y-104865714D01*
X105034285Y-104960952D01*
X104986666Y-105008571D01*
X104891428Y-105056190D01*
X104510476Y-105056190D01*
X105700952Y-104532380D02*
X105891428Y-104532380D01*
X105986666Y-104580000D01*
X106081904Y-104675238D01*
X106129523Y-104865714D01*
X106129523Y-105199047D01*
X106081904Y-105389523D01*
X105986666Y-105484761D01*
X105891428Y-105532380D01*
X105700952Y-105532380D01*
X105605714Y-105484761D01*
X105510476Y-105389523D01*
X105462857Y-105199047D01*
X105462857Y-104865714D01*
X105510476Y-104675238D01*
X105605714Y-104580000D01*
X105700952Y-104532380D01*
X106462857Y-104532380D02*
X106700952Y-105532380D01*
X106891428Y-104818095D01*
X107081904Y-105532380D01*
X107320000Y-104532380D01*
X107700952Y-105008571D02*
X108034285Y-105008571D01*
X108177142Y-105532380D02*
X107700952Y-105532380D01*
X107700952Y-104532380D01*
X108177142Y-104532380D01*
X109177142Y-105532380D02*
X108843809Y-105056190D01*
X108605714Y-105532380D02*
X108605714Y-104532380D01*
X108986666Y-104532380D01*
X109081904Y-104580000D01*
X109129523Y-104627619D01*
X109177142Y-104722857D01*
X109177142Y-104865714D01*
X109129523Y-104960952D01*
X109081904Y-105008571D01*
X108986666Y-105056190D01*
X108605714Y-105056190D01*
X111972023Y-120370000D02*
X111895833Y-120331904D01*
X111781547Y-120331904D01*
X111667261Y-120370000D01*
X111591071Y-120446190D01*
X111552976Y-120522380D01*
X111514880Y-120674761D01*
X111514880Y-120789047D01*
X111552976Y-120941428D01*
X111591071Y-121017619D01*
X111667261Y-121093809D01*
X111781547Y-121131904D01*
X111857738Y-121131904D01*
X111972023Y-121093809D01*
X112010119Y-121055714D01*
X112010119Y-120789047D01*
X111857738Y-120789047D01*
X112352976Y-121131904D02*
X112352976Y-120331904D01*
X112810119Y-121131904D01*
X112810119Y-120331904D01*
X113191071Y-121131904D02*
X113191071Y-120331904D01*
X113381547Y-120331904D01*
X113495833Y-120370000D01*
X113572023Y-120446190D01*
X113610119Y-120522380D01*
X113648214Y-120674761D01*
X113648214Y-120789047D01*
X113610119Y-120941428D01*
X113572023Y-121017619D01*
X113495833Y-121093809D01*
X113381547Y-121131904D01*
X113191071Y-121131904D01*
X111972023Y-116410000D02*
X111895833Y-116371904D01*
X111781547Y-116371904D01*
X111667261Y-116410000D01*
X111591071Y-116486190D01*
X111552976Y-116562380D01*
X111514880Y-116714761D01*
X111514880Y-116829047D01*
X111552976Y-116981428D01*
X111591071Y-117057619D01*
X111667261Y-117133809D01*
X111781547Y-117171904D01*
X111857738Y-117171904D01*
X111972023Y-117133809D01*
X112010119Y-117095714D01*
X112010119Y-116829047D01*
X111857738Y-116829047D01*
X112352976Y-117171904D02*
X112352976Y-116371904D01*
X112810119Y-117171904D01*
X112810119Y-116371904D01*
X113191071Y-117171904D02*
X113191071Y-116371904D01*
X113381547Y-116371904D01*
X113495833Y-116410000D01*
X113572023Y-116486190D01*
X113610119Y-116562380D01*
X113648214Y-116714761D01*
X113648214Y-116829047D01*
X113610119Y-116981428D01*
X113572023Y-117057619D01*
X113495833Y-117133809D01*
X113381547Y-117171904D01*
X113191071Y-117171904D01*
X111552976Y-112907142D02*
X112162500Y-112907142D01*
X111857738Y-113211904D02*
X111857738Y-112602380D01*
X112924404Y-112411904D02*
X112543452Y-112411904D01*
X112505357Y-112792857D01*
X112543452Y-112754761D01*
X112619642Y-112716666D01*
X112810119Y-112716666D01*
X112886309Y-112754761D01*
X112924404Y-112792857D01*
X112962500Y-112869047D01*
X112962500Y-113059523D01*
X112924404Y-113135714D01*
X112886309Y-113173809D01*
X112810119Y-113211904D01*
X112619642Y-113211904D01*
X112543452Y-113173809D01*
X112505357Y-113135714D01*
X113191071Y-112411904D02*
X113457738Y-113211904D01*
X113724404Y-112411904D01*
X111552976Y-108947142D02*
X112162500Y-108947142D01*
X111857738Y-109251904D02*
X111857738Y-108642380D01*
X112924404Y-108451904D02*
X112543452Y-108451904D01*
X112505357Y-108832857D01*
X112543452Y-108794761D01*
X112619642Y-108756666D01*
X112810119Y-108756666D01*
X112886309Y-108794761D01*
X112924404Y-108832857D01*
X112962500Y-108909047D01*
X112962500Y-109099523D01*
X112924404Y-109175714D01*
X112886309Y-109213809D01*
X112810119Y-109251904D01*
X112619642Y-109251904D01*
X112543452Y-109213809D01*
X112505357Y-109175714D01*
X113191071Y-108451904D02*
X113457738Y-109251904D01*
X113724404Y-108451904D01*
X110400238Y-54843571D02*
X110066904Y-54843571D01*
X110066904Y-55367380D02*
X110066904Y-54367380D01*
X110543095Y-54367380D01*
X110924047Y-55367380D02*
X110924047Y-54700714D01*
X110924047Y-54891190D02*
X110971666Y-54795952D01*
X111019285Y-54748333D01*
X111114523Y-54700714D01*
X111209761Y-54700714D01*
X111685952Y-55367380D02*
X111590714Y-55319761D01*
X111543095Y-55272142D01*
X111495476Y-55176904D01*
X111495476Y-54891190D01*
X111543095Y-54795952D01*
X111590714Y-54748333D01*
X111685952Y-54700714D01*
X111828809Y-54700714D01*
X111924047Y-54748333D01*
X111971666Y-54795952D01*
X112019285Y-54891190D01*
X112019285Y-55176904D01*
X111971666Y-55272142D01*
X111924047Y-55319761D01*
X111828809Y-55367380D01*
X111685952Y-55367380D01*
X112447857Y-54700714D02*
X112447857Y-55367380D01*
X112447857Y-54795952D02*
X112495476Y-54748333D01*
X112590714Y-54700714D01*
X112733571Y-54700714D01*
X112828809Y-54748333D01*
X112876428Y-54843571D01*
X112876428Y-55367380D01*
X113209761Y-54700714D02*
X113590714Y-54700714D01*
X113352619Y-54367380D02*
X113352619Y-55224523D01*
X113400238Y-55319761D01*
X113495476Y-55367380D01*
X113590714Y-55367380D01*
X113924047Y-54700714D02*
X113924047Y-55700714D01*
X113924047Y-54748333D02*
X114019285Y-54700714D01*
X114209761Y-54700714D01*
X114305000Y-54748333D01*
X114352619Y-54795952D01*
X114400238Y-54891190D01*
X114400238Y-55176904D01*
X114352619Y-55272142D01*
X114305000Y-55319761D01*
X114209761Y-55367380D01*
X114019285Y-55367380D01*
X113924047Y-55319761D01*
X115257380Y-55367380D02*
X115257380Y-54843571D01*
X115209761Y-54748333D01*
X115114523Y-54700714D01*
X114924047Y-54700714D01*
X114828809Y-54748333D01*
X115257380Y-55319761D02*
X115162142Y-55367380D01*
X114924047Y-55367380D01*
X114828809Y-55319761D01*
X114781190Y-55224523D01*
X114781190Y-55129285D01*
X114828809Y-55034047D01*
X114924047Y-54986428D01*
X115162142Y-54986428D01*
X115257380Y-54938809D01*
X115733571Y-54700714D02*
X115733571Y-55367380D01*
X115733571Y-54795952D02*
X115781190Y-54748333D01*
X115876428Y-54700714D01*
X116019285Y-54700714D01*
X116114523Y-54748333D01*
X116162142Y-54843571D01*
X116162142Y-55367380D01*
X117019285Y-55319761D02*
X116924047Y-55367380D01*
X116733571Y-55367380D01*
X116638333Y-55319761D01*
X116590714Y-55224523D01*
X116590714Y-54843571D01*
X116638333Y-54748333D01*
X116733571Y-54700714D01*
X116924047Y-54700714D01*
X117019285Y-54748333D01*
X117066904Y-54843571D01*
X117066904Y-54938809D01*
X116590714Y-55034047D01*
X117638333Y-55367380D02*
X117543095Y-55319761D01*
X117495476Y-55224523D01*
X117495476Y-54367380D01*
X117687023Y-82455000D02*
X117610833Y-82416904D01*
X117496547Y-82416904D01*
X117382261Y-82455000D01*
X117306071Y-82531190D01*
X117267976Y-82607380D01*
X117229880Y-82759761D01*
X117229880Y-82874047D01*
X117267976Y-83026428D01*
X117306071Y-83102619D01*
X117382261Y-83178809D01*
X117496547Y-83216904D01*
X117572738Y-83216904D01*
X117687023Y-83178809D01*
X117725119Y-83140714D01*
X117725119Y-82874047D01*
X117572738Y-82874047D01*
X118067976Y-83216904D02*
X118067976Y-82416904D01*
X118525119Y-83216904D01*
X118525119Y-82416904D01*
X118906071Y-83216904D02*
X118906071Y-82416904D01*
X119096547Y-82416904D01*
X119210833Y-82455000D01*
X119287023Y-82531190D01*
X119325119Y-82607380D01*
X119363214Y-82759761D01*
X119363214Y-82874047D01*
X119325119Y-83026428D01*
X119287023Y-83102619D01*
X119210833Y-83178809D01*
X119096547Y-83216904D01*
X118906071Y-83216904D01*
X117267976Y-80676904D02*
X117267976Y-79876904D01*
X117572738Y-79876904D01*
X117648928Y-79915000D01*
X117687023Y-79953095D01*
X117725119Y-80029285D01*
X117725119Y-80143571D01*
X117687023Y-80219761D01*
X117648928Y-80257857D01*
X117572738Y-80295952D01*
X117267976Y-80295952D01*
X118220357Y-79876904D02*
X118372738Y-79876904D01*
X118448928Y-79915000D01*
X118525119Y-79991190D01*
X118563214Y-80143571D01*
X118563214Y-80410238D01*
X118525119Y-80562619D01*
X118448928Y-80638809D01*
X118372738Y-80676904D01*
X118220357Y-80676904D01*
X118144166Y-80638809D01*
X118067976Y-80562619D01*
X118029880Y-80410238D01*
X118029880Y-80143571D01*
X118067976Y-79991190D01*
X118144166Y-79915000D01*
X118220357Y-79876904D01*
X118791785Y-79876904D02*
X119248928Y-79876904D01*
X119020357Y-80676904D02*
X119020357Y-79876904D01*
X119515595Y-80676904D02*
X119515595Y-79876904D01*
X119706071Y-80753095D02*
X120315595Y-80753095D01*
X120467976Y-80638809D02*
X120582261Y-80676904D01*
X120772738Y-80676904D01*
X120848928Y-80638809D01*
X120887023Y-80600714D01*
X120925119Y-80524523D01*
X120925119Y-80448333D01*
X120887023Y-80372142D01*
X120848928Y-80334047D01*
X120772738Y-80295952D01*
X120620357Y-80257857D01*
X120544166Y-80219761D01*
X120506071Y-80181666D01*
X120467976Y-80105476D01*
X120467976Y-80029285D01*
X120506071Y-79953095D01*
X120544166Y-79915000D01*
X120620357Y-79876904D01*
X120810833Y-79876904D01*
X120925119Y-79915000D01*
X121267976Y-80676904D02*
X121267976Y-79876904D01*
X121458452Y-79876904D01*
X121572738Y-79915000D01*
X121648928Y-79991190D01*
X121687023Y-80067380D01*
X121725119Y-80219761D01*
X121725119Y-80334047D01*
X121687023Y-80486428D01*
X121648928Y-80562619D01*
X121572738Y-80638809D01*
X121458452Y-80676904D01*
X121267976Y-80676904D01*
X122220357Y-79876904D02*
X122372738Y-79876904D01*
X122448928Y-79915000D01*
X122525119Y-79991190D01*
X122563214Y-80143571D01*
X122563214Y-80410238D01*
X122525119Y-80562619D01*
X122448928Y-80638809D01*
X122372738Y-80676904D01*
X122220357Y-80676904D01*
X122144166Y-80638809D01*
X122067976Y-80562619D01*
X122029880Y-80410238D01*
X122029880Y-80143571D01*
X122067976Y-79991190D01*
X122144166Y-79915000D01*
X122220357Y-79876904D01*
X117153690Y-77336904D02*
X117420357Y-78136904D01*
X117687023Y-77336904D01*
X117953690Y-78136904D02*
X117953690Y-77336904D01*
X118258452Y-77336904D01*
X118334642Y-77375000D01*
X118372738Y-77413095D01*
X118410833Y-77489285D01*
X118410833Y-77603571D01*
X118372738Y-77679761D01*
X118334642Y-77717857D01*
X118258452Y-77755952D01*
X117953690Y-77755952D01*
X118906071Y-77336904D02*
X119058452Y-77336904D01*
X119134642Y-77375000D01*
X119210833Y-77451190D01*
X119248928Y-77603571D01*
X119248928Y-77870238D01*
X119210833Y-78022619D01*
X119134642Y-78098809D01*
X119058452Y-78136904D01*
X118906071Y-78136904D01*
X118829880Y-78098809D01*
X118753690Y-78022619D01*
X118715595Y-77870238D01*
X118715595Y-77603571D01*
X118753690Y-77451190D01*
X118829880Y-77375000D01*
X118906071Y-77336904D01*
X119477500Y-77336904D02*
X119934642Y-77336904D01*
X119706071Y-78136904D02*
X119706071Y-77336904D01*
X120010833Y-78213095D02*
X120620357Y-78213095D01*
X120772738Y-77908333D02*
X121153690Y-77908333D01*
X120696547Y-78136904D02*
X120963214Y-77336904D01*
X121229880Y-78136904D01*
X121648928Y-77336904D02*
X121725119Y-77336904D01*
X121801309Y-77375000D01*
X121839404Y-77413095D01*
X121877500Y-77489285D01*
X121915595Y-77641666D01*
X121915595Y-77832142D01*
X121877500Y-77984523D01*
X121839404Y-78060714D01*
X121801309Y-78098809D01*
X121725119Y-78136904D01*
X121648928Y-78136904D01*
X121572738Y-78098809D01*
X121534642Y-78060714D01*
X121496547Y-77984523D01*
X121458452Y-77832142D01*
X121458452Y-77641666D01*
X121496547Y-77489285D01*
X121534642Y-77413095D01*
X121572738Y-77375000D01*
X121648928Y-77336904D01*
X117153690Y-74796904D02*
X117420357Y-75596904D01*
X117687023Y-74796904D01*
X117953690Y-75596904D02*
X117953690Y-74796904D01*
X118258452Y-74796904D01*
X118334642Y-74835000D01*
X118372738Y-74873095D01*
X118410833Y-74949285D01*
X118410833Y-75063571D01*
X118372738Y-75139761D01*
X118334642Y-75177857D01*
X118258452Y-75215952D01*
X117953690Y-75215952D01*
X118906071Y-74796904D02*
X119058452Y-74796904D01*
X119134642Y-74835000D01*
X119210833Y-74911190D01*
X119248928Y-75063571D01*
X119248928Y-75330238D01*
X119210833Y-75482619D01*
X119134642Y-75558809D01*
X119058452Y-75596904D01*
X118906071Y-75596904D01*
X118829880Y-75558809D01*
X118753690Y-75482619D01*
X118715595Y-75330238D01*
X118715595Y-75063571D01*
X118753690Y-74911190D01*
X118829880Y-74835000D01*
X118906071Y-74796904D01*
X119477500Y-74796904D02*
X119934642Y-74796904D01*
X119706071Y-75596904D02*
X119706071Y-74796904D01*
X120010833Y-75673095D02*
X120620357Y-75673095D01*
X120772738Y-75368333D02*
X121153690Y-75368333D01*
X120696547Y-75596904D02*
X120963214Y-74796904D01*
X121229880Y-75596904D01*
X121915595Y-75596904D02*
X121458452Y-75596904D01*
X121687023Y-75596904D02*
X121687023Y-74796904D01*
X121610833Y-74911190D01*
X121534642Y-74987380D01*
X121458452Y-75025476D01*
X117687023Y-72295000D02*
X117610833Y-72256904D01*
X117496547Y-72256904D01*
X117382261Y-72295000D01*
X117306071Y-72371190D01*
X117267976Y-72447380D01*
X117229880Y-72599761D01*
X117229880Y-72714047D01*
X117267976Y-72866428D01*
X117306071Y-72942619D01*
X117382261Y-73018809D01*
X117496547Y-73056904D01*
X117572738Y-73056904D01*
X117687023Y-73018809D01*
X117725119Y-72980714D01*
X117725119Y-72714047D01*
X117572738Y-72714047D01*
X118067976Y-73056904D02*
X118067976Y-72256904D01*
X118525119Y-73056904D01*
X118525119Y-72256904D01*
X118906071Y-73056904D02*
X118906071Y-72256904D01*
X119096547Y-72256904D01*
X119210833Y-72295000D01*
X119287023Y-72371190D01*
X119325119Y-72447380D01*
X119363214Y-72599761D01*
X119363214Y-72714047D01*
X119325119Y-72866428D01*
X119287023Y-72942619D01*
X119210833Y-73018809D01*
X119096547Y-73056904D01*
X118906071Y-73056904D01*
X117687023Y-69755000D02*
X117610833Y-69716904D01*
X117496547Y-69716904D01*
X117382261Y-69755000D01*
X117306071Y-69831190D01*
X117267976Y-69907380D01*
X117229880Y-70059761D01*
X117229880Y-70174047D01*
X117267976Y-70326428D01*
X117306071Y-70402619D01*
X117382261Y-70478809D01*
X117496547Y-70516904D01*
X117572738Y-70516904D01*
X117687023Y-70478809D01*
X117725119Y-70440714D01*
X117725119Y-70174047D01*
X117572738Y-70174047D01*
X118067976Y-70516904D02*
X118067976Y-69716904D01*
X118525119Y-70516904D01*
X118525119Y-69716904D01*
X118906071Y-70516904D02*
X118906071Y-69716904D01*
X119096547Y-69716904D01*
X119210833Y-69755000D01*
X119287023Y-69831190D01*
X119325119Y-69907380D01*
X119363214Y-70059761D01*
X119363214Y-70174047D01*
X119325119Y-70326428D01*
X119287023Y-70402619D01*
X119210833Y-70478809D01*
X119096547Y-70516904D01*
X118906071Y-70516904D01*
X117648928Y-67976904D02*
X117267976Y-67976904D01*
X117267976Y-67176904D01*
X117915595Y-67557857D02*
X118182261Y-67557857D01*
X118296547Y-67976904D02*
X117915595Y-67976904D01*
X117915595Y-67176904D01*
X118296547Y-67176904D01*
X118639404Y-67976904D02*
X118639404Y-67176904D01*
X118829880Y-67176904D01*
X118944166Y-67215000D01*
X119020357Y-67291190D01*
X119058452Y-67367380D01*
X119096547Y-67519761D01*
X119096547Y-67634047D01*
X119058452Y-67786428D01*
X119020357Y-67862619D01*
X118944166Y-67938809D01*
X118829880Y-67976904D01*
X118639404Y-67976904D01*
X119248928Y-68053095D02*
X119858452Y-68053095D01*
X120048928Y-67976904D02*
X120048928Y-67176904D01*
X120239404Y-67176904D01*
X120353690Y-67215000D01*
X120429880Y-67291190D01*
X120467976Y-67367380D01*
X120506071Y-67519761D01*
X120506071Y-67634047D01*
X120467976Y-67786428D01*
X120429880Y-67862619D01*
X120353690Y-67938809D01*
X120239404Y-67976904D01*
X120048928Y-67976904D01*
X120810833Y-67748333D02*
X121191785Y-67748333D01*
X120734642Y-67976904D02*
X121001309Y-67176904D01*
X121267976Y-67976904D01*
X121420357Y-67176904D02*
X121877500Y-67176904D01*
X121648928Y-67976904D02*
X121648928Y-67176904D01*
X122106071Y-67748333D02*
X122487023Y-67748333D01*
X122029880Y-67976904D02*
X122296547Y-67176904D01*
X122563214Y-67976904D01*
X117648928Y-65436904D02*
X117267976Y-65436904D01*
X117267976Y-64636904D01*
X117915595Y-65017857D02*
X118182261Y-65017857D01*
X118296547Y-65436904D02*
X117915595Y-65436904D01*
X117915595Y-64636904D01*
X118296547Y-64636904D01*
X118639404Y-65436904D02*
X118639404Y-64636904D01*
X118829880Y-64636904D01*
X118944166Y-64675000D01*
X119020357Y-64751190D01*
X119058452Y-64827380D01*
X119096547Y-64979761D01*
X119096547Y-65094047D01*
X119058452Y-65246428D01*
X119020357Y-65322619D01*
X118944166Y-65398809D01*
X118829880Y-65436904D01*
X118639404Y-65436904D01*
X119248928Y-65513095D02*
X119858452Y-65513095D01*
X120506071Y-65360714D02*
X120467976Y-65398809D01*
X120353690Y-65436904D01*
X120277500Y-65436904D01*
X120163214Y-65398809D01*
X120087023Y-65322619D01*
X120048928Y-65246428D01*
X120010833Y-65094047D01*
X120010833Y-64979761D01*
X120048928Y-64827380D01*
X120087023Y-64751190D01*
X120163214Y-64675000D01*
X120277500Y-64636904D01*
X120353690Y-64636904D01*
X120467976Y-64675000D01*
X120506071Y-64713095D01*
X121229880Y-65436904D02*
X120848928Y-65436904D01*
X120848928Y-64636904D01*
X121496547Y-65436904D02*
X121496547Y-64636904D01*
X121953690Y-65436904D02*
X121610833Y-64979761D01*
X121953690Y-64636904D02*
X121496547Y-65094047D01*
X117648928Y-62896904D02*
X117267976Y-62896904D01*
X117267976Y-62096904D01*
X117915595Y-62477857D02*
X118182261Y-62477857D01*
X118296547Y-62896904D02*
X117915595Y-62896904D01*
X117915595Y-62096904D01*
X118296547Y-62096904D01*
X118639404Y-62896904D02*
X118639404Y-62096904D01*
X118829880Y-62096904D01*
X118944166Y-62135000D01*
X119020357Y-62211190D01*
X119058452Y-62287380D01*
X119096547Y-62439761D01*
X119096547Y-62554047D01*
X119058452Y-62706428D01*
X119020357Y-62782619D01*
X118944166Y-62858809D01*
X118829880Y-62896904D01*
X118639404Y-62896904D01*
X119248928Y-62973095D02*
X119858452Y-62973095D01*
X120429880Y-62896904D02*
X120048928Y-62896904D01*
X120048928Y-62096904D01*
X120696547Y-62477857D02*
X120963214Y-62477857D01*
X121077500Y-62896904D02*
X120696547Y-62896904D01*
X120696547Y-62096904D01*
X121077500Y-62096904D01*
X117077500Y-59224000D02*
X117839404Y-59224000D01*
X117229880Y-60318809D02*
X117344166Y-60356904D01*
X117534642Y-60356904D01*
X117610833Y-60318809D01*
X117648928Y-60280714D01*
X117687023Y-60204523D01*
X117687023Y-60128333D01*
X117648928Y-60052142D01*
X117610833Y-60014047D01*
X117534642Y-59975952D01*
X117382261Y-59937857D01*
X117306071Y-59899761D01*
X117267976Y-59861666D01*
X117229880Y-59785476D01*
X117229880Y-59709285D01*
X117267976Y-59633095D01*
X117306071Y-59595000D01*
X117382261Y-59556904D01*
X117572738Y-59556904D01*
X117687023Y-59595000D01*
X117839404Y-59224000D02*
X118753690Y-59224000D01*
X117953690Y-59556904D02*
X118144166Y-60356904D01*
X118296547Y-59785476D01*
X118448928Y-60356904D01*
X118639404Y-59556904D01*
X118753690Y-59224000D02*
X119363214Y-59224000D01*
X118753690Y-60433095D02*
X119363214Y-60433095D01*
X119363214Y-59224000D02*
X120125119Y-59224000D01*
X119515595Y-60318809D02*
X119629880Y-60356904D01*
X119820357Y-60356904D01*
X119896547Y-60318809D01*
X119934642Y-60280714D01*
X119972738Y-60204523D01*
X119972738Y-60128333D01*
X119934642Y-60052142D01*
X119896547Y-60014047D01*
X119820357Y-59975952D01*
X119667976Y-59937857D01*
X119591785Y-59899761D01*
X119553690Y-59861666D01*
X119515595Y-59785476D01*
X119515595Y-59709285D01*
X119553690Y-59633095D01*
X119591785Y-59595000D01*
X119667976Y-59556904D01*
X119858452Y-59556904D01*
X119972738Y-59595000D01*
X120125119Y-59224000D02*
X120848928Y-59224000D01*
X120315595Y-59937857D02*
X120582261Y-59937857D01*
X120696547Y-60356904D02*
X120315595Y-60356904D01*
X120315595Y-59556904D01*
X120696547Y-59556904D01*
X120848928Y-59224000D02*
X121648928Y-59224000D01*
X121496547Y-60356904D02*
X121229880Y-59975952D01*
X121039404Y-60356904D02*
X121039404Y-59556904D01*
X121344166Y-59556904D01*
X121420357Y-59595000D01*
X121458452Y-59633095D01*
X121496547Y-59709285D01*
X121496547Y-59823571D01*
X121458452Y-59899761D01*
X121420357Y-59937857D01*
X121344166Y-59975952D01*
X121039404Y-59975952D01*
X121648928Y-59224000D02*
X122258452Y-59224000D01*
X121648928Y-60433095D02*
X122258452Y-60433095D01*
X122258452Y-59224000D02*
X123058452Y-59224000D01*
X122906071Y-60280714D02*
X122867976Y-60318809D01*
X122753690Y-60356904D01*
X122677500Y-60356904D01*
X122563214Y-60318809D01*
X122487023Y-60242619D01*
X122448928Y-60166428D01*
X122410833Y-60014047D01*
X122410833Y-59899761D01*
X122448928Y-59747380D01*
X122487023Y-59671190D01*
X122563214Y-59595000D01*
X122677500Y-59556904D01*
X122753690Y-59556904D01*
X122867976Y-59595000D01*
X122906071Y-59633095D01*
X123058452Y-59224000D02*
X123782261Y-59224000D01*
X123248928Y-59937857D02*
X123515595Y-59937857D01*
X123629880Y-60356904D02*
X123248928Y-60356904D01*
X123248928Y-59556904D01*
X123629880Y-59556904D01*
X117229880Y-57778809D02*
X117344166Y-57816904D01*
X117534642Y-57816904D01*
X117610833Y-57778809D01*
X117648928Y-57740714D01*
X117687023Y-57664523D01*
X117687023Y-57588333D01*
X117648928Y-57512142D01*
X117610833Y-57474047D01*
X117534642Y-57435952D01*
X117382261Y-57397857D01*
X117306071Y-57359761D01*
X117267976Y-57321666D01*
X117229880Y-57245476D01*
X117229880Y-57169285D01*
X117267976Y-57093095D01*
X117306071Y-57055000D01*
X117382261Y-57016904D01*
X117572738Y-57016904D01*
X117687023Y-57055000D01*
X117953690Y-57016904D02*
X118144166Y-57816904D01*
X118296547Y-57245476D01*
X118448928Y-57816904D01*
X118639404Y-57016904D01*
X118753690Y-57893095D02*
X119363214Y-57893095D01*
X119515595Y-57778809D02*
X119629880Y-57816904D01*
X119820357Y-57816904D01*
X119896547Y-57778809D01*
X119934642Y-57740714D01*
X119972738Y-57664523D01*
X119972738Y-57588333D01*
X119934642Y-57512142D01*
X119896547Y-57474047D01*
X119820357Y-57435952D01*
X119667976Y-57397857D01*
X119591785Y-57359761D01*
X119553690Y-57321666D01*
X119515595Y-57245476D01*
X119515595Y-57169285D01*
X119553690Y-57093095D01*
X119591785Y-57055000D01*
X119667976Y-57016904D01*
X119858452Y-57016904D01*
X119972738Y-57055000D01*
X120315595Y-57397857D02*
X120582261Y-57397857D01*
X120696547Y-57816904D02*
X120315595Y-57816904D01*
X120315595Y-57016904D01*
X120696547Y-57016904D01*
X121496547Y-57816904D02*
X121229880Y-57435952D01*
X121039404Y-57816904D02*
X121039404Y-57016904D01*
X121344166Y-57016904D01*
X121420357Y-57055000D01*
X121458452Y-57093095D01*
X121496547Y-57169285D01*
X121496547Y-57283571D01*
X121458452Y-57359761D01*
X121420357Y-57397857D01*
X121344166Y-57435952D01*
X121039404Y-57435952D01*
X121648928Y-57893095D02*
X122258452Y-57893095D01*
X122448928Y-57816904D02*
X122448928Y-57016904D01*
X122639404Y-57016904D01*
X122753690Y-57055000D01*
X122829880Y-57131190D01*
X122867976Y-57207380D01*
X122906071Y-57359761D01*
X122906071Y-57474047D01*
X122867976Y-57626428D01*
X122829880Y-57702619D01*
X122753690Y-57778809D01*
X122639404Y-57816904D01*
X122448928Y-57816904D01*
X123210833Y-57588333D02*
X123591785Y-57588333D01*
X123134642Y-57816904D02*
X123401309Y-57016904D01*
X123667976Y-57816904D01*
X123820357Y-57016904D02*
X124277500Y-57016904D01*
X124048928Y-57816904D02*
X124048928Y-57016904D01*
X124506071Y-57588333D02*
X124887023Y-57588333D01*
X124429880Y-57816904D02*
X124696547Y-57016904D01*
X124963214Y-57816904D01*
X105237261Y-83216904D02*
X105237261Y-82416904D01*
X105542023Y-82416904D01*
X105618214Y-82455000D01*
X105656309Y-82493095D01*
X105694404Y-82569285D01*
X105694404Y-82683571D01*
X105656309Y-82759761D01*
X105618214Y-82797857D01*
X105542023Y-82835952D01*
X105237261Y-82835952D01*
X106189642Y-82416904D02*
X106342023Y-82416904D01*
X106418214Y-82455000D01*
X106494404Y-82531190D01*
X106532500Y-82683571D01*
X106532500Y-82950238D01*
X106494404Y-83102619D01*
X106418214Y-83178809D01*
X106342023Y-83216904D01*
X106189642Y-83216904D01*
X106113452Y-83178809D01*
X106037261Y-83102619D01*
X105999166Y-82950238D01*
X105999166Y-82683571D01*
X106037261Y-82531190D01*
X106113452Y-82455000D01*
X106189642Y-82416904D01*
X106761071Y-82416904D02*
X107218214Y-82416904D01*
X106989642Y-83216904D02*
X106989642Y-82416904D01*
X107484880Y-83216904D02*
X107484880Y-82416904D01*
X107675357Y-83293095D02*
X108284880Y-83293095D01*
X108932500Y-83140714D02*
X108894404Y-83178809D01*
X108780119Y-83216904D01*
X108703928Y-83216904D01*
X108589642Y-83178809D01*
X108513452Y-83102619D01*
X108475357Y-83026428D01*
X108437261Y-82874047D01*
X108437261Y-82759761D01*
X108475357Y-82607380D01*
X108513452Y-82531190D01*
X108589642Y-82455000D01*
X108703928Y-82416904D01*
X108780119Y-82416904D01*
X108894404Y-82455000D01*
X108932500Y-82493095D01*
X109656309Y-83216904D02*
X109275357Y-83216904D01*
X109275357Y-82416904D01*
X109922976Y-83216904D02*
X109922976Y-82416904D01*
X110380119Y-83216904D02*
X110037261Y-82759761D01*
X110380119Y-82416904D02*
X109922976Y-82874047D01*
X105732500Y-79544000D02*
X106532500Y-79544000D01*
X105922976Y-80676904D02*
X105922976Y-79876904D01*
X106227738Y-79876904D01*
X106303928Y-79915000D01*
X106342023Y-79953095D01*
X106380119Y-80029285D01*
X106380119Y-80143571D01*
X106342023Y-80219761D01*
X106303928Y-80257857D01*
X106227738Y-80295952D01*
X105922976Y-80295952D01*
X106532500Y-79544000D02*
X107370595Y-79544000D01*
X106875357Y-79876904D02*
X107027738Y-79876904D01*
X107103928Y-79915000D01*
X107180119Y-79991190D01*
X107218214Y-80143571D01*
X107218214Y-80410238D01*
X107180119Y-80562619D01*
X107103928Y-80638809D01*
X107027738Y-80676904D01*
X106875357Y-80676904D01*
X106799166Y-80638809D01*
X106722976Y-80562619D01*
X106684880Y-80410238D01*
X106684880Y-80143571D01*
X106722976Y-79991190D01*
X106799166Y-79915000D01*
X106875357Y-79876904D01*
X107370595Y-79544000D02*
X107980119Y-79544000D01*
X107446785Y-79876904D02*
X107903928Y-79876904D01*
X107675357Y-80676904D02*
X107675357Y-79876904D01*
X107980119Y-79544000D02*
X108361071Y-79544000D01*
X108170595Y-80676904D02*
X108170595Y-79876904D01*
X108361071Y-79544000D02*
X108970595Y-79544000D01*
X108361071Y-80753095D02*
X108970595Y-80753095D01*
X108970595Y-79544000D02*
X109770595Y-79544000D01*
X109618214Y-80600714D02*
X109580119Y-80638809D01*
X109465833Y-80676904D01*
X109389642Y-80676904D01*
X109275357Y-80638809D01*
X109199166Y-80562619D01*
X109161071Y-80486428D01*
X109122976Y-80334047D01*
X109122976Y-80219761D01*
X109161071Y-80067380D01*
X109199166Y-79991190D01*
X109275357Y-79915000D01*
X109389642Y-79876904D01*
X109465833Y-79876904D01*
X109580119Y-79915000D01*
X109618214Y-79953095D01*
X109770595Y-79544000D02*
X110532500Y-79544000D01*
X109922976Y-80638809D02*
X110037261Y-80676904D01*
X110227738Y-80676904D01*
X110303928Y-80638809D01*
X110342023Y-80600714D01*
X110380119Y-80524523D01*
X110380119Y-80448333D01*
X110342023Y-80372142D01*
X110303928Y-80334047D01*
X110227738Y-80295952D01*
X110075357Y-80257857D01*
X109999166Y-80219761D01*
X109961071Y-80181666D01*
X109922976Y-80105476D01*
X109922976Y-80029285D01*
X109961071Y-79953095D01*
X109999166Y-79915000D01*
X110075357Y-79876904D01*
X110265833Y-79876904D01*
X110380119Y-79915000D01*
X105618214Y-77336904D02*
X105884880Y-78136904D01*
X106151547Y-77336904D01*
X106418214Y-78136904D02*
X106418214Y-77336904D01*
X106722976Y-77336904D01*
X106799166Y-77375000D01*
X106837261Y-77413095D01*
X106875357Y-77489285D01*
X106875357Y-77603571D01*
X106837261Y-77679761D01*
X106799166Y-77717857D01*
X106722976Y-77755952D01*
X106418214Y-77755952D01*
X107370595Y-77336904D02*
X107522976Y-77336904D01*
X107599166Y-77375000D01*
X107675357Y-77451190D01*
X107713452Y-77603571D01*
X107713452Y-77870238D01*
X107675357Y-78022619D01*
X107599166Y-78098809D01*
X107522976Y-78136904D01*
X107370595Y-78136904D01*
X107294404Y-78098809D01*
X107218214Y-78022619D01*
X107180119Y-77870238D01*
X107180119Y-77603571D01*
X107218214Y-77451190D01*
X107294404Y-77375000D01*
X107370595Y-77336904D01*
X107942023Y-77336904D02*
X108399166Y-77336904D01*
X108170595Y-78136904D02*
X108170595Y-77336904D01*
X108475357Y-78213095D02*
X109084880Y-78213095D01*
X109237261Y-77908333D02*
X109618214Y-77908333D01*
X109161071Y-78136904D02*
X109427738Y-77336904D01*
X109694404Y-78136904D01*
X109884880Y-77336904D02*
X110380119Y-77336904D01*
X110113452Y-77641666D01*
X110227738Y-77641666D01*
X110303928Y-77679761D01*
X110342023Y-77717857D01*
X110380119Y-77794047D01*
X110380119Y-77984523D01*
X110342023Y-78060714D01*
X110303928Y-78098809D01*
X110227738Y-78136904D01*
X109999166Y-78136904D01*
X109922976Y-78098809D01*
X109884880Y-78060714D01*
X105618214Y-74796904D02*
X105884880Y-75596904D01*
X106151547Y-74796904D01*
X106418214Y-75596904D02*
X106418214Y-74796904D01*
X106722976Y-74796904D01*
X106799166Y-74835000D01*
X106837261Y-74873095D01*
X106875357Y-74949285D01*
X106875357Y-75063571D01*
X106837261Y-75139761D01*
X106799166Y-75177857D01*
X106722976Y-75215952D01*
X106418214Y-75215952D01*
X107370595Y-74796904D02*
X107522976Y-74796904D01*
X107599166Y-74835000D01*
X107675357Y-74911190D01*
X107713452Y-75063571D01*
X107713452Y-75330238D01*
X107675357Y-75482619D01*
X107599166Y-75558809D01*
X107522976Y-75596904D01*
X107370595Y-75596904D01*
X107294404Y-75558809D01*
X107218214Y-75482619D01*
X107180119Y-75330238D01*
X107180119Y-75063571D01*
X107218214Y-74911190D01*
X107294404Y-74835000D01*
X107370595Y-74796904D01*
X107942023Y-74796904D02*
X108399166Y-74796904D01*
X108170595Y-75596904D02*
X108170595Y-74796904D01*
X108475357Y-75673095D02*
X109084880Y-75673095D01*
X109237261Y-75368333D02*
X109618214Y-75368333D01*
X109161071Y-75596904D02*
X109427738Y-74796904D01*
X109694404Y-75596904D01*
X109922976Y-74873095D02*
X109961071Y-74835000D01*
X110037261Y-74796904D01*
X110227738Y-74796904D01*
X110303928Y-74835000D01*
X110342023Y-74873095D01*
X110380119Y-74949285D01*
X110380119Y-75025476D01*
X110342023Y-75139761D01*
X109884880Y-75596904D01*
X110380119Y-75596904D01*
X109999166Y-72828333D02*
X110380119Y-72828333D01*
X109922976Y-73056904D02*
X110189642Y-72256904D01*
X110456309Y-73056904D01*
X110189642Y-70097857D02*
X110303928Y-70135952D01*
X110342023Y-70174047D01*
X110380119Y-70250238D01*
X110380119Y-70364523D01*
X110342023Y-70440714D01*
X110303928Y-70478809D01*
X110227738Y-70516904D01*
X109922976Y-70516904D01*
X109922976Y-69716904D01*
X110189642Y-69716904D01*
X110265833Y-69755000D01*
X110303928Y-69793095D01*
X110342023Y-69869285D01*
X110342023Y-69945476D01*
X110303928Y-70021666D01*
X110265833Y-70059761D01*
X110189642Y-70097857D01*
X109922976Y-70097857D01*
X103903928Y-66844000D02*
X104551547Y-66844000D01*
X104475357Y-67976904D02*
X104094404Y-67976904D01*
X104094404Y-67176904D01*
X104551547Y-66844000D02*
X105275357Y-66844000D01*
X104742023Y-67557857D02*
X105008690Y-67557857D01*
X105122976Y-67976904D02*
X104742023Y-67976904D01*
X104742023Y-67176904D01*
X105122976Y-67176904D01*
X105275357Y-66844000D02*
X106075357Y-66844000D01*
X105465833Y-67976904D02*
X105465833Y-67176904D01*
X105656309Y-67176904D01*
X105770595Y-67215000D01*
X105846785Y-67291190D01*
X105884880Y-67367380D01*
X105922976Y-67519761D01*
X105922976Y-67634047D01*
X105884880Y-67786428D01*
X105846785Y-67862619D01*
X105770595Y-67938809D01*
X105656309Y-67976904D01*
X105465833Y-67976904D01*
X106075357Y-66844000D02*
X106684880Y-66844000D01*
X106075357Y-68053095D02*
X106684880Y-68053095D01*
X106684880Y-66844000D02*
X107446785Y-66844000D01*
X106837261Y-67938809D02*
X106951547Y-67976904D01*
X107142023Y-67976904D01*
X107218214Y-67938809D01*
X107256309Y-67900714D01*
X107294404Y-67824523D01*
X107294404Y-67748333D01*
X107256309Y-67672142D01*
X107218214Y-67634047D01*
X107142023Y-67595952D01*
X106989642Y-67557857D01*
X106913452Y-67519761D01*
X106875357Y-67481666D01*
X106837261Y-67405476D01*
X106837261Y-67329285D01*
X106875357Y-67253095D01*
X106913452Y-67215000D01*
X106989642Y-67176904D01*
X107180119Y-67176904D01*
X107294404Y-67215000D01*
X107446785Y-66844000D02*
X108361071Y-66844000D01*
X107561071Y-67176904D02*
X107751547Y-67976904D01*
X107903928Y-67405476D01*
X108056309Y-67976904D01*
X108246785Y-67176904D01*
X108361071Y-66844000D02*
X108970595Y-66844000D01*
X108361071Y-68053095D02*
X108970595Y-68053095D01*
X108970595Y-66844000D02*
X109808690Y-66844000D01*
X109313452Y-67176904D02*
X109465833Y-67176904D01*
X109542023Y-67215000D01*
X109618214Y-67291190D01*
X109656309Y-67443571D01*
X109656309Y-67710238D01*
X109618214Y-67862619D01*
X109542023Y-67938809D01*
X109465833Y-67976904D01*
X109313452Y-67976904D01*
X109237261Y-67938809D01*
X109161071Y-67862619D01*
X109122976Y-67710238D01*
X109122976Y-67443571D01*
X109161071Y-67291190D01*
X109237261Y-67215000D01*
X109313452Y-67176904D01*
X109808690Y-66844000D02*
X110532500Y-66844000D01*
X109999166Y-67557857D02*
X110265833Y-67557857D01*
X110380119Y-67976904D02*
X109999166Y-67976904D01*
X109999166Y-67176904D01*
X110380119Y-67176904D01*
X100818214Y-64304000D02*
X101465833Y-64304000D01*
X101389642Y-65436904D02*
X101008690Y-65436904D01*
X101008690Y-64636904D01*
X101465833Y-64304000D02*
X102189642Y-64304000D01*
X101656309Y-65017857D02*
X101922976Y-65017857D01*
X102037261Y-65436904D02*
X101656309Y-65436904D01*
X101656309Y-64636904D01*
X102037261Y-64636904D01*
X102189642Y-64304000D02*
X102989642Y-64304000D01*
X102380119Y-65436904D02*
X102380119Y-64636904D01*
X102570595Y-64636904D01*
X102684880Y-64675000D01*
X102761071Y-64751190D01*
X102799166Y-64827380D01*
X102837261Y-64979761D01*
X102837261Y-65094047D01*
X102799166Y-65246428D01*
X102761071Y-65322619D01*
X102684880Y-65398809D01*
X102570595Y-65436904D01*
X102380119Y-65436904D01*
X102989642Y-64304000D02*
X103599166Y-64304000D01*
X102989642Y-65513095D02*
X103599166Y-65513095D01*
X103599166Y-64304000D02*
X104399166Y-64304000D01*
X103789642Y-65436904D02*
X103789642Y-64636904D01*
X103980119Y-64636904D01*
X104094404Y-64675000D01*
X104170595Y-64751190D01*
X104208690Y-64827380D01*
X104246785Y-64979761D01*
X104246785Y-65094047D01*
X104208690Y-65246428D01*
X104170595Y-65322619D01*
X104094404Y-65398809D01*
X103980119Y-65436904D01*
X103789642Y-65436904D01*
X104399166Y-64304000D02*
X104780119Y-64304000D01*
X104589642Y-65436904D02*
X104589642Y-64636904D01*
X104780119Y-64304000D02*
X105542023Y-64304000D01*
X104932500Y-65398809D02*
X105046785Y-65436904D01*
X105237261Y-65436904D01*
X105313452Y-65398809D01*
X105351547Y-65360714D01*
X105389642Y-65284523D01*
X105389642Y-65208333D01*
X105351547Y-65132142D01*
X105313452Y-65094047D01*
X105237261Y-65055952D01*
X105084880Y-65017857D01*
X105008690Y-64979761D01*
X104970595Y-64941666D01*
X104932500Y-64865476D01*
X104932500Y-64789285D01*
X104970595Y-64713095D01*
X105008690Y-64675000D01*
X105084880Y-64636904D01*
X105275357Y-64636904D01*
X105389642Y-64675000D01*
X105542023Y-64304000D02*
X106342023Y-64304000D01*
X105732500Y-65436904D02*
X105732500Y-64636904D01*
X106037261Y-64636904D01*
X106113452Y-64675000D01*
X106151547Y-64713095D01*
X106189642Y-64789285D01*
X106189642Y-64903571D01*
X106151547Y-64979761D01*
X106113452Y-65017857D01*
X106037261Y-65055952D01*
X105732500Y-65055952D01*
X106342023Y-64304000D02*
X106989642Y-64304000D01*
X106913452Y-65436904D02*
X106532500Y-65436904D01*
X106532500Y-64636904D01*
X106989642Y-64304000D02*
X107675357Y-64304000D01*
X107142023Y-65208333D02*
X107522976Y-65208333D01*
X107065833Y-65436904D02*
X107332500Y-64636904D01*
X107599166Y-65436904D01*
X107675357Y-64304000D02*
X108361071Y-64304000D01*
X108018214Y-65055952D02*
X108018214Y-65436904D01*
X107751547Y-64636904D02*
X108018214Y-65055952D01*
X108284880Y-64636904D01*
X108361071Y-64304000D02*
X108970595Y-64304000D01*
X108361071Y-65513095D02*
X108970595Y-65513095D01*
X108970595Y-64304000D02*
X109808690Y-64304000D01*
X109313452Y-64636904D02*
X109465833Y-64636904D01*
X109542023Y-64675000D01*
X109618214Y-64751190D01*
X109656309Y-64903571D01*
X109656309Y-65170238D01*
X109618214Y-65322619D01*
X109542023Y-65398809D01*
X109465833Y-65436904D01*
X109313452Y-65436904D01*
X109237261Y-65398809D01*
X109161071Y-65322619D01*
X109122976Y-65170238D01*
X109122976Y-64903571D01*
X109161071Y-64751190D01*
X109237261Y-64675000D01*
X109313452Y-64636904D01*
X109808690Y-64304000D02*
X110532500Y-64304000D01*
X109999166Y-65017857D02*
X110265833Y-65017857D01*
X110380119Y-65436904D02*
X109999166Y-65436904D01*
X109999166Y-64636904D01*
X110380119Y-64636904D01*
X106189642Y-61764000D02*
X106837261Y-61764000D01*
X106761071Y-62896904D02*
X106380119Y-62896904D01*
X106380119Y-62096904D01*
X106837261Y-61764000D02*
X107561071Y-61764000D01*
X107027738Y-62477857D02*
X107294404Y-62477857D01*
X107408690Y-62896904D02*
X107027738Y-62896904D01*
X107027738Y-62096904D01*
X107408690Y-62096904D01*
X107561071Y-61764000D02*
X108361071Y-61764000D01*
X107751547Y-62896904D02*
X107751547Y-62096904D01*
X107942023Y-62096904D01*
X108056309Y-62135000D01*
X108132500Y-62211190D01*
X108170595Y-62287380D01*
X108208690Y-62439761D01*
X108208690Y-62554047D01*
X108170595Y-62706428D01*
X108132500Y-62782619D01*
X108056309Y-62858809D01*
X107942023Y-62896904D01*
X107751547Y-62896904D01*
X108361071Y-61764000D02*
X108970595Y-61764000D01*
X108361071Y-62973095D02*
X108970595Y-62973095D01*
X108970595Y-61764000D02*
X109808690Y-61764000D01*
X109313452Y-62096904D02*
X109465833Y-62096904D01*
X109542023Y-62135000D01*
X109618214Y-62211190D01*
X109656309Y-62363571D01*
X109656309Y-62630238D01*
X109618214Y-62782619D01*
X109542023Y-62858809D01*
X109465833Y-62896904D01*
X109313452Y-62896904D01*
X109237261Y-62858809D01*
X109161071Y-62782619D01*
X109122976Y-62630238D01*
X109122976Y-62363571D01*
X109161071Y-62211190D01*
X109237261Y-62135000D01*
X109313452Y-62096904D01*
X109808690Y-61764000D02*
X110532500Y-61764000D01*
X109999166Y-62477857D02*
X110265833Y-62477857D01*
X110380119Y-62896904D02*
X109999166Y-62896904D01*
X109999166Y-62096904D01*
X110380119Y-62096904D01*
X103903928Y-59224000D02*
X104665833Y-59224000D01*
X104056309Y-60318809D02*
X104170595Y-60356904D01*
X104361071Y-60356904D01*
X104437261Y-60318809D01*
X104475357Y-60280714D01*
X104513452Y-60204523D01*
X104513452Y-60128333D01*
X104475357Y-60052142D01*
X104437261Y-60014047D01*
X104361071Y-59975952D01*
X104208690Y-59937857D01*
X104132500Y-59899761D01*
X104094404Y-59861666D01*
X104056309Y-59785476D01*
X104056309Y-59709285D01*
X104094404Y-59633095D01*
X104132500Y-59595000D01*
X104208690Y-59556904D01*
X104399166Y-59556904D01*
X104513452Y-59595000D01*
X104665833Y-59224000D02*
X105580119Y-59224000D01*
X104780119Y-59556904D02*
X104970595Y-60356904D01*
X105122976Y-59785476D01*
X105275357Y-60356904D01*
X105465833Y-59556904D01*
X105580119Y-59224000D02*
X106189642Y-59224000D01*
X105580119Y-60433095D02*
X106189642Y-60433095D01*
X106189642Y-59224000D02*
X106951547Y-59224000D01*
X106342023Y-60318809D02*
X106456309Y-60356904D01*
X106646785Y-60356904D01*
X106722976Y-60318809D01*
X106761071Y-60280714D01*
X106799166Y-60204523D01*
X106799166Y-60128333D01*
X106761071Y-60052142D01*
X106722976Y-60014047D01*
X106646785Y-59975952D01*
X106494404Y-59937857D01*
X106418214Y-59899761D01*
X106380119Y-59861666D01*
X106342023Y-59785476D01*
X106342023Y-59709285D01*
X106380119Y-59633095D01*
X106418214Y-59595000D01*
X106494404Y-59556904D01*
X106684880Y-59556904D01*
X106799166Y-59595000D01*
X106951547Y-59224000D02*
X107675357Y-59224000D01*
X107142023Y-59937857D02*
X107408690Y-59937857D01*
X107522976Y-60356904D02*
X107142023Y-60356904D01*
X107142023Y-59556904D01*
X107522976Y-59556904D01*
X107675357Y-59224000D02*
X108475357Y-59224000D01*
X108322976Y-60356904D02*
X108056309Y-59975952D01*
X107865833Y-60356904D02*
X107865833Y-59556904D01*
X108170595Y-59556904D01*
X108246785Y-59595000D01*
X108284880Y-59633095D01*
X108322976Y-59709285D01*
X108322976Y-59823571D01*
X108284880Y-59899761D01*
X108246785Y-59937857D01*
X108170595Y-59975952D01*
X107865833Y-59975952D01*
X108475357Y-59224000D02*
X109084880Y-59224000D01*
X108475357Y-60433095D02*
X109084880Y-60433095D01*
X109084880Y-59224000D02*
X109884880Y-59224000D01*
X109275357Y-60356904D02*
X109275357Y-59556904D01*
X109580119Y-59556904D01*
X109656309Y-59595000D01*
X109694404Y-59633095D01*
X109732500Y-59709285D01*
X109732500Y-59823571D01*
X109694404Y-59899761D01*
X109656309Y-59937857D01*
X109580119Y-59975952D01*
X109275357Y-59975952D01*
X109884880Y-59224000D02*
X110532500Y-59224000D01*
X110456309Y-60356904D02*
X110075357Y-60356904D01*
X110075357Y-59556904D01*
X103903928Y-57778809D02*
X104018214Y-57816904D01*
X104208690Y-57816904D01*
X104284880Y-57778809D01*
X104322976Y-57740714D01*
X104361071Y-57664523D01*
X104361071Y-57588333D01*
X104322976Y-57512142D01*
X104284880Y-57474047D01*
X104208690Y-57435952D01*
X104056309Y-57397857D01*
X103980119Y-57359761D01*
X103942023Y-57321666D01*
X103903928Y-57245476D01*
X103903928Y-57169285D01*
X103942023Y-57093095D01*
X103980119Y-57055000D01*
X104056309Y-57016904D01*
X104246785Y-57016904D01*
X104361071Y-57055000D01*
X104627738Y-57016904D02*
X104818214Y-57816904D01*
X104970595Y-57245476D01*
X105122976Y-57816904D01*
X105313452Y-57016904D01*
X105427738Y-57893095D02*
X106037261Y-57893095D01*
X106189642Y-57778809D02*
X106303928Y-57816904D01*
X106494404Y-57816904D01*
X106570595Y-57778809D01*
X106608690Y-57740714D01*
X106646785Y-57664523D01*
X106646785Y-57588333D01*
X106608690Y-57512142D01*
X106570595Y-57474047D01*
X106494404Y-57435952D01*
X106342023Y-57397857D01*
X106265833Y-57359761D01*
X106227738Y-57321666D01*
X106189642Y-57245476D01*
X106189642Y-57169285D01*
X106227738Y-57093095D01*
X106265833Y-57055000D01*
X106342023Y-57016904D01*
X106532500Y-57016904D01*
X106646785Y-57055000D01*
X106989642Y-57397857D02*
X107256309Y-57397857D01*
X107370595Y-57816904D02*
X106989642Y-57816904D01*
X106989642Y-57016904D01*
X107370595Y-57016904D01*
X108170595Y-57816904D02*
X107903928Y-57435952D01*
X107713452Y-57816904D02*
X107713452Y-57016904D01*
X108018214Y-57016904D01*
X108094404Y-57055000D01*
X108132500Y-57093095D01*
X108170595Y-57169285D01*
X108170595Y-57283571D01*
X108132500Y-57359761D01*
X108094404Y-57397857D01*
X108018214Y-57435952D01*
X107713452Y-57435952D01*
X108322976Y-57893095D02*
X108932500Y-57893095D01*
X109580119Y-57740714D02*
X109542023Y-57778809D01*
X109427738Y-57816904D01*
X109351547Y-57816904D01*
X109237261Y-57778809D01*
X109161071Y-57702619D01*
X109122976Y-57626428D01*
X109084880Y-57474047D01*
X109084880Y-57359761D01*
X109122976Y-57207380D01*
X109161071Y-57131190D01*
X109237261Y-57055000D01*
X109351547Y-57016904D01*
X109427738Y-57016904D01*
X109542023Y-57055000D01*
X109580119Y-57093095D01*
X109922976Y-57816904D02*
X109922976Y-57016904D01*
X110227738Y-57016904D01*
X110303928Y-57055000D01*
X110342023Y-57093095D01*
X110380119Y-57169285D01*
X110380119Y-57283571D01*
X110342023Y-57359761D01*
X110303928Y-57397857D01*
X110227738Y-57435952D01*
X109922976Y-57435952D01*
X144523333Y-127122380D02*
X144523333Y-126122380D01*
X144761428Y-126122380D01*
X144904285Y-126170000D01*
X144999523Y-126265238D01*
X145047142Y-126360476D01*
X145094761Y-126550952D01*
X145094761Y-126693809D01*
X145047142Y-126884285D01*
X144999523Y-126979523D01*
X144904285Y-127074761D01*
X144761428Y-127122380D01*
X144523333Y-127122380D01*
X145475714Y-126836666D02*
X145951904Y-126836666D01*
X145380476Y-127122380D02*
X145713809Y-126122380D01*
X146047142Y-127122380D01*
X146951904Y-127027142D02*
X146904285Y-127074761D01*
X146761428Y-127122380D01*
X146666190Y-127122380D01*
X146523333Y-127074761D01*
X146428095Y-126979523D01*
X146380476Y-126884285D01*
X146332857Y-126693809D01*
X146332857Y-126550952D01*
X146380476Y-126360476D01*
X146428095Y-126265238D01*
X146523333Y-126170000D01*
X146666190Y-126122380D01*
X146761428Y-126122380D01*
X146904285Y-126170000D01*
X146951904Y-126217619D01*
X147904285Y-127122380D02*
X147332857Y-127122380D01*
X147618571Y-127122380D02*
X147618571Y-126122380D01*
X147523333Y-126265238D01*
X147428095Y-126360476D01*
X147332857Y-126408095D01*
X173520476Y-138970000D02*
X173444285Y-138931904D01*
X173330000Y-138931904D01*
X173215714Y-138970000D01*
X173139523Y-139046190D01*
X173101428Y-139122380D01*
X173063333Y-139274761D01*
X173063333Y-139389047D01*
X173101428Y-139541428D01*
X173139523Y-139617619D01*
X173215714Y-139693809D01*
X173330000Y-139731904D01*
X173406190Y-139731904D01*
X173520476Y-139693809D01*
X173558571Y-139655714D01*
X173558571Y-139389047D01*
X173406190Y-139389047D01*
X173901428Y-139731904D02*
X173901428Y-138931904D01*
X174358571Y-139731904D01*
X174358571Y-138931904D01*
X174739523Y-139731904D02*
X174739523Y-138931904D01*
X174930000Y-138931904D01*
X175044285Y-138970000D01*
X175120476Y-139046190D01*
X175158571Y-139122380D01*
X175196666Y-139274761D01*
X175196666Y-139389047D01*
X175158571Y-139541428D01*
X175120476Y-139617619D01*
X175044285Y-139693809D01*
X174930000Y-139731904D01*
X174739523Y-139731904D01*
X162090476Y-138970000D02*
X162014285Y-138931904D01*
X161900000Y-138931904D01*
X161785714Y-138970000D01*
X161709523Y-139046190D01*
X161671428Y-139122380D01*
X161633333Y-139274761D01*
X161633333Y-139389047D01*
X161671428Y-139541428D01*
X161709523Y-139617619D01*
X161785714Y-139693809D01*
X161900000Y-139731904D01*
X161976190Y-139731904D01*
X162090476Y-139693809D01*
X162128571Y-139655714D01*
X162128571Y-139389047D01*
X161976190Y-139389047D01*
X162471428Y-139731904D02*
X162471428Y-138931904D01*
X162928571Y-139731904D01*
X162928571Y-138931904D01*
X163309523Y-139731904D02*
X163309523Y-138931904D01*
X163500000Y-138931904D01*
X163614285Y-138970000D01*
X163690476Y-139046190D01*
X163728571Y-139122380D01*
X163766666Y-139274761D01*
X163766666Y-139389047D01*
X163728571Y-139541428D01*
X163690476Y-139617619D01*
X163614285Y-139693809D01*
X163500000Y-139731904D01*
X163309523Y-139731904D01*
X144310476Y-138970000D02*
X144234285Y-138931904D01*
X144120000Y-138931904D01*
X144005714Y-138970000D01*
X143929523Y-139046190D01*
X143891428Y-139122380D01*
X143853333Y-139274761D01*
X143853333Y-139389047D01*
X143891428Y-139541428D01*
X143929523Y-139617619D01*
X144005714Y-139693809D01*
X144120000Y-139731904D01*
X144196190Y-139731904D01*
X144310476Y-139693809D01*
X144348571Y-139655714D01*
X144348571Y-139389047D01*
X144196190Y-139389047D01*
X144691428Y-139731904D02*
X144691428Y-138931904D01*
X145148571Y-139731904D01*
X145148571Y-138931904D01*
X145529523Y-139731904D02*
X145529523Y-138931904D01*
X145720000Y-138931904D01*
X145834285Y-138970000D01*
X145910476Y-139046190D01*
X145948571Y-139122380D01*
X145986666Y-139274761D01*
X145986666Y-139389047D01*
X145948571Y-139541428D01*
X145910476Y-139617619D01*
X145834285Y-139693809D01*
X145720000Y-139731904D01*
X145529523Y-139731904D01*
X108750476Y-138970000D02*
X108674285Y-138931904D01*
X108560000Y-138931904D01*
X108445714Y-138970000D01*
X108369523Y-139046190D01*
X108331428Y-139122380D01*
X108293333Y-139274761D01*
X108293333Y-139389047D01*
X108331428Y-139541428D01*
X108369523Y-139617619D01*
X108445714Y-139693809D01*
X108560000Y-139731904D01*
X108636190Y-139731904D01*
X108750476Y-139693809D01*
X108788571Y-139655714D01*
X108788571Y-139389047D01*
X108636190Y-139389047D01*
X109131428Y-139731904D02*
X109131428Y-138931904D01*
X109588571Y-139731904D01*
X109588571Y-138931904D01*
X109969523Y-139731904D02*
X109969523Y-138931904D01*
X110160000Y-138931904D01*
X110274285Y-138970000D01*
X110350476Y-139046190D01*
X110388571Y-139122380D01*
X110426666Y-139274761D01*
X110426666Y-139389047D01*
X110388571Y-139541428D01*
X110350476Y-139617619D01*
X110274285Y-139693809D01*
X110160000Y-139731904D01*
X109969523Y-139731904D01*
X126530476Y-138970000D02*
X126454285Y-138931904D01*
X126340000Y-138931904D01*
X126225714Y-138970000D01*
X126149523Y-139046190D01*
X126111428Y-139122380D01*
X126073333Y-139274761D01*
X126073333Y-139389047D01*
X126111428Y-139541428D01*
X126149523Y-139617619D01*
X126225714Y-139693809D01*
X126340000Y-139731904D01*
X126416190Y-139731904D01*
X126530476Y-139693809D01*
X126568571Y-139655714D01*
X126568571Y-139389047D01*
X126416190Y-139389047D01*
X126911428Y-139731904D02*
X126911428Y-138931904D01*
X127368571Y-139731904D01*
X127368571Y-138931904D01*
X127749523Y-139731904D02*
X127749523Y-138931904D01*
X127940000Y-138931904D01*
X128054285Y-138970000D01*
X128130476Y-139046190D01*
X128168571Y-139122380D01*
X128206666Y-139274761D01*
X128206666Y-139389047D01*
X128168571Y-139541428D01*
X128130476Y-139617619D01*
X128054285Y-139693809D01*
X127940000Y-139731904D01*
X127749523Y-139731904D01*
X115782023Y-138970000D02*
X115705833Y-138931904D01*
X115591547Y-138931904D01*
X115477261Y-138970000D01*
X115401071Y-139046190D01*
X115362976Y-139122380D01*
X115324880Y-139274761D01*
X115324880Y-139389047D01*
X115362976Y-139541428D01*
X115401071Y-139617619D01*
X115477261Y-139693809D01*
X115591547Y-139731904D01*
X115667738Y-139731904D01*
X115782023Y-139693809D01*
X115820119Y-139655714D01*
X115820119Y-139389047D01*
X115667738Y-139389047D01*
X116162976Y-139731904D02*
X116162976Y-138931904D01*
X116620119Y-139731904D01*
X116620119Y-138931904D01*
X117001071Y-139731904D02*
X117001071Y-138931904D01*
X117191547Y-138931904D01*
X117305833Y-138970000D01*
X117382023Y-139046190D01*
X117420119Y-139122380D01*
X117458214Y-139274761D01*
X117458214Y-139389047D01*
X117420119Y-139541428D01*
X117382023Y-139617619D01*
X117305833Y-139693809D01*
X117191547Y-139731904D01*
X117001071Y-139731904D01*
X151342023Y-138970000D02*
X151265833Y-138931904D01*
X151151547Y-138931904D01*
X151037261Y-138970000D01*
X150961071Y-139046190D01*
X150922976Y-139122380D01*
X150884880Y-139274761D01*
X150884880Y-139389047D01*
X150922976Y-139541428D01*
X150961071Y-139617619D01*
X151037261Y-139693809D01*
X151151547Y-139731904D01*
X151227738Y-139731904D01*
X151342023Y-139693809D01*
X151380119Y-139655714D01*
X151380119Y-139389047D01*
X151227738Y-139389047D01*
X151722976Y-139731904D02*
X151722976Y-138931904D01*
X152180119Y-139731904D01*
X152180119Y-138931904D01*
X152561071Y-139731904D02*
X152561071Y-138931904D01*
X152751547Y-138931904D01*
X152865833Y-138970000D01*
X152942023Y-139046190D01*
X152980119Y-139122380D01*
X153018214Y-139274761D01*
X153018214Y-139389047D01*
X152980119Y-139541428D01*
X152942023Y-139617619D01*
X152865833Y-139693809D01*
X152751547Y-139731904D01*
X152561071Y-139731904D01*
X133562023Y-138970000D02*
X133485833Y-138931904D01*
X133371547Y-138931904D01*
X133257261Y-138970000D01*
X133181071Y-139046190D01*
X133142976Y-139122380D01*
X133104880Y-139274761D01*
X133104880Y-139389047D01*
X133142976Y-139541428D01*
X133181071Y-139617619D01*
X133257261Y-139693809D01*
X133371547Y-139731904D01*
X133447738Y-139731904D01*
X133562023Y-139693809D01*
X133600119Y-139655714D01*
X133600119Y-139389047D01*
X133447738Y-139389047D01*
X133942976Y-139731904D02*
X133942976Y-138931904D01*
X134400119Y-139731904D01*
X134400119Y-138931904D01*
X134781071Y-139731904D02*
X134781071Y-138931904D01*
X134971547Y-138931904D01*
X135085833Y-138970000D01*
X135162023Y-139046190D01*
X135200119Y-139122380D01*
X135238214Y-139274761D01*
X135238214Y-139389047D01*
X135200119Y-139541428D01*
X135162023Y-139617619D01*
X135085833Y-139693809D01*
X134971547Y-139731904D01*
X134781071Y-139731904D01*
X150884880Y-137153809D02*
X150999166Y-137191904D01*
X151189642Y-137191904D01*
X151265833Y-137153809D01*
X151303928Y-137115714D01*
X151342023Y-137039523D01*
X151342023Y-136963333D01*
X151303928Y-136887142D01*
X151265833Y-136849047D01*
X151189642Y-136810952D01*
X151037261Y-136772857D01*
X150961071Y-136734761D01*
X150922976Y-136696666D01*
X150884880Y-136620476D01*
X150884880Y-136544285D01*
X150922976Y-136468095D01*
X150961071Y-136430000D01*
X151037261Y-136391904D01*
X151227738Y-136391904D01*
X151342023Y-136430000D01*
X152142023Y-137115714D02*
X152103928Y-137153809D01*
X151989642Y-137191904D01*
X151913452Y-137191904D01*
X151799166Y-137153809D01*
X151722976Y-137077619D01*
X151684880Y-137001428D01*
X151646785Y-136849047D01*
X151646785Y-136734761D01*
X151684880Y-136582380D01*
X151722976Y-136506190D01*
X151799166Y-136430000D01*
X151913452Y-136391904D01*
X151989642Y-136391904D01*
X152103928Y-136430000D01*
X152142023Y-136468095D01*
X152865833Y-137191904D02*
X152484880Y-137191904D01*
X152484880Y-136391904D01*
X150922976Y-129571904D02*
X150922976Y-128771904D01*
X151189642Y-129343333D01*
X151456309Y-128771904D01*
X151456309Y-129571904D01*
X152180119Y-129038571D02*
X152180119Y-129571904D01*
X151837261Y-129038571D02*
X151837261Y-129457619D01*
X151875357Y-129533809D01*
X151951547Y-129571904D01*
X152065833Y-129571904D01*
X152142023Y-129533809D01*
X152180119Y-129495714D01*
X152446785Y-129038571D02*
X152751547Y-129038571D01*
X152561071Y-128771904D02*
X152561071Y-129457619D01*
X152599166Y-129533809D01*
X152675357Y-129571904D01*
X152751547Y-129571904D01*
X153322976Y-129533809D02*
X153246785Y-129571904D01*
X153094404Y-129571904D01*
X153018214Y-129533809D01*
X152980119Y-129457619D01*
X152980119Y-129152857D01*
X153018214Y-129076666D01*
X153094404Y-129038571D01*
X153246785Y-129038571D01*
X153322976Y-129076666D01*
X153361071Y-129152857D01*
X153361071Y-129229047D01*
X152980119Y-129305238D01*
X150922976Y-132111904D02*
X150922976Y-131311904D01*
X151761071Y-132111904D02*
X151494404Y-131730952D01*
X151303928Y-132111904D02*
X151303928Y-131311904D01*
X151608690Y-131311904D01*
X151684880Y-131350000D01*
X151722976Y-131388095D01*
X151761071Y-131464285D01*
X151761071Y-131578571D01*
X151722976Y-131654761D01*
X151684880Y-131692857D01*
X151608690Y-131730952D01*
X151303928Y-131730952D01*
X152637261Y-132188095D02*
X152561071Y-132150000D01*
X152484880Y-132073809D01*
X152370595Y-131959523D01*
X152294404Y-131921428D01*
X152218214Y-131921428D01*
X152256309Y-132111904D02*
X152180119Y-132073809D01*
X152103928Y-131997619D01*
X152065833Y-131845238D01*
X152065833Y-131578571D01*
X152103928Y-131426190D01*
X152180119Y-131350000D01*
X152256309Y-131311904D01*
X152408690Y-131311904D01*
X152484880Y-131350000D01*
X152561071Y-131426190D01*
X152599166Y-131578571D01*
X152599166Y-131845238D01*
X152561071Y-131997619D01*
X152484880Y-132073809D01*
X152408690Y-132111904D01*
X152256309Y-132111904D01*
X150884880Y-134613809D02*
X150999166Y-134651904D01*
X151189642Y-134651904D01*
X151265833Y-134613809D01*
X151303928Y-134575714D01*
X151342023Y-134499523D01*
X151342023Y-134423333D01*
X151303928Y-134347142D01*
X151265833Y-134309047D01*
X151189642Y-134270952D01*
X151037261Y-134232857D01*
X150961071Y-134194761D01*
X150922976Y-134156666D01*
X150884880Y-134080476D01*
X150884880Y-134004285D01*
X150922976Y-133928095D01*
X150961071Y-133890000D01*
X151037261Y-133851904D01*
X151227738Y-133851904D01*
X151342023Y-133890000D01*
X151684880Y-134651904D02*
X151684880Y-133851904D01*
X151875357Y-133851904D01*
X151989642Y-133890000D01*
X152065833Y-133966190D01*
X152103928Y-134042380D01*
X152142023Y-134194761D01*
X152142023Y-134309047D01*
X152103928Y-134461428D01*
X152065833Y-134537619D01*
X151989642Y-134613809D01*
X151875357Y-134651904D01*
X151684880Y-134651904D01*
X152446785Y-134423333D02*
X152827738Y-134423333D01*
X152370595Y-134651904D02*
X152637261Y-133851904D01*
X152903928Y-134651904D01*
X133104880Y-137153809D02*
X133219166Y-137191904D01*
X133409642Y-137191904D01*
X133485833Y-137153809D01*
X133523928Y-137115714D01*
X133562023Y-137039523D01*
X133562023Y-136963333D01*
X133523928Y-136887142D01*
X133485833Y-136849047D01*
X133409642Y-136810952D01*
X133257261Y-136772857D01*
X133181071Y-136734761D01*
X133142976Y-136696666D01*
X133104880Y-136620476D01*
X133104880Y-136544285D01*
X133142976Y-136468095D01*
X133181071Y-136430000D01*
X133257261Y-136391904D01*
X133447738Y-136391904D01*
X133562023Y-136430000D01*
X134362023Y-137115714D02*
X134323928Y-137153809D01*
X134209642Y-137191904D01*
X134133452Y-137191904D01*
X134019166Y-137153809D01*
X133942976Y-137077619D01*
X133904880Y-137001428D01*
X133866785Y-136849047D01*
X133866785Y-136734761D01*
X133904880Y-136582380D01*
X133942976Y-136506190D01*
X134019166Y-136430000D01*
X134133452Y-136391904D01*
X134209642Y-136391904D01*
X134323928Y-136430000D01*
X134362023Y-136468095D01*
X135085833Y-137191904D02*
X134704880Y-137191904D01*
X134704880Y-136391904D01*
X133142976Y-129571904D02*
X133142976Y-128771904D01*
X133409642Y-129343333D01*
X133676309Y-128771904D01*
X133676309Y-129571904D01*
X134400119Y-129038571D02*
X134400119Y-129571904D01*
X134057261Y-129038571D02*
X134057261Y-129457619D01*
X134095357Y-129533809D01*
X134171547Y-129571904D01*
X134285833Y-129571904D01*
X134362023Y-129533809D01*
X134400119Y-129495714D01*
X134666785Y-129038571D02*
X134971547Y-129038571D01*
X134781071Y-128771904D02*
X134781071Y-129457619D01*
X134819166Y-129533809D01*
X134895357Y-129571904D01*
X134971547Y-129571904D01*
X135542976Y-129533809D02*
X135466785Y-129571904D01*
X135314404Y-129571904D01*
X135238214Y-129533809D01*
X135200119Y-129457619D01*
X135200119Y-129152857D01*
X135238214Y-129076666D01*
X135314404Y-129038571D01*
X135466785Y-129038571D01*
X135542976Y-129076666D01*
X135581071Y-129152857D01*
X135581071Y-129229047D01*
X135200119Y-129305238D01*
X133142976Y-132111904D02*
X133142976Y-131311904D01*
X133981071Y-132111904D02*
X133714404Y-131730952D01*
X133523928Y-132111904D02*
X133523928Y-131311904D01*
X133828690Y-131311904D01*
X133904880Y-131350000D01*
X133942976Y-131388095D01*
X133981071Y-131464285D01*
X133981071Y-131578571D01*
X133942976Y-131654761D01*
X133904880Y-131692857D01*
X133828690Y-131730952D01*
X133523928Y-131730952D01*
X134857261Y-132188095D02*
X134781071Y-132150000D01*
X134704880Y-132073809D01*
X134590595Y-131959523D01*
X134514404Y-131921428D01*
X134438214Y-131921428D01*
X134476309Y-132111904D02*
X134400119Y-132073809D01*
X134323928Y-131997619D01*
X134285833Y-131845238D01*
X134285833Y-131578571D01*
X134323928Y-131426190D01*
X134400119Y-131350000D01*
X134476309Y-131311904D01*
X134628690Y-131311904D01*
X134704880Y-131350000D01*
X134781071Y-131426190D01*
X134819166Y-131578571D01*
X134819166Y-131845238D01*
X134781071Y-131997619D01*
X134704880Y-132073809D01*
X134628690Y-132111904D01*
X134476309Y-132111904D01*
X133104880Y-134613809D02*
X133219166Y-134651904D01*
X133409642Y-134651904D01*
X133485833Y-134613809D01*
X133523928Y-134575714D01*
X133562023Y-134499523D01*
X133562023Y-134423333D01*
X133523928Y-134347142D01*
X133485833Y-134309047D01*
X133409642Y-134270952D01*
X133257261Y-134232857D01*
X133181071Y-134194761D01*
X133142976Y-134156666D01*
X133104880Y-134080476D01*
X133104880Y-134004285D01*
X133142976Y-133928095D01*
X133181071Y-133890000D01*
X133257261Y-133851904D01*
X133447738Y-133851904D01*
X133562023Y-133890000D01*
X133904880Y-134651904D02*
X133904880Y-133851904D01*
X134095357Y-133851904D01*
X134209642Y-133890000D01*
X134285833Y-133966190D01*
X134323928Y-134042380D01*
X134362023Y-134194761D01*
X134362023Y-134309047D01*
X134323928Y-134461428D01*
X134285833Y-134537619D01*
X134209642Y-134613809D01*
X134095357Y-134651904D01*
X133904880Y-134651904D01*
X134666785Y-134423333D02*
X135047738Y-134423333D01*
X134590595Y-134651904D02*
X134857261Y-133851904D01*
X135123928Y-134651904D01*
X166616071Y-137191904D02*
X166616071Y-136391904D01*
X166882738Y-136963333D01*
X167149404Y-136391904D01*
X167149404Y-137191904D01*
X167987500Y-137115714D02*
X167949404Y-137153809D01*
X167835119Y-137191904D01*
X167758928Y-137191904D01*
X167644642Y-137153809D01*
X167568452Y-137077619D01*
X167530357Y-137001428D01*
X167492261Y-136849047D01*
X167492261Y-136734761D01*
X167530357Y-136582380D01*
X167568452Y-136506190D01*
X167644642Y-136430000D01*
X167758928Y-136391904D01*
X167835119Y-136391904D01*
X167949404Y-136430000D01*
X167987500Y-136468095D01*
X168711309Y-137191904D02*
X168330357Y-137191904D01*
X168330357Y-136391904D01*
X168977976Y-137191904D02*
X168977976Y-136391904D01*
X169435119Y-137191904D02*
X169092261Y-136734761D01*
X169435119Y-136391904D02*
X168977976Y-136849047D01*
X165892261Y-132073809D02*
X166006547Y-132111904D01*
X166197023Y-132111904D01*
X166273214Y-132073809D01*
X166311309Y-132035714D01*
X166349404Y-131959523D01*
X166349404Y-131883333D01*
X166311309Y-131807142D01*
X166273214Y-131769047D01*
X166197023Y-131730952D01*
X166044642Y-131692857D01*
X165968452Y-131654761D01*
X165930357Y-131616666D01*
X165892261Y-131540476D01*
X165892261Y-131464285D01*
X165930357Y-131388095D01*
X165968452Y-131350000D01*
X166044642Y-131311904D01*
X166235119Y-131311904D01*
X166349404Y-131350000D01*
X166692261Y-132111904D02*
X166692261Y-131311904D01*
X166882738Y-131311904D01*
X166997023Y-131350000D01*
X167073214Y-131426190D01*
X167111309Y-131502380D01*
X167149404Y-131654761D01*
X167149404Y-131769047D01*
X167111309Y-131921428D01*
X167073214Y-131997619D01*
X166997023Y-132073809D01*
X166882738Y-132111904D01*
X166692261Y-132111904D01*
X167644642Y-131311904D02*
X167797023Y-131311904D01*
X167873214Y-131350000D01*
X167949404Y-131426190D01*
X167987500Y-131578571D01*
X167987500Y-131845238D01*
X167949404Y-131997619D01*
X167873214Y-132073809D01*
X167797023Y-132111904D01*
X167644642Y-132111904D01*
X167568452Y-132073809D01*
X167492261Y-131997619D01*
X167454166Y-131845238D01*
X167454166Y-131578571D01*
X167492261Y-131426190D01*
X167568452Y-131350000D01*
X167644642Y-131311904D01*
X168330357Y-131311904D02*
X168330357Y-131959523D01*
X168368452Y-132035714D01*
X168406547Y-132073809D01*
X168482738Y-132111904D01*
X168635119Y-132111904D01*
X168711309Y-132073809D01*
X168749404Y-132035714D01*
X168787500Y-131959523D01*
X168787500Y-131311904D01*
X169054166Y-131311904D02*
X169511309Y-131311904D01*
X169282738Y-132111904D02*
X169282738Y-131311904D01*
X166997023Y-134232857D02*
X167111309Y-134270952D01*
X167149404Y-134309047D01*
X167187500Y-134385238D01*
X167187500Y-134499523D01*
X167149404Y-134575714D01*
X167111309Y-134613809D01*
X167035119Y-134651904D01*
X166730357Y-134651904D01*
X166730357Y-133851904D01*
X166997023Y-133851904D01*
X167073214Y-133890000D01*
X167111309Y-133928095D01*
X167149404Y-134004285D01*
X167149404Y-134080476D01*
X167111309Y-134156666D01*
X167073214Y-134194761D01*
X166997023Y-134232857D01*
X166730357Y-134232857D01*
X167987500Y-134575714D02*
X167949404Y-134613809D01*
X167835119Y-134651904D01*
X167758928Y-134651904D01*
X167644642Y-134613809D01*
X167568452Y-134537619D01*
X167530357Y-134461428D01*
X167492261Y-134309047D01*
X167492261Y-134194761D01*
X167530357Y-134042380D01*
X167568452Y-133966190D01*
X167644642Y-133890000D01*
X167758928Y-133851904D01*
X167835119Y-133851904D01*
X167949404Y-133890000D01*
X167987500Y-133928095D01*
X168711309Y-134651904D02*
X168330357Y-134651904D01*
X168330357Y-133851904D01*
X168977976Y-134651904D02*
X168977976Y-133851904D01*
X169435119Y-134651904D02*
X169092261Y-134194761D01*
X169435119Y-133851904D02*
X168977976Y-134309047D01*
X166463690Y-129571904D02*
X166082738Y-129571904D01*
X166082738Y-128771904D01*
X167187500Y-129571904D02*
X166920833Y-129190952D01*
X166730357Y-129571904D02*
X166730357Y-128771904D01*
X167035119Y-128771904D01*
X167111309Y-128810000D01*
X167149404Y-128848095D01*
X167187500Y-128924285D01*
X167187500Y-129038571D01*
X167149404Y-129114761D01*
X167111309Y-129152857D01*
X167035119Y-129190952D01*
X166730357Y-129190952D01*
X167987500Y-129495714D02*
X167949404Y-129533809D01*
X167835119Y-129571904D01*
X167758928Y-129571904D01*
X167644642Y-129533809D01*
X167568452Y-129457619D01*
X167530357Y-129381428D01*
X167492261Y-129229047D01*
X167492261Y-129114761D01*
X167530357Y-128962380D01*
X167568452Y-128886190D01*
X167644642Y-128810000D01*
X167758928Y-128771904D01*
X167835119Y-128771904D01*
X167949404Y-128810000D01*
X167987500Y-128848095D01*
X168711309Y-129571904D02*
X168330357Y-129571904D01*
X168330357Y-128771904D01*
X168977976Y-129571904D02*
X168977976Y-128771904D01*
X169435119Y-129571904D02*
X169092261Y-129114761D01*
X169435119Y-128771904D02*
X168977976Y-129229047D01*
X137748928Y-137153809D02*
X137863214Y-137191904D01*
X138053690Y-137191904D01*
X138129880Y-137153809D01*
X138167976Y-137115714D01*
X138206071Y-137039523D01*
X138206071Y-136963333D01*
X138167976Y-136887142D01*
X138129880Y-136849047D01*
X138053690Y-136810952D01*
X137901309Y-136772857D01*
X137825119Y-136734761D01*
X137787023Y-136696666D01*
X137748928Y-136620476D01*
X137748928Y-136544285D01*
X137787023Y-136468095D01*
X137825119Y-136430000D01*
X137901309Y-136391904D01*
X138091785Y-136391904D01*
X138206071Y-136430000D01*
X138548928Y-137191904D02*
X138548928Y-136391904D01*
X138739404Y-136391904D01*
X138853690Y-136430000D01*
X138929880Y-136506190D01*
X138967976Y-136582380D01*
X139006071Y-136734761D01*
X139006071Y-136849047D01*
X138967976Y-137001428D01*
X138929880Y-137077619D01*
X138853690Y-137153809D01*
X138739404Y-137191904D01*
X138548928Y-137191904D01*
X139348928Y-137191904D02*
X139348928Y-136391904D01*
X139729880Y-137191904D02*
X139729880Y-136391904D01*
X140187023Y-137191904D01*
X140187023Y-136391904D01*
X137787023Y-134232857D02*
X137901309Y-134270952D01*
X137939404Y-134309047D01*
X137977500Y-134385238D01*
X137977500Y-134499523D01*
X137939404Y-134575714D01*
X137901309Y-134613809D01*
X137825119Y-134651904D01*
X137520357Y-134651904D01*
X137520357Y-133851904D01*
X137787023Y-133851904D01*
X137863214Y-133890000D01*
X137901309Y-133928095D01*
X137939404Y-134004285D01*
X137939404Y-134080476D01*
X137901309Y-134156666D01*
X137863214Y-134194761D01*
X137787023Y-134232857D01*
X137520357Y-134232857D01*
X138777500Y-134575714D02*
X138739404Y-134613809D01*
X138625119Y-134651904D01*
X138548928Y-134651904D01*
X138434642Y-134613809D01*
X138358452Y-134537619D01*
X138320357Y-134461428D01*
X138282261Y-134309047D01*
X138282261Y-134194761D01*
X138320357Y-134042380D01*
X138358452Y-133966190D01*
X138434642Y-133890000D01*
X138548928Y-133851904D01*
X138625119Y-133851904D01*
X138739404Y-133890000D01*
X138777500Y-133928095D01*
X139501309Y-134651904D02*
X139120357Y-134651904D01*
X139120357Y-133851904D01*
X139767976Y-134651904D02*
X139767976Y-133851904D01*
X140225119Y-134651904D02*
X139882261Y-134194761D01*
X140225119Y-133851904D02*
X139767976Y-134309047D01*
X137406071Y-129571904D02*
X137406071Y-128771904D01*
X137672738Y-129343333D01*
X137939404Y-128771904D01*
X137939404Y-129571904D01*
X138777500Y-129495714D02*
X138739404Y-129533809D01*
X138625119Y-129571904D01*
X138548928Y-129571904D01*
X138434642Y-129533809D01*
X138358452Y-129457619D01*
X138320357Y-129381428D01*
X138282261Y-129229047D01*
X138282261Y-129114761D01*
X138320357Y-128962380D01*
X138358452Y-128886190D01*
X138434642Y-128810000D01*
X138548928Y-128771904D01*
X138625119Y-128771904D01*
X138739404Y-128810000D01*
X138777500Y-128848095D01*
X139501309Y-129571904D02*
X139120357Y-129571904D01*
X139120357Y-128771904D01*
X139767976Y-129571904D02*
X139767976Y-128771904D01*
X140225119Y-129571904D02*
X139882261Y-129114761D01*
X140225119Y-128771904D02*
X139767976Y-129229047D01*
X137253690Y-132111904D02*
X136872738Y-132111904D01*
X136872738Y-131311904D01*
X137977500Y-132111904D02*
X137710833Y-131730952D01*
X137520357Y-132111904D02*
X137520357Y-131311904D01*
X137825119Y-131311904D01*
X137901309Y-131350000D01*
X137939404Y-131388095D01*
X137977500Y-131464285D01*
X137977500Y-131578571D01*
X137939404Y-131654761D01*
X137901309Y-131692857D01*
X137825119Y-131730952D01*
X137520357Y-131730952D01*
X138777500Y-132035714D02*
X138739404Y-132073809D01*
X138625119Y-132111904D01*
X138548928Y-132111904D01*
X138434642Y-132073809D01*
X138358452Y-131997619D01*
X138320357Y-131921428D01*
X138282261Y-131769047D01*
X138282261Y-131654761D01*
X138320357Y-131502380D01*
X138358452Y-131426190D01*
X138434642Y-131350000D01*
X138548928Y-131311904D01*
X138625119Y-131311904D01*
X138739404Y-131350000D01*
X138777500Y-131388095D01*
X139501309Y-132111904D02*
X139120357Y-132111904D01*
X139120357Y-131311904D01*
X139767976Y-132111904D02*
X139767976Y-131311904D01*
X140225119Y-132111904D02*
X139882261Y-131654761D01*
X140225119Y-131311904D02*
X139767976Y-131769047D01*
X102188928Y-137153809D02*
X102303214Y-137191904D01*
X102493690Y-137191904D01*
X102569880Y-137153809D01*
X102607976Y-137115714D01*
X102646071Y-137039523D01*
X102646071Y-136963333D01*
X102607976Y-136887142D01*
X102569880Y-136849047D01*
X102493690Y-136810952D01*
X102341309Y-136772857D01*
X102265119Y-136734761D01*
X102227023Y-136696666D01*
X102188928Y-136620476D01*
X102188928Y-136544285D01*
X102227023Y-136468095D01*
X102265119Y-136430000D01*
X102341309Y-136391904D01*
X102531785Y-136391904D01*
X102646071Y-136430000D01*
X102988928Y-137191904D02*
X102988928Y-136391904D01*
X103179404Y-136391904D01*
X103293690Y-136430000D01*
X103369880Y-136506190D01*
X103407976Y-136582380D01*
X103446071Y-136734761D01*
X103446071Y-136849047D01*
X103407976Y-137001428D01*
X103369880Y-137077619D01*
X103293690Y-137153809D01*
X103179404Y-137191904D01*
X102988928Y-137191904D01*
X103788928Y-137191904D02*
X103788928Y-136391904D01*
X104169880Y-137191904D02*
X104169880Y-136391904D01*
X104627023Y-137191904D01*
X104627023Y-136391904D01*
X102227023Y-134232857D02*
X102341309Y-134270952D01*
X102379404Y-134309047D01*
X102417500Y-134385238D01*
X102417500Y-134499523D01*
X102379404Y-134575714D01*
X102341309Y-134613809D01*
X102265119Y-134651904D01*
X101960357Y-134651904D01*
X101960357Y-133851904D01*
X102227023Y-133851904D01*
X102303214Y-133890000D01*
X102341309Y-133928095D01*
X102379404Y-134004285D01*
X102379404Y-134080476D01*
X102341309Y-134156666D01*
X102303214Y-134194761D01*
X102227023Y-134232857D01*
X101960357Y-134232857D01*
X103217500Y-134575714D02*
X103179404Y-134613809D01*
X103065119Y-134651904D01*
X102988928Y-134651904D01*
X102874642Y-134613809D01*
X102798452Y-134537619D01*
X102760357Y-134461428D01*
X102722261Y-134309047D01*
X102722261Y-134194761D01*
X102760357Y-134042380D01*
X102798452Y-133966190D01*
X102874642Y-133890000D01*
X102988928Y-133851904D01*
X103065119Y-133851904D01*
X103179404Y-133890000D01*
X103217500Y-133928095D01*
X103941309Y-134651904D02*
X103560357Y-134651904D01*
X103560357Y-133851904D01*
X104207976Y-134651904D02*
X104207976Y-133851904D01*
X104665119Y-134651904D02*
X104322261Y-134194761D01*
X104665119Y-133851904D02*
X104207976Y-134309047D01*
X101846071Y-129571904D02*
X101846071Y-128771904D01*
X102112738Y-129343333D01*
X102379404Y-128771904D01*
X102379404Y-129571904D01*
X103217500Y-129495714D02*
X103179404Y-129533809D01*
X103065119Y-129571904D01*
X102988928Y-129571904D01*
X102874642Y-129533809D01*
X102798452Y-129457619D01*
X102760357Y-129381428D01*
X102722261Y-129229047D01*
X102722261Y-129114761D01*
X102760357Y-128962380D01*
X102798452Y-128886190D01*
X102874642Y-128810000D01*
X102988928Y-128771904D01*
X103065119Y-128771904D01*
X103179404Y-128810000D01*
X103217500Y-128848095D01*
X103941309Y-129571904D02*
X103560357Y-129571904D01*
X103560357Y-128771904D01*
X104207976Y-129571904D02*
X104207976Y-128771904D01*
X104665119Y-129571904D02*
X104322261Y-129114761D01*
X104665119Y-128771904D02*
X104207976Y-129229047D01*
X101693690Y-132111904D02*
X101312738Y-132111904D01*
X101312738Y-131311904D01*
X102417500Y-132111904D02*
X102150833Y-131730952D01*
X101960357Y-132111904D02*
X101960357Y-131311904D01*
X102265119Y-131311904D01*
X102341309Y-131350000D01*
X102379404Y-131388095D01*
X102417500Y-131464285D01*
X102417500Y-131578571D01*
X102379404Y-131654761D01*
X102341309Y-131692857D01*
X102265119Y-131730952D01*
X101960357Y-131730952D01*
X103217500Y-132035714D02*
X103179404Y-132073809D01*
X103065119Y-132111904D01*
X102988928Y-132111904D01*
X102874642Y-132073809D01*
X102798452Y-131997619D01*
X102760357Y-131921428D01*
X102722261Y-131769047D01*
X102722261Y-131654761D01*
X102760357Y-131502380D01*
X102798452Y-131426190D01*
X102874642Y-131350000D01*
X102988928Y-131311904D01*
X103065119Y-131311904D01*
X103179404Y-131350000D01*
X103217500Y-131388095D01*
X103941309Y-132111904D02*
X103560357Y-132111904D01*
X103560357Y-131311904D01*
X104207976Y-132111904D02*
X104207976Y-131311904D01*
X104665119Y-132111904D02*
X104322261Y-131654761D01*
X104665119Y-131311904D02*
X104207976Y-131769047D01*
X115324880Y-134613809D02*
X115439166Y-134651904D01*
X115629642Y-134651904D01*
X115705833Y-134613809D01*
X115743928Y-134575714D01*
X115782023Y-134499523D01*
X115782023Y-134423333D01*
X115743928Y-134347142D01*
X115705833Y-134309047D01*
X115629642Y-134270952D01*
X115477261Y-134232857D01*
X115401071Y-134194761D01*
X115362976Y-134156666D01*
X115324880Y-134080476D01*
X115324880Y-134004285D01*
X115362976Y-133928095D01*
X115401071Y-133890000D01*
X115477261Y-133851904D01*
X115667738Y-133851904D01*
X115782023Y-133890000D01*
X116124880Y-134651904D02*
X116124880Y-133851904D01*
X116315357Y-133851904D01*
X116429642Y-133890000D01*
X116505833Y-133966190D01*
X116543928Y-134042380D01*
X116582023Y-134194761D01*
X116582023Y-134309047D01*
X116543928Y-134461428D01*
X116505833Y-134537619D01*
X116429642Y-134613809D01*
X116315357Y-134651904D01*
X116124880Y-134651904D01*
X116886785Y-134423333D02*
X117267738Y-134423333D01*
X116810595Y-134651904D02*
X117077261Y-133851904D01*
X117343928Y-134651904D01*
X115362976Y-132111904D02*
X115362976Y-131311904D01*
X116201071Y-132111904D02*
X115934404Y-131730952D01*
X115743928Y-132111904D02*
X115743928Y-131311904D01*
X116048690Y-131311904D01*
X116124880Y-131350000D01*
X116162976Y-131388095D01*
X116201071Y-131464285D01*
X116201071Y-131578571D01*
X116162976Y-131654761D01*
X116124880Y-131692857D01*
X116048690Y-131730952D01*
X115743928Y-131730952D01*
X117077261Y-132188095D02*
X117001071Y-132150000D01*
X116924880Y-132073809D01*
X116810595Y-131959523D01*
X116734404Y-131921428D01*
X116658214Y-131921428D01*
X116696309Y-132111904D02*
X116620119Y-132073809D01*
X116543928Y-131997619D01*
X116505833Y-131845238D01*
X116505833Y-131578571D01*
X116543928Y-131426190D01*
X116620119Y-131350000D01*
X116696309Y-131311904D01*
X116848690Y-131311904D01*
X116924880Y-131350000D01*
X117001071Y-131426190D01*
X117039166Y-131578571D01*
X117039166Y-131845238D01*
X117001071Y-131997619D01*
X116924880Y-132073809D01*
X116848690Y-132111904D01*
X116696309Y-132111904D01*
X115362976Y-129571904D02*
X115362976Y-128771904D01*
X115629642Y-129343333D01*
X115896309Y-128771904D01*
X115896309Y-129571904D01*
X116620119Y-129038571D02*
X116620119Y-129571904D01*
X116277261Y-129038571D02*
X116277261Y-129457619D01*
X116315357Y-129533809D01*
X116391547Y-129571904D01*
X116505833Y-129571904D01*
X116582023Y-129533809D01*
X116620119Y-129495714D01*
X116886785Y-129038571D02*
X117191547Y-129038571D01*
X117001071Y-128771904D02*
X117001071Y-129457619D01*
X117039166Y-129533809D01*
X117115357Y-129571904D01*
X117191547Y-129571904D01*
X117762976Y-129533809D02*
X117686785Y-129571904D01*
X117534404Y-129571904D01*
X117458214Y-129533809D01*
X117420119Y-129457619D01*
X117420119Y-129152857D01*
X117458214Y-129076666D01*
X117534404Y-129038571D01*
X117686785Y-129038571D01*
X117762976Y-129076666D01*
X117801071Y-129152857D01*
X117801071Y-129229047D01*
X117420119Y-129305238D01*
X115324880Y-137153809D02*
X115439166Y-137191904D01*
X115629642Y-137191904D01*
X115705833Y-137153809D01*
X115743928Y-137115714D01*
X115782023Y-137039523D01*
X115782023Y-136963333D01*
X115743928Y-136887142D01*
X115705833Y-136849047D01*
X115629642Y-136810952D01*
X115477261Y-136772857D01*
X115401071Y-136734761D01*
X115362976Y-136696666D01*
X115324880Y-136620476D01*
X115324880Y-136544285D01*
X115362976Y-136468095D01*
X115401071Y-136430000D01*
X115477261Y-136391904D01*
X115667738Y-136391904D01*
X115782023Y-136430000D01*
X116582023Y-137115714D02*
X116543928Y-137153809D01*
X116429642Y-137191904D01*
X116353452Y-137191904D01*
X116239166Y-137153809D01*
X116162976Y-137077619D01*
X116124880Y-137001428D01*
X116086785Y-136849047D01*
X116086785Y-136734761D01*
X116124880Y-136582380D01*
X116162976Y-136506190D01*
X116239166Y-136430000D01*
X116353452Y-136391904D01*
X116429642Y-136391904D01*
X116543928Y-136430000D01*
X116582023Y-136468095D01*
X117305833Y-137191904D02*
X116924880Y-137191904D01*
X116924880Y-136391904D01*
X120007023Y-134232857D02*
X120121309Y-134270952D01*
X120159404Y-134309047D01*
X120197500Y-134385238D01*
X120197500Y-134499523D01*
X120159404Y-134575714D01*
X120121309Y-134613809D01*
X120045119Y-134651904D01*
X119740357Y-134651904D01*
X119740357Y-133851904D01*
X120007023Y-133851904D01*
X120083214Y-133890000D01*
X120121309Y-133928095D01*
X120159404Y-134004285D01*
X120159404Y-134080476D01*
X120121309Y-134156666D01*
X120083214Y-134194761D01*
X120007023Y-134232857D01*
X119740357Y-134232857D01*
X120997500Y-134575714D02*
X120959404Y-134613809D01*
X120845119Y-134651904D01*
X120768928Y-134651904D01*
X120654642Y-134613809D01*
X120578452Y-134537619D01*
X120540357Y-134461428D01*
X120502261Y-134309047D01*
X120502261Y-134194761D01*
X120540357Y-134042380D01*
X120578452Y-133966190D01*
X120654642Y-133890000D01*
X120768928Y-133851904D01*
X120845119Y-133851904D01*
X120959404Y-133890000D01*
X120997500Y-133928095D01*
X121721309Y-134651904D02*
X121340357Y-134651904D01*
X121340357Y-133851904D01*
X121987976Y-134651904D02*
X121987976Y-133851904D01*
X122445119Y-134651904D02*
X122102261Y-134194761D01*
X122445119Y-133851904D02*
X121987976Y-134309047D01*
X119473690Y-132111904D02*
X119092738Y-132111904D01*
X119092738Y-131311904D01*
X120197500Y-132111904D02*
X119930833Y-131730952D01*
X119740357Y-132111904D02*
X119740357Y-131311904D01*
X120045119Y-131311904D01*
X120121309Y-131350000D01*
X120159404Y-131388095D01*
X120197500Y-131464285D01*
X120197500Y-131578571D01*
X120159404Y-131654761D01*
X120121309Y-131692857D01*
X120045119Y-131730952D01*
X119740357Y-131730952D01*
X120997500Y-132035714D02*
X120959404Y-132073809D01*
X120845119Y-132111904D01*
X120768928Y-132111904D01*
X120654642Y-132073809D01*
X120578452Y-131997619D01*
X120540357Y-131921428D01*
X120502261Y-131769047D01*
X120502261Y-131654761D01*
X120540357Y-131502380D01*
X120578452Y-131426190D01*
X120654642Y-131350000D01*
X120768928Y-131311904D01*
X120845119Y-131311904D01*
X120959404Y-131350000D01*
X120997500Y-131388095D01*
X121721309Y-132111904D02*
X121340357Y-132111904D01*
X121340357Y-131311904D01*
X121987976Y-132111904D02*
X121987976Y-131311904D01*
X122445119Y-132111904D02*
X122102261Y-131654761D01*
X122445119Y-131311904D02*
X121987976Y-131769047D01*
X119626071Y-129571904D02*
X119626071Y-128771904D01*
X119892738Y-129343333D01*
X120159404Y-128771904D01*
X120159404Y-129571904D01*
X120997500Y-129495714D02*
X120959404Y-129533809D01*
X120845119Y-129571904D01*
X120768928Y-129571904D01*
X120654642Y-129533809D01*
X120578452Y-129457619D01*
X120540357Y-129381428D01*
X120502261Y-129229047D01*
X120502261Y-129114761D01*
X120540357Y-128962380D01*
X120578452Y-128886190D01*
X120654642Y-128810000D01*
X120768928Y-128771904D01*
X120845119Y-128771904D01*
X120959404Y-128810000D01*
X120997500Y-128848095D01*
X121721309Y-129571904D02*
X121340357Y-129571904D01*
X121340357Y-128771904D01*
X121987976Y-129571904D02*
X121987976Y-128771904D01*
X122445119Y-129571904D02*
X122102261Y-129114761D01*
X122445119Y-128771904D02*
X121987976Y-129229047D01*
X119968928Y-137153809D02*
X120083214Y-137191904D01*
X120273690Y-137191904D01*
X120349880Y-137153809D01*
X120387976Y-137115714D01*
X120426071Y-137039523D01*
X120426071Y-136963333D01*
X120387976Y-136887142D01*
X120349880Y-136849047D01*
X120273690Y-136810952D01*
X120121309Y-136772857D01*
X120045119Y-136734761D01*
X120007023Y-136696666D01*
X119968928Y-136620476D01*
X119968928Y-136544285D01*
X120007023Y-136468095D01*
X120045119Y-136430000D01*
X120121309Y-136391904D01*
X120311785Y-136391904D01*
X120426071Y-136430000D01*
X120768928Y-137191904D02*
X120768928Y-136391904D01*
X120959404Y-136391904D01*
X121073690Y-136430000D01*
X121149880Y-136506190D01*
X121187976Y-136582380D01*
X121226071Y-136734761D01*
X121226071Y-136849047D01*
X121187976Y-137001428D01*
X121149880Y-137077619D01*
X121073690Y-137153809D01*
X120959404Y-137191904D01*
X120768928Y-137191904D01*
X121568928Y-137191904D02*
X121568928Y-136391904D01*
X121949880Y-137191904D02*
X121949880Y-136391904D01*
X122407023Y-137191904D01*
X122407023Y-136391904D01*
X155033690Y-129571904D02*
X154652738Y-129571904D01*
X154652738Y-128771904D01*
X155757500Y-129571904D02*
X155490833Y-129190952D01*
X155300357Y-129571904D02*
X155300357Y-128771904D01*
X155605119Y-128771904D01*
X155681309Y-128810000D01*
X155719404Y-128848095D01*
X155757500Y-128924285D01*
X155757500Y-129038571D01*
X155719404Y-129114761D01*
X155681309Y-129152857D01*
X155605119Y-129190952D01*
X155300357Y-129190952D01*
X156557500Y-129495714D02*
X156519404Y-129533809D01*
X156405119Y-129571904D01*
X156328928Y-129571904D01*
X156214642Y-129533809D01*
X156138452Y-129457619D01*
X156100357Y-129381428D01*
X156062261Y-129229047D01*
X156062261Y-129114761D01*
X156100357Y-128962380D01*
X156138452Y-128886190D01*
X156214642Y-128810000D01*
X156328928Y-128771904D01*
X156405119Y-128771904D01*
X156519404Y-128810000D01*
X156557500Y-128848095D01*
X157281309Y-129571904D02*
X156900357Y-129571904D01*
X156900357Y-128771904D01*
X157547976Y-129571904D02*
X157547976Y-128771904D01*
X158005119Y-129571904D02*
X157662261Y-129114761D01*
X158005119Y-128771904D02*
X157547976Y-129229047D01*
X154462261Y-132073809D02*
X154576547Y-132111904D01*
X154767023Y-132111904D01*
X154843214Y-132073809D01*
X154881309Y-132035714D01*
X154919404Y-131959523D01*
X154919404Y-131883333D01*
X154881309Y-131807142D01*
X154843214Y-131769047D01*
X154767023Y-131730952D01*
X154614642Y-131692857D01*
X154538452Y-131654761D01*
X154500357Y-131616666D01*
X154462261Y-131540476D01*
X154462261Y-131464285D01*
X154500357Y-131388095D01*
X154538452Y-131350000D01*
X154614642Y-131311904D01*
X154805119Y-131311904D01*
X154919404Y-131350000D01*
X155262261Y-132111904D02*
X155262261Y-131311904D01*
X155452738Y-131311904D01*
X155567023Y-131350000D01*
X155643214Y-131426190D01*
X155681309Y-131502380D01*
X155719404Y-131654761D01*
X155719404Y-131769047D01*
X155681309Y-131921428D01*
X155643214Y-131997619D01*
X155567023Y-132073809D01*
X155452738Y-132111904D01*
X155262261Y-132111904D01*
X156214642Y-131311904D02*
X156367023Y-131311904D01*
X156443214Y-131350000D01*
X156519404Y-131426190D01*
X156557500Y-131578571D01*
X156557500Y-131845238D01*
X156519404Y-131997619D01*
X156443214Y-132073809D01*
X156367023Y-132111904D01*
X156214642Y-132111904D01*
X156138452Y-132073809D01*
X156062261Y-131997619D01*
X156024166Y-131845238D01*
X156024166Y-131578571D01*
X156062261Y-131426190D01*
X156138452Y-131350000D01*
X156214642Y-131311904D01*
X156900357Y-131311904D02*
X156900357Y-131959523D01*
X156938452Y-132035714D01*
X156976547Y-132073809D01*
X157052738Y-132111904D01*
X157205119Y-132111904D01*
X157281309Y-132073809D01*
X157319404Y-132035714D01*
X157357500Y-131959523D01*
X157357500Y-131311904D01*
X157624166Y-131311904D02*
X158081309Y-131311904D01*
X157852738Y-132111904D02*
X157852738Y-131311904D01*
X155567023Y-134232857D02*
X155681309Y-134270952D01*
X155719404Y-134309047D01*
X155757500Y-134385238D01*
X155757500Y-134499523D01*
X155719404Y-134575714D01*
X155681309Y-134613809D01*
X155605119Y-134651904D01*
X155300357Y-134651904D01*
X155300357Y-133851904D01*
X155567023Y-133851904D01*
X155643214Y-133890000D01*
X155681309Y-133928095D01*
X155719404Y-134004285D01*
X155719404Y-134080476D01*
X155681309Y-134156666D01*
X155643214Y-134194761D01*
X155567023Y-134232857D01*
X155300357Y-134232857D01*
X156557500Y-134575714D02*
X156519404Y-134613809D01*
X156405119Y-134651904D01*
X156328928Y-134651904D01*
X156214642Y-134613809D01*
X156138452Y-134537619D01*
X156100357Y-134461428D01*
X156062261Y-134309047D01*
X156062261Y-134194761D01*
X156100357Y-134042380D01*
X156138452Y-133966190D01*
X156214642Y-133890000D01*
X156328928Y-133851904D01*
X156405119Y-133851904D01*
X156519404Y-133890000D01*
X156557500Y-133928095D01*
X157281309Y-134651904D02*
X156900357Y-134651904D01*
X156900357Y-133851904D01*
X157547976Y-134651904D02*
X157547976Y-133851904D01*
X158005119Y-134651904D02*
X157662261Y-134194761D01*
X158005119Y-133851904D02*
X157547976Y-134309047D01*
X155186071Y-137191904D02*
X155186071Y-136391904D01*
X155452738Y-136963333D01*
X155719404Y-136391904D01*
X155719404Y-137191904D01*
X156557500Y-137115714D02*
X156519404Y-137153809D01*
X156405119Y-137191904D01*
X156328928Y-137191904D01*
X156214642Y-137153809D01*
X156138452Y-137077619D01*
X156100357Y-137001428D01*
X156062261Y-136849047D01*
X156062261Y-136734761D01*
X156100357Y-136582380D01*
X156138452Y-136506190D01*
X156214642Y-136430000D01*
X156328928Y-136391904D01*
X156405119Y-136391904D01*
X156519404Y-136430000D01*
X156557500Y-136468095D01*
X157281309Y-137191904D02*
X156900357Y-137191904D01*
X156900357Y-136391904D01*
X157547976Y-137191904D02*
X157547976Y-136391904D01*
X158005119Y-137191904D02*
X157662261Y-136734761D01*
X158005119Y-136391904D02*
X157547976Y-136849047D01*
X108963333Y-127122380D02*
X108963333Y-126122380D01*
X109201428Y-126122380D01*
X109344285Y-126170000D01*
X109439523Y-126265238D01*
X109487142Y-126360476D01*
X109534761Y-126550952D01*
X109534761Y-126693809D01*
X109487142Y-126884285D01*
X109439523Y-126979523D01*
X109344285Y-127074761D01*
X109201428Y-127122380D01*
X108963333Y-127122380D01*
X109915714Y-126836666D02*
X110391904Y-126836666D01*
X109820476Y-127122380D02*
X110153809Y-126122380D01*
X110487142Y-127122380D01*
X111391904Y-127027142D02*
X111344285Y-127074761D01*
X111201428Y-127122380D01*
X111106190Y-127122380D01*
X110963333Y-127074761D01*
X110868095Y-126979523D01*
X110820476Y-126884285D01*
X110772857Y-126693809D01*
X110772857Y-126550952D01*
X110820476Y-126360476D01*
X110868095Y-126265238D01*
X110963333Y-126170000D01*
X111106190Y-126122380D01*
X111201428Y-126122380D01*
X111344285Y-126170000D01*
X111391904Y-126217619D01*
X111725238Y-126122380D02*
X112344285Y-126122380D01*
X112010952Y-126503333D01*
X112153809Y-126503333D01*
X112249047Y-126550952D01*
X112296666Y-126598571D01*
X112344285Y-126693809D01*
X112344285Y-126931904D01*
X112296666Y-127027142D01*
X112249047Y-127074761D01*
X112153809Y-127122380D01*
X111868095Y-127122380D01*
X111772857Y-127074761D01*
X111725238Y-127027142D01*
X126743333Y-127122380D02*
X126743333Y-126122380D01*
X126981428Y-126122380D01*
X127124285Y-126170000D01*
X127219523Y-126265238D01*
X127267142Y-126360476D01*
X127314761Y-126550952D01*
X127314761Y-126693809D01*
X127267142Y-126884285D01*
X127219523Y-126979523D01*
X127124285Y-127074761D01*
X126981428Y-127122380D01*
X126743333Y-127122380D01*
X127695714Y-126836666D02*
X128171904Y-126836666D01*
X127600476Y-127122380D02*
X127933809Y-126122380D01*
X128267142Y-127122380D01*
X129171904Y-127027142D02*
X129124285Y-127074761D01*
X128981428Y-127122380D01*
X128886190Y-127122380D01*
X128743333Y-127074761D01*
X128648095Y-126979523D01*
X128600476Y-126884285D01*
X128552857Y-126693809D01*
X128552857Y-126550952D01*
X128600476Y-126360476D01*
X128648095Y-126265238D01*
X128743333Y-126170000D01*
X128886190Y-126122380D01*
X128981428Y-126122380D01*
X129124285Y-126170000D01*
X129171904Y-126217619D01*
X129552857Y-126217619D02*
X129600476Y-126170000D01*
X129695714Y-126122380D01*
X129933809Y-126122380D01*
X130029047Y-126170000D01*
X130076666Y-126217619D01*
X130124285Y-126312857D01*
X130124285Y-126408095D01*
X130076666Y-126550952D01*
X129505238Y-127122380D01*
X130124285Y-127122380D01*
X159715714Y-126836666D02*
X160191904Y-126836666D01*
X159620476Y-127122380D02*
X159953809Y-126122380D01*
X160287142Y-127122380D01*
X160620476Y-127122380D02*
X160620476Y-126122380D01*
X160858571Y-126122380D01*
X161001428Y-126170000D01*
X161096666Y-126265238D01*
X161144285Y-126360476D01*
X161191904Y-126550952D01*
X161191904Y-126693809D01*
X161144285Y-126884285D01*
X161096666Y-126979523D01*
X161001428Y-127074761D01*
X160858571Y-127122380D01*
X160620476Y-127122380D01*
X162191904Y-127027142D02*
X162144285Y-127074761D01*
X162001428Y-127122380D01*
X161906190Y-127122380D01*
X161763333Y-127074761D01*
X161668095Y-126979523D01*
X161620476Y-126884285D01*
X161572857Y-126693809D01*
X161572857Y-126550952D01*
X161620476Y-126360476D01*
X161668095Y-126265238D01*
X161763333Y-126170000D01*
X161906190Y-126122380D01*
X162001428Y-126122380D01*
X162144285Y-126170000D01*
X162191904Y-126217619D01*
X162572857Y-126217619D02*
X162620476Y-126170000D01*
X162715714Y-126122380D01*
X162953809Y-126122380D01*
X163049047Y-126170000D01*
X163096666Y-126217619D01*
X163144285Y-126312857D01*
X163144285Y-126408095D01*
X163096666Y-126550952D01*
X162525238Y-127122380D01*
X163144285Y-127122380D01*
X171145714Y-126836666D02*
X171621904Y-126836666D01*
X171050476Y-127122380D02*
X171383809Y-126122380D01*
X171717142Y-127122380D01*
X172050476Y-127122380D02*
X172050476Y-126122380D01*
X172288571Y-126122380D01*
X172431428Y-126170000D01*
X172526666Y-126265238D01*
X172574285Y-126360476D01*
X172621904Y-126550952D01*
X172621904Y-126693809D01*
X172574285Y-126884285D01*
X172526666Y-126979523D01*
X172431428Y-127074761D01*
X172288571Y-127122380D01*
X172050476Y-127122380D01*
X173621904Y-127027142D02*
X173574285Y-127074761D01*
X173431428Y-127122380D01*
X173336190Y-127122380D01*
X173193333Y-127074761D01*
X173098095Y-126979523D01*
X173050476Y-126884285D01*
X173002857Y-126693809D01*
X173002857Y-126550952D01*
X173050476Y-126360476D01*
X173098095Y-126265238D01*
X173193333Y-126170000D01*
X173336190Y-126122380D01*
X173431428Y-126122380D01*
X173574285Y-126170000D01*
X173621904Y-126217619D01*
X174574285Y-127122380D02*
X174002857Y-127122380D01*
X174288571Y-127122380D02*
X174288571Y-126122380D01*
X174193333Y-126265238D01*
X174098095Y-126360476D01*
X174002857Y-126408095D01*
D11*
X151000000Y-56200000D02*
X155500000Y-56200000D01*
X151000000Y-123800000D02*
X155500000Y-123800000D01*
X134540000Y-56200000D02*
X149000000Y-56200000D01*
X134540000Y-123800000D02*
X134540000Y-56200000D01*
X149000000Y-123800000D02*
X134540000Y-123800000D01*
X149000000Y-123800000D02*
G75*
G02*
X151000000Y-123800000I1000000J0D01*
G01*
X151000000Y-56200000D02*
G75*
G02*
X149000000Y-56200000I-1000000J0D01*
G01*
%TO.C,R206*%
X178037258Y-100722500D02*
X177562742Y-100722500D01*
X178037258Y-99677500D02*
X177562742Y-99677500D01*
%TO.C,R106*%
X178037258Y-85922500D02*
X177562742Y-85922500D01*
X178037258Y-84877500D02*
X177562742Y-84877500D01*
%TO.C,Q201*%
X179780000Y-96840000D02*
X178850000Y-96840000D01*
X176620000Y-96840000D02*
X177550000Y-96840000D01*
X176620000Y-96840000D02*
X176620000Y-99000000D01*
X179780000Y-96840000D02*
X179780000Y-98300000D01*
%TO.C,Q101*%
X179780000Y-82040000D02*
X178850000Y-82040000D01*
X176620000Y-82040000D02*
X177550000Y-82040000D01*
X176620000Y-82040000D02*
X176620000Y-84200000D01*
X179780000Y-82040000D02*
X179780000Y-83500000D01*
%TO.C,SW1*%
X126090000Y-100550000D02*
X126090000Y-102950000D01*
X126850000Y-104410000D02*
X126550000Y-104110000D01*
X130650000Y-104410000D02*
X126850000Y-104410000D01*
X130950000Y-104110000D02*
X130650000Y-104410000D01*
X131410000Y-100550000D02*
X131410000Y-102950000D01*
X130650000Y-99090000D02*
X130950000Y-99390000D01*
X126850000Y-99090000D02*
X130650000Y-99090000D01*
X126550000Y-99390000D02*
X126850000Y-99090000D01*
%TO.C,R7*%
X115762742Y-118022500D02*
X116237258Y-118022500D01*
X115762742Y-116977500D02*
X116237258Y-116977500D01*
%TO.C,R6*%
X118477500Y-120012742D02*
X118477500Y-120487258D01*
X119522500Y-120012742D02*
X119522500Y-120487258D01*
%TO.C,Q2*%
X120170000Y-121010000D02*
X120170000Y-119550000D01*
X123330000Y-121010000D02*
X123330000Y-118850000D01*
X123330000Y-121010000D02*
X122400000Y-121010000D01*
X120170000Y-121010000D02*
X121100000Y-121010000D01*
%TO.C,Q1*%
X114670000Y-121010000D02*
X114670000Y-119550000D01*
X117830000Y-121010000D02*
X117830000Y-118850000D01*
X117830000Y-121010000D02*
X116900000Y-121010000D01*
X114670000Y-121010000D02*
X115600000Y-121010000D01*
%TO.C,R5*%
X137772500Y-54237258D02*
X137772500Y-53762742D01*
X136727500Y-54237258D02*
X136727500Y-53762742D01*
%TO.C,R4*%
X141272500Y-54237258D02*
X141272500Y-53762742D01*
X140227500Y-54237258D02*
X140227500Y-53762742D01*
%TO.C,R3*%
X144772500Y-54237258D02*
X144772500Y-53762742D01*
X143727500Y-54237258D02*
X143727500Y-53762742D01*
%TO.C,D5*%
X139735000Y-55485000D02*
X139735000Y-53200000D01*
X138265000Y-55485000D02*
X139735000Y-55485000D01*
X138265000Y-53200000D02*
X138265000Y-55485000D01*
%TO.C,D4*%
X143235000Y-55485000D02*
X143235000Y-53200000D01*
X141765000Y-55485000D02*
X143235000Y-55485000D01*
X141765000Y-53200000D02*
X141765000Y-55485000D01*
%TO.C,D3*%
X146735000Y-55485000D02*
X146735000Y-53200000D01*
X145265000Y-55485000D02*
X146735000Y-55485000D01*
X145265000Y-53200000D02*
X145265000Y-55485000D01*
%TO.C,U501*%
X187110000Y-63410000D02*
X188400000Y-63410000D01*
X187110000Y-63860000D02*
X187110000Y-63410000D01*
X186660000Y-63860000D02*
X187110000Y-63860000D01*
X179890000Y-63860000D02*
X179890000Y-63410000D01*
X180340000Y-63860000D02*
X179890000Y-63860000D01*
X187110000Y-56640000D02*
X187110000Y-57090000D01*
X186660000Y-56640000D02*
X187110000Y-56640000D01*
X179890000Y-56640000D02*
X179890000Y-57090000D01*
X180340000Y-56640000D02*
X179890000Y-56640000D01*
%TO.C,J501*%
X201035000Y-57420000D02*
X201035000Y-66580000D01*
X201035000Y-66580000D02*
X199330000Y-66580000D01*
X199330000Y-57420000D02*
X201035000Y-57420000D01*
X197320000Y-57420000D02*
X195400000Y-57420000D01*
X195400000Y-66580000D02*
X197320000Y-66580000D01*
%TO.C,L2*%
X111975000Y-104844622D02*
X111975000Y-104045378D01*
X113095000Y-104844622D02*
X113095000Y-104045378D01*
%TO.C,C3*%
X115810000Y-104183748D02*
X115810000Y-104706252D01*
X114340000Y-104183748D02*
X114340000Y-104706252D01*
%TO.C,J4*%
X111205000Y-101965000D02*
X116405000Y-101965000D01*
X111205000Y-89205000D02*
X111205000Y-101965000D01*
X116405000Y-86605000D02*
X116405000Y-101965000D01*
X111205000Y-89205000D02*
X113805000Y-89205000D01*
X113805000Y-89205000D02*
X113805000Y-86605000D01*
X113805000Y-86605000D02*
X116405000Y-86605000D01*
X111205000Y-87935000D02*
X111205000Y-86605000D01*
X111205000Y-86605000D02*
X112535000Y-86605000D01*
%TO.C,TP3*%
X123010000Y-103810000D02*
G75*
G03*
X123010000Y-103810000I-950000J0D01*
G01*
%TO.C,TP2*%
X123010000Y-106350000D02*
G75*
G03*
X123010000Y-106350000I-950000J0D01*
G01*
%TO.C,TP1*%
X123010000Y-108890000D02*
G75*
G03*
X123010000Y-108890000I-950000J0D01*
G01*
%TO.C,J801*%
X111205000Y-84185000D02*
X116405000Y-84185000D01*
X111205000Y-58725000D02*
X111205000Y-84185000D01*
X116405000Y-56125000D02*
X116405000Y-84185000D01*
X111205000Y-58725000D02*
X113805000Y-58725000D01*
X113805000Y-58725000D02*
X113805000Y-56125000D01*
X113805000Y-56125000D02*
X116405000Y-56125000D01*
X111205000Y-57455000D02*
X111205000Y-56125000D01*
X111205000Y-56125000D02*
X112535000Y-56125000D01*
%TO.C,J602*%
X147400000Y-127880000D02*
X148730000Y-127880000D01*
X147400000Y-129210000D02*
X147400000Y-127880000D01*
X147400000Y-130480000D02*
X150060000Y-130480000D01*
X150060000Y-130480000D02*
X150060000Y-140700000D01*
X147400000Y-130480000D02*
X147400000Y-140700000D01*
X147400000Y-140700000D02*
X150060000Y-140700000D01*
%TO.C,R622*%
X119737258Y-126477500D02*
X119262742Y-126477500D01*
X119737258Y-127522500D02*
X119262742Y-127522500D01*
%TO.C,R621*%
X116487258Y-126477500D02*
X116012742Y-126477500D01*
X116487258Y-127522500D02*
X116012742Y-127522500D01*
%TO.C,R612*%
X137487258Y-126477500D02*
X137012742Y-126477500D01*
X137487258Y-127522500D02*
X137012742Y-127522500D01*
%TO.C,R611*%
X134237258Y-126477500D02*
X133762742Y-126477500D01*
X134237258Y-127522500D02*
X133762742Y-127522500D01*
%TO.C,R602*%
X155237258Y-126477500D02*
X154762742Y-126477500D01*
X155237258Y-127522500D02*
X154762742Y-127522500D01*
%TO.C,R601*%
X151987258Y-126477500D02*
X151512742Y-126477500D01*
X151987258Y-127522500D02*
X151512742Y-127522500D01*
%TO.C,J702*%
X158830000Y-127880000D02*
X160160000Y-127880000D01*
X158830000Y-129210000D02*
X158830000Y-127880000D01*
X161430000Y-127880000D02*
X164030000Y-127880000D01*
X161430000Y-130480000D02*
X161430000Y-127880000D01*
X158830000Y-130480000D02*
X161430000Y-130480000D01*
X164030000Y-127880000D02*
X164030000Y-138160000D01*
X158830000Y-130480000D02*
X158830000Y-138160000D01*
X158830000Y-138160000D02*
X164030000Y-138160000D01*
%TO.C,J701*%
X170260000Y-127880000D02*
X171590000Y-127880000D01*
X170260000Y-129210000D02*
X170260000Y-127880000D01*
X172860000Y-127880000D02*
X175460000Y-127880000D01*
X172860000Y-130480000D02*
X172860000Y-127880000D01*
X170260000Y-130480000D02*
X172860000Y-130480000D01*
X175460000Y-127880000D02*
X175460000Y-138160000D01*
X170260000Y-130480000D02*
X170260000Y-138160000D01*
X170260000Y-138160000D02*
X175460000Y-138160000D01*
%TO.C,J621*%
X105490000Y-127880000D02*
X106820000Y-127880000D01*
X105490000Y-129210000D02*
X105490000Y-127880000D01*
X108090000Y-127880000D02*
X110690000Y-127880000D01*
X108090000Y-130480000D02*
X108090000Y-127880000D01*
X105490000Y-130480000D02*
X108090000Y-130480000D01*
X110690000Y-127880000D02*
X110690000Y-138160000D01*
X105490000Y-130480000D02*
X105490000Y-138160000D01*
X105490000Y-138160000D02*
X110690000Y-138160000D01*
%TO.C,J611*%
X123270000Y-127880000D02*
X124600000Y-127880000D01*
X123270000Y-129210000D02*
X123270000Y-127880000D01*
X125870000Y-127880000D02*
X128470000Y-127880000D01*
X125870000Y-130480000D02*
X125870000Y-127880000D01*
X123270000Y-130480000D02*
X125870000Y-130480000D01*
X128470000Y-127880000D02*
X128470000Y-138160000D01*
X123270000Y-130480000D02*
X123270000Y-138160000D01*
X123270000Y-138160000D02*
X128470000Y-138160000D01*
%TO.C,J622*%
X111840000Y-127880000D02*
X113170000Y-127880000D01*
X111840000Y-129210000D02*
X111840000Y-127880000D01*
X111840000Y-130480000D02*
X114500000Y-130480000D01*
X114500000Y-130480000D02*
X114500000Y-140700000D01*
X111840000Y-130480000D02*
X111840000Y-140700000D01*
X111840000Y-140700000D02*
X114500000Y-140700000D01*
%TO.C,J612*%
X129620000Y-127880000D02*
X130950000Y-127880000D01*
X129620000Y-129210000D02*
X129620000Y-127880000D01*
X129620000Y-130480000D02*
X132280000Y-130480000D01*
X132280000Y-130480000D02*
X132280000Y-140700000D01*
X129620000Y-130480000D02*
X129620000Y-140700000D01*
X129620000Y-140700000D02*
X132280000Y-140700000D01*
%TO.C,J601*%
X141050000Y-127880000D02*
X142380000Y-127880000D01*
X141050000Y-129210000D02*
X141050000Y-127880000D01*
X143650000Y-127880000D02*
X146250000Y-127880000D01*
X143650000Y-130480000D02*
X143650000Y-127880000D01*
X141050000Y-130480000D02*
X143650000Y-130480000D01*
X146250000Y-127880000D02*
X146250000Y-138160000D01*
X141050000Y-130480000D02*
X141050000Y-138160000D01*
X141050000Y-138160000D02*
X146250000Y-138160000D01*
%TO.C,U1*%
X122405000Y-111195000D02*
X128415000Y-111195000D01*
X124655000Y-118015000D02*
X128415000Y-118015000D01*
X128415000Y-111195000D02*
X128415000Y-112455000D01*
X128415000Y-118015000D02*
X128415000Y-116755000D01*
%TO.C,R2*%
X128837258Y-108367500D02*
X128362742Y-108367500D01*
X128837258Y-109412500D02*
X128362742Y-109412500D01*
%TO.C,R1*%
X128837258Y-105827500D02*
X128362742Y-105827500D01*
X128837258Y-106872500D02*
X128362742Y-106872500D01*
%TO.C,D2*%
X123750000Y-109625000D02*
X126035000Y-109625000D01*
X123750000Y-108155000D02*
X123750000Y-109625000D01*
X126035000Y-108155000D02*
X123750000Y-108155000D01*
%TO.C,D1*%
X123750000Y-107085000D02*
X126035000Y-107085000D01*
X123750000Y-105615000D02*
X123750000Y-107085000D01*
X126035000Y-105615000D02*
X123750000Y-105615000D01*
%TO.C,C2*%
X119781252Y-113870000D02*
X119258748Y-113870000D01*
X119781252Y-115340000D02*
X119258748Y-115340000D01*
%TO.C,C1*%
X119781252Y-116410000D02*
X119258748Y-116410000D01*
X119781252Y-117880000D02*
X119258748Y-117880000D01*
%TO.C,C511*%
X181359420Y-54760000D02*
X181640580Y-54760000D01*
X181359420Y-53740000D02*
X181640580Y-53740000D01*
%TO.C,R509*%
X176977500Y-60887742D02*
X176977500Y-61362258D01*
X178022500Y-60887742D02*
X178022500Y-61362258D01*
%TO.C,C517*%
X182740000Y-66859420D02*
X182740000Y-67140580D01*
X183760000Y-66859420D02*
X183760000Y-67140580D01*
%TO.C,Y501*%
X190000000Y-65600000D02*
X186000000Y-65600000D01*
X190000000Y-68900000D02*
X190000000Y-65600000D01*
%TO.C,R508*%
X186977500Y-53762742D02*
X186977500Y-54237258D01*
X188022500Y-53762742D02*
X188022500Y-54237258D01*
%TO.C,L501*%
X190899622Y-63690000D02*
X190100378Y-63690000D01*
X190899622Y-64810000D02*
X190100378Y-64810000D01*
%TO.C,L1*%
X190899622Y-55190000D02*
X190100378Y-55190000D01*
X190899622Y-56310000D02*
X190100378Y-56310000D01*
%TO.C,C515*%
X177490000Y-66859420D02*
X177490000Y-67140580D01*
X178510000Y-66859420D02*
X178510000Y-67140580D01*
%TO.C,C514*%
X179240000Y-66859420D02*
X179240000Y-67140580D01*
X180260000Y-66859420D02*
X180260000Y-67140580D01*
%TO.C,C512*%
X190109420Y-54510000D02*
X190390580Y-54510000D01*
X190109420Y-53490000D02*
X190390580Y-53490000D01*
%TO.C,C510*%
X180990000Y-66859420D02*
X180990000Y-67140580D01*
X182010000Y-66859420D02*
X182010000Y-67140580D01*
%TO.C,C509*%
X188990000Y-58109420D02*
X188990000Y-58390580D01*
X190010000Y-58109420D02*
X190010000Y-58390580D01*
%TO.C,C508*%
X190740000Y-58109420D02*
X190740000Y-58390580D01*
X191760000Y-58109420D02*
X191760000Y-58390580D01*
%TO.C,C507*%
X190010000Y-61890580D02*
X190010000Y-61609420D01*
X188990000Y-61890580D02*
X188990000Y-61609420D01*
%TO.C,C506*%
X191760000Y-61890580D02*
X191760000Y-61609420D01*
X190740000Y-61890580D02*
X190740000Y-61609420D01*
%TO.C,C502*%
X190490000Y-66859420D02*
X190490000Y-67140580D01*
X191510000Y-66859420D02*
X191510000Y-67140580D01*
%TO.C,C501*%
X184490000Y-66859420D02*
X184490000Y-67140580D01*
X185510000Y-66859420D02*
X185510000Y-67140580D01*
%TO.C,R503*%
X193762742Y-67727500D02*
X194237258Y-67727500D01*
X193762742Y-68772500D02*
X194237258Y-68772500D01*
%TO.C,R502*%
X197487258Y-70522500D02*
X197012742Y-70522500D01*
X197487258Y-69477500D02*
X197012742Y-69477500D01*
%TO.C,R501*%
X193762742Y-69477500D02*
X194237258Y-69477500D01*
X193762742Y-70522500D02*
X194237258Y-70522500D01*
%TO.C,D501*%
X196450000Y-68985000D02*
X198735000Y-68985000D01*
X198735000Y-68985000D02*
X198735000Y-67515000D01*
X198735000Y-67515000D02*
X196450000Y-67515000D01*
%TO.C,J401*%
X180910000Y-121870000D02*
X180910000Y-138130000D01*
X180910000Y-121870000D02*
X202500000Y-121870000D01*
X202500000Y-138130000D02*
X202500000Y-121870000D01*
X180910000Y-138130000D02*
X202500000Y-138130000D01*
%TO.C,J201*%
X201035000Y-87420000D02*
X201035000Y-96580000D01*
X201035000Y-96580000D02*
X199330000Y-96580000D01*
X199330000Y-87420000D02*
X201035000Y-87420000D01*
X197320000Y-87420000D02*
X195400000Y-87420000D01*
X195400000Y-96580000D02*
X197320000Y-96580000D01*
D12*
%TO.C,J1*%
X175900000Y-121650000D02*
G75*
G03*
X175900000Y-121650000I-100000J0D01*
G01*
D13*
X175000000Y-122200000D02*
X175000000Y-123000000D01*
X175000000Y-57000000D02*
X175000000Y-58000000D01*
X161550000Y-125000000D02*
X168150000Y-125000000D01*
X161550000Y-123950000D02*
X161550000Y-125000000D01*
X168150000Y-123950000D02*
X161550000Y-123950000D01*
X166300000Y-122000000D02*
X166300000Y-123950000D01*
X166300000Y-56050000D02*
X166300000Y-58000000D01*
X161550000Y-56050000D02*
X161550000Y-55000000D01*
X166300000Y-56050000D02*
X161550000Y-56050000D01*
X168150000Y-56050000D02*
X166300000Y-56050000D01*
X168150000Y-55000000D02*
X161550000Y-55000000D01*
X173270000Y-56980000D02*
X173270000Y-58000000D01*
X175000000Y-56980000D02*
X173270000Y-56980000D01*
X175000000Y-54450000D02*
X175000000Y-56980000D01*
X173270000Y-123020000D02*
X173270000Y-122200000D01*
X175000000Y-123020000D02*
X173270000Y-123020000D01*
X175000000Y-125550000D02*
X175000000Y-123020000D01*
X168150000Y-125550000D02*
X175000000Y-125550000D01*
X168150000Y-125000000D02*
X168150000Y-125550000D01*
X168150000Y-123950000D02*
X168150000Y-125000000D01*
X168150000Y-56050000D02*
X168150000Y-123950000D01*
X168150000Y-55000000D02*
X168150000Y-56050000D01*
X168150000Y-54450000D02*
X168150000Y-55000000D01*
X175000000Y-54450000D02*
X168150000Y-54450000D01*
D11*
%TO.C,R301*%
X187512742Y-100522500D02*
X187987258Y-100522500D01*
X187512742Y-99477500D02*
X187987258Y-99477500D01*
%TO.C,D101*%
X198735000Y-82515000D02*
X196450000Y-82515000D01*
X198735000Y-83985000D02*
X198735000Y-82515000D01*
X196450000Y-83985000D02*
X198735000Y-83985000D01*
%TO.C,D201*%
X198735000Y-97515000D02*
X196450000Y-97515000D01*
X198735000Y-98985000D02*
X198735000Y-97515000D01*
X196450000Y-98985000D02*
X198735000Y-98985000D01*
%TO.C,R402*%
X181237258Y-139477500D02*
X180762742Y-139477500D01*
X181237258Y-140522500D02*
X180762742Y-140522500D01*
%TO.C,R401*%
X181237258Y-141477500D02*
X180762742Y-141477500D01*
X181237258Y-142522500D02*
X180762742Y-142522500D01*
%TO.C,R302*%
X191737258Y-99477500D02*
X191262742Y-99477500D01*
X191737258Y-100522500D02*
X191262742Y-100522500D01*
%TO.C,J301*%
X180910000Y-101870000D02*
X180910000Y-118130000D01*
X180910000Y-101870000D02*
X202500000Y-101870000D01*
X202500000Y-118130000D02*
X202500000Y-101870000D01*
X180910000Y-118130000D02*
X202500000Y-118130000D01*
%TO.C,C401*%
X180010000Y-130140580D02*
X180010000Y-129859420D01*
X178990000Y-130140580D02*
X178990000Y-129859420D01*
%TO.C,C301*%
X180010000Y-110140580D02*
X180010000Y-109859420D01*
X178990000Y-110140580D02*
X178990000Y-109859420D01*
%TO.C,U201*%
X186365000Y-88390000D02*
X185890000Y-88390000D01*
X191110000Y-93610000D02*
X191110000Y-93135000D01*
X190635000Y-93610000D02*
X191110000Y-93610000D01*
X185890000Y-93610000D02*
X185890000Y-93135000D01*
X186365000Y-93610000D02*
X185890000Y-93610000D01*
X191110000Y-88390000D02*
X191110000Y-88865000D01*
X190635000Y-88390000D02*
X191110000Y-88390000D01*
%TO.C,U202*%
X179690000Y-87000000D02*
X179690000Y-88800000D01*
X179690000Y-87000000D02*
X179690000Y-86200000D01*
X182810000Y-87000000D02*
X182810000Y-87800000D01*
X182810000Y-87000000D02*
X182810000Y-86200000D01*
%TO.C,U101*%
X186365000Y-73390000D02*
X185890000Y-73390000D01*
X191110000Y-78610000D02*
X191110000Y-78135000D01*
X190635000Y-78610000D02*
X191110000Y-78610000D01*
X185890000Y-78610000D02*
X185890000Y-78135000D01*
X186365000Y-78610000D02*
X185890000Y-78610000D01*
X191110000Y-73390000D02*
X191110000Y-73865000D01*
X190635000Y-73390000D02*
X191110000Y-73390000D01*
%TO.C,U102*%
X179690000Y-72000000D02*
X179690000Y-73800000D01*
X179690000Y-72000000D02*
X179690000Y-71200000D01*
X182810000Y-72000000D02*
X182810000Y-72800000D01*
X182810000Y-72000000D02*
X182810000Y-71200000D01*
%TO.C,R205*%
X188022500Y-85737258D02*
X188022500Y-85262742D01*
X186977500Y-85737258D02*
X186977500Y-85262742D01*
%TO.C,R204*%
X191522500Y-85737258D02*
X191522500Y-85262742D01*
X190477500Y-85737258D02*
X190477500Y-85262742D01*
%TO.C,R203*%
X193762742Y-98772500D02*
X194237258Y-98772500D01*
X193762742Y-97727500D02*
X194237258Y-97727500D01*
%TO.C,R202*%
X187012742Y-97272500D02*
X187487258Y-97272500D01*
X187012742Y-96227500D02*
X187487258Y-96227500D01*
%TO.C,R201*%
X190387742Y-97272500D02*
X190862258Y-97272500D01*
X190387742Y-96227500D02*
X190862258Y-96227500D01*
%TO.C,R105*%
X188022500Y-70737258D02*
X188022500Y-70262742D01*
X186977500Y-70737258D02*
X186977500Y-70262742D01*
%TO.C,R104*%
X191522500Y-70737258D02*
X191522500Y-70262742D01*
X190477500Y-70737258D02*
X190477500Y-70262742D01*
%TO.C,R103*%
X193762742Y-83772500D02*
X194237258Y-83772500D01*
X193762742Y-82727500D02*
X194237258Y-82727500D01*
%TO.C,R102*%
X187012742Y-82272500D02*
X187487258Y-82272500D01*
X187012742Y-81227500D02*
X187487258Y-81227500D01*
%TO.C,R101*%
X190387742Y-82272500D02*
X190862258Y-82272500D01*
X190387742Y-81227500D02*
X190862258Y-81227500D01*
%TO.C,L201*%
X181560000Y-97999622D02*
X181560000Y-97200378D01*
X180440000Y-97999622D02*
X180440000Y-97200378D01*
%TO.C,L101*%
X181560000Y-83149622D02*
X181560000Y-82350378D01*
X180440000Y-83149622D02*
X180440000Y-82350378D01*
%TO.C,J101*%
X195400000Y-81580000D02*
X197320000Y-81580000D01*
X197320000Y-72420000D02*
X195400000Y-72420000D01*
X199330000Y-72420000D02*
X201035000Y-72420000D01*
X201035000Y-81580000D02*
X199330000Y-81580000D01*
X201035000Y-72420000D02*
X201035000Y-81580000D01*
%TO.C,C201*%
X183488748Y-97735000D02*
X184011252Y-97735000D01*
X183488748Y-96265000D02*
X184011252Y-96265000D01*
%TO.C,C207*%
X186260000Y-85665580D02*
X186260000Y-85384420D01*
X185240000Y-85665580D02*
X185240000Y-85384420D01*
%TO.C,C206*%
X190890580Y-94490000D02*
X190609420Y-94490000D01*
X190890580Y-95510000D02*
X190609420Y-95510000D01*
%TO.C,C205*%
X183490000Y-89109420D02*
X183490000Y-89390580D01*
X184510000Y-89109420D02*
X184510000Y-89390580D01*
%TO.C,C204*%
X189760000Y-85640580D02*
X189760000Y-85359420D01*
X188740000Y-85640580D02*
X188740000Y-85359420D01*
%TO.C,C203*%
X184510000Y-85640580D02*
X184510000Y-85359420D01*
X183490000Y-85640580D02*
X183490000Y-85359420D01*
%TO.C,C202*%
X181359420Y-90510000D02*
X181640580Y-90510000D01*
X181359420Y-89490000D02*
X181640580Y-89490000D01*
%TO.C,C101*%
X183488748Y-82735000D02*
X184011252Y-82735000D01*
X183488748Y-81265000D02*
X184011252Y-81265000D01*
%TO.C,C107*%
X186260000Y-70640580D02*
X186260000Y-70359420D01*
X185240000Y-70640580D02*
X185240000Y-70359420D01*
%TO.C,C106*%
X190890580Y-79490000D02*
X190609420Y-79490000D01*
X190890580Y-80510000D02*
X190609420Y-80510000D01*
%TO.C,C105*%
X183490000Y-74109420D02*
X183490000Y-74390580D01*
X184510000Y-74109420D02*
X184510000Y-74390580D01*
%TO.C,C104*%
X189760000Y-70640580D02*
X189760000Y-70359420D01*
X188740000Y-70640580D02*
X188740000Y-70359420D01*
%TO.C,C103*%
X184510000Y-70640580D02*
X184510000Y-70359420D01*
X183490000Y-70640580D02*
X183490000Y-70359420D01*
%TO.C,C102*%
X181359420Y-75510000D02*
X181640580Y-75510000D01*
X181359420Y-74490000D02*
X181640580Y-74490000D01*
%TO.C,J16*%
X178000000Y-50795000D02*
X178000000Y-52125000D01*
X176670000Y-50795000D02*
X178000000Y-50795000D01*
X175400000Y-50795000D02*
X175400000Y-53455000D01*
X175400000Y-53455000D02*
X165180000Y-53455000D01*
X175400000Y-50795000D02*
X165180000Y-50795000D01*
X165180000Y-50795000D02*
X165180000Y-53455000D01*
%TO.C,J3*%
X138310000Y-105180000D02*
X135650000Y-105180000D01*
X138310000Y-112860000D02*
X138310000Y-105180000D01*
X135650000Y-112860000D02*
X135650000Y-105180000D01*
X138310000Y-112860000D02*
X135650000Y-112860000D01*
X138310000Y-114130000D02*
X138310000Y-115460000D01*
X138310000Y-115460000D02*
X136980000Y-115460000D01*
%TO.C,J2*%
X107120000Y-106030000D02*
X106820000Y-106630000D01*
X106520000Y-106030000D02*
X107120000Y-106030000D01*
X106820000Y-106630000D02*
X106520000Y-106030000D01*
X101910000Y-122830000D02*
X101910000Y-106830000D01*
X108930000Y-122830000D02*
X101910000Y-122830000D01*
X108930000Y-121630000D02*
X108930000Y-122830000D01*
X110630000Y-121630000D02*
X108930000Y-121630000D01*
X110630000Y-108030000D02*
X110630000Y-121630000D01*
X108930000Y-108030000D02*
X110630000Y-108030000D01*
X108930000Y-106830000D02*
X108930000Y-108030000D01*
X101910000Y-106830000D02*
X108930000Y-106830000D01*
%TD*%
M02*
