M48
; DRILL file {KiCad (5.1.9-0-10_14)} date Sunday, March 28, 2021 at 05:09:16 PM
; FORMAT={-:-/ absolute / inch / decimal}
; #@! TF.CreationDate,2021-03-28T17:09:16+02:00
; #@! TF.GenerationSoftware,Kicad,Pcbnew,(5.1.9-0-10_14)
FMAT,2
INCH
T1C0.0118
T2C0.0236
T3C0.0354
T4C0.0394
T5C0.0669
T6C0.1063
T7C0.1260
T8C0.0256
T9C0.0433
T10C0.0454
T11C0.0630
%
G90
G05
T1
X4.4055Y-4.187
X4.4555Y-4.187
X4.5055Y-4.187
X4.5079Y-4.6949
X4.5344Y-4.5443
X4.5555Y-4.187
X4.5965Y-4.5374
X4.6093Y-5.0394
X4.6355Y-4.512
X4.6355Y-4.612
X4.668Y-4.3745
X4.668Y-4.412
X4.668Y-4.4495
X4.7005Y-4.512
X4.7005Y-4.612
X4.7055Y-4.3745
X4.7055Y-4.412
X4.7055Y-4.4495
X4.7372Y-5.0394
X4.743Y-4.3745
X4.743Y-4.412
X4.743Y-4.4495
X4.7555Y-4.087
X4.793Y-4.387
X4.793Y-4.4245
X4.793Y-4.462
X4.843Y-4.7495
X4.843Y-4.787
X4.8555Y-4.087
X4.868Y-4.187
X4.868Y-4.287
X4.8805Y-4.7495
X4.8805Y-4.787
X4.918Y-4.387
X4.918Y-4.4245
X4.918Y-4.462
X4.9213Y-4.5866
X4.9213Y-4.626
X4.9606Y-4.5866
X4.9606Y-4.626
X5.0689Y-4.0748
X5.0738Y-3.9321
X5.3081Y-5.0394
X5.436Y-5.0394
X5.4724Y-2.185
X5.6102Y-2.185
X5.748Y-2.185
X6.0069Y-5.0394
X6.1348Y-5.0394
X6.1811Y-2.2224
X6.1811Y-2.3012
X6.1811Y-4.7854
X6.1811Y-4.8642
X6.2598Y-2.2224
X6.2598Y-2.3012
X6.2598Y-4.7854
X6.2598Y-4.8642
X6.4724Y-2.2972
X6.4724Y-2.7933
X6.4724Y-3.3957
X6.4724Y-3.998
X6.4724Y-4.3287
X6.4724Y-4.6713
X6.4724Y-4.7185
X6.4724Y-4.7657
X6.5906Y-2.2972
X6.5906Y-2.7933
X6.5906Y-3.3957
X6.5906Y-3.998
X6.5906Y-4.3287
X6.5906Y-4.376
X6.5906Y-4.4469
X6.5906Y-4.5177
X6.5906Y-4.5886
X6.5906Y-4.6713
X6.5906Y-4.7185
X6.5906Y-4.7657
X6.6034Y-4.4016
X6.6034Y-4.4725
X6.6034Y-4.5433
X6.6034Y-4.6142
X6.7953Y-2.3091
X6.7953Y-2.8051
X6.7953Y-3.4075
X6.7953Y-4.0098
X6.7953Y-4.3406
X6.7953Y-4.6831
X6.7953Y-4.7303
X6.7953Y-4.7776
X6.9134Y-2.3091
X6.9134Y-2.8051
X6.9134Y-3.4075
X6.9134Y-4.0098
X6.9134Y-4.3406
X6.9134Y-4.6831
X6.9134Y-4.7303
X6.9134Y-4.7776
X6.9182Y-2.372
X7.0197Y-3.2992
X7.0197Y-3.8819
X7.0226Y-2.7018
X7.0276Y-3.9862
X7.0276Y-4.0157
X7.0276Y-4.0453
X7.0276Y-4.0748
X7.0433Y-2.8996
X7.0433Y-2.9469
X7.0433Y-3.4665
X7.0433Y-3.5138
X7.0472Y-2.0374
X7.0669Y-2.9232
X7.0669Y-2.9705
X7.0669Y-3.4902
X7.0669Y-3.5374
X7.0669Y-5.5118
X7.0669Y-5.5906
X7.0768Y-2.1358
X7.0768Y-2.7018
X7.0984Y-2.8346
X7.0984Y-3.4252
X7.1063Y-4.3012
X7.1063Y-5.0886
X7.1358Y-2.8346
X7.1358Y-3.4252
X7.1407Y-2.9528
X7.1407Y-3.5433
X7.1457Y-2.2933
X7.1457Y-2.372
X7.1457Y-2.4508
X7.1457Y-2.7018
X7.1732Y-2.8346
X7.1732Y-3.4252
X7.1799Y-2.6073
X7.2096Y-2.1358
X7.2096Y-2.9528
X7.2096Y-3.5433
X7.2146Y-2.7018
X7.2244Y-2.2933
X7.2244Y-2.372
X7.2244Y-2.4508
X7.2293Y-3.2087
X7.2293Y-3.248
X7.2293Y-3.7992
X7.2293Y-3.8386
X7.2441Y-2.7116
X7.2441Y-2.8434
X7.2441Y-3.3022
X7.2441Y-3.434
X7.2835Y-2.7018
X7.3031Y-2.2933
X7.3031Y-2.372
X7.3031Y-2.4508
X7.3031Y-3.2087
X7.3031Y-3.248
X7.3031Y-3.7992
X7.3031Y-3.8386
X7.313Y-2.7116
X7.313Y-3.3022
X7.3228Y-3.0906
X7.3228Y-3.6811
X7.3327Y-2.8543
X7.3327Y-3.4449
X7.3425Y-2.4005
X7.3671Y-3.2185
X7.3671Y-3.8091
X7.3808Y-2.564
X7.3819Y-2.0571
X7.3819Y-2.1949
X7.3819Y-2.9528
X7.3819Y-2.9921
X7.3819Y-3.0315
X7.3819Y-3.3022
X7.3819Y-3.5433
X7.3819Y-3.5827
X7.3819Y-3.622
X7.3928Y-3.1299
X7.3928Y-3.7205
X7.4104Y-2.8554
X7.4104Y-3.4459
X7.4163Y-2.7431
X7.4213Y-2.9528
X7.4213Y-2.9921
X7.4213Y-3.0315
X7.4213Y-3.5433
X7.4213Y-3.5827
X7.4213Y-3.622
X7.4459Y-3.1299
X7.4459Y-3.1644
X7.4459Y-3.7205
X7.4459Y-3.7549
X7.4508Y-3.3022
X7.4519Y-2.8543
X7.4519Y-3.4449
X7.4606Y-2.0965
X7.4606Y-2.9528
X7.4606Y-2.9921
X7.4606Y-3.0315
X7.4606Y-3.5433
X7.4606Y-3.5827
X7.4606Y-3.622
X7.4606Y-3.937
X7.4805Y-2.8543
X7.4805Y-3.4449
X7.4902Y-2.7067
X7.4951Y-2.3228
X7.4951Y-2.4016
X7.5Y-3.2185
X7.5Y-3.8091
X7.5098Y-2.1949
X7.5098Y-2.5295
X7.5197Y-2.8346
X7.5197Y-3.4252
X7.5492Y-2.9419
X7.5492Y-2.9921
X7.5492Y-3.5324
X7.5492Y-3.5827
X7.5591Y-2.126
X7.5591Y-2.6673
X7.5738Y-3.1496
X7.5738Y-3.7402
X7.5837Y-2.4104
X7.5837Y-2.4519
X7.5837Y-2.5935
X7.5837Y-3.0009
X7.5837Y-3.0424
X7.5837Y-3.1841
X7.5837Y-3.5915
X7.5837Y-3.633
X7.5837Y-3.7746
X7.6329Y-2.7559
X7.6673Y-2.5197
X7.6673Y-3.1102
X7.6673Y-3.7008
X7.693Y-2.8937
X7.693Y-3.4843
X7.6955Y-2.3031
X7.6969Y-2.6378
X7.6969Y-2.7559
X7.7362Y-2.3524
X7.7362Y-2.9429
X7.7362Y-3.5335
X7.7411Y-2.6378
X7.7608Y-2.7559
X7.7657Y-2.5197
X7.7657Y-3.1102
X7.7657Y-3.7008
X7.8297Y-2.687
X7.8297Y-2.687
X7.8297Y-2.7559
X7.8297Y-3.2776
X7.8297Y-3.8681
T3
X7.1933Y-4.1557
X7.1933Y-4.2557
X7.1933Y-4.3557
X7.1933Y-4.4557
X7.1933Y-4.5557
X7.1933Y-4.9431
X7.1933Y-5.0431
X7.1933Y-5.1431
X7.1933Y-5.2431
X7.1933Y-5.3431
X7.2933Y-4.1057
X7.2933Y-4.2057
X7.2933Y-4.3057
X7.2933Y-4.4057
X7.2933Y-4.5057
X7.2933Y-4.8931
X7.2933Y-4.9931
X7.2933Y-5.0931
X7.2933Y-5.1931
X7.2933Y-5.2931
T4
X4.2055Y-5.087
X4.2055Y-5.187
X4.2055Y-5.287
X4.2055Y-5.387
X4.3055Y-5.087
X4.3055Y-5.187
X4.3055Y-5.287
X4.3055Y-5.387
X4.4305Y-2.262
X4.4305Y-2.362
X4.4305Y-2.462
X4.4305Y-2.562
X4.4305Y-2.662
X4.4305Y-2.762
X4.4305Y-2.862
X4.4305Y-2.962
X4.4305Y-3.062
X4.4305Y-3.162
X4.4305Y-3.262
X4.4305Y-3.462
X4.4305Y-3.562
X4.4305Y-3.662
X4.4305Y-3.762
X4.4305Y-3.862
X4.4305Y-3.962
X4.4555Y-5.087
X4.4555Y-5.187
X4.4555Y-5.287
X4.4555Y-5.387
X4.4555Y-5.487
X4.5305Y-2.262
X4.5305Y-2.362
X4.5305Y-2.462
X4.5305Y-2.562
X4.5305Y-2.662
X4.5305Y-2.762
X4.5305Y-2.862
X4.5305Y-2.962
X4.5305Y-3.062
X4.5305Y-3.162
X4.5305Y-3.262
X4.5305Y-3.462
X4.5305Y-3.562
X4.5305Y-3.662
X4.5305Y-3.762
X4.5305Y-3.862
X4.5305Y-3.962
X4.9055Y-5.087
X4.9055Y-5.187
X4.9055Y-5.287
X4.9055Y-5.387
X5.0055Y-5.087
X5.0055Y-5.187
X5.0055Y-5.287
X5.0055Y-5.387
X5.1555Y-5.087
X5.1555Y-5.187
X5.1555Y-5.287
X5.1555Y-5.387
X5.1555Y-5.487
X5.3929Y-4.1933
X5.3929Y-4.2933
X5.3929Y-4.3933
X5.3929Y-4.4933
X5.6055Y-5.087
X5.6055Y-5.187
X5.6055Y-5.287
X5.6055Y-5.387
X5.7055Y-5.087
X5.7055Y-5.187
X5.7055Y-5.287
X5.7055Y-5.387
X5.8555Y-5.087
X5.8555Y-5.187
X5.8555Y-5.287
X5.8555Y-5.387
X5.8555Y-5.487
X6.3055Y-5.087
X6.3055Y-5.187
X6.3055Y-5.287
X6.3055Y-5.387
X6.4055Y-5.087
X6.4055Y-5.187
X6.4055Y-5.287
X6.4055Y-5.387
X6.5555Y-2.0522
X6.6555Y-2.0522
X6.7555Y-2.0522
X6.7555Y-5.087
X6.7555Y-5.187
X6.7555Y-5.287
X6.7555Y-5.387
X6.8555Y-2.0522
X6.8555Y-5.087
X6.8555Y-5.187
X6.8555Y-5.287
X6.8555Y-5.387
X6.9555Y-2.0522
X7.7362Y-4.0697
X7.7362Y-4.1697
X7.7362Y-4.4917
X7.7362Y-4.5917
X7.7362Y-4.8571
X7.7362Y-4.9571
X7.7362Y-5.2791
X7.7362Y-5.3791
T5
X4.2055Y-4.287
X4.2055Y-4.4429
X4.2055Y-4.5988
X4.2055Y-4.7547
X7.4232Y-4.0256
X7.4232Y-4.6358
X7.4232Y-4.813
X7.4232Y-5.4232
T6
X4.0945Y-2.126
X4.0945Y-5.5512
X7.7165Y-2.126
X7.7165Y-5.5512
T7
X7.5433Y-4.1057
X7.5433Y-4.5557
X7.5433Y-4.8931
X7.5433Y-5.3431
T8
X7.6632Y-2.3272
X7.6632Y-2.5547
X7.6632Y-2.9177
X7.6632Y-3.1453
X7.6632Y-3.5083
X7.6632Y-3.7358
T9
X6.6929Y-2.2283
T10
X4.0748Y-4.7638
X6.811Y-2.2244
X7.5394Y-5.1181
T11
X6.6929Y-4.8583
T2
G00X7.6219Y-2.2709
M15
G01X7.6652Y-2.2709
M16
G05
G00X7.6219Y-2.611
M15
G01X7.6652Y-2.611
M16
G05
G00X7.6219Y-2.8614
M15
G01X7.6652Y-2.8614
M16
G05
G00X7.6219Y-3.2016
M15
G01X7.6652Y-3.2016
M16
G05
G00X7.6219Y-3.452
M15
G01X7.6652Y-3.452
M16
G05
G00X7.6219Y-3.7921
M15
G01X7.6652Y-3.7921
M16
G05
G00X7.7963Y-2.2709
M15
G01X7.8199Y-2.2709
M16
G05
G00X7.7963Y-2.611
M15
G01X7.8199Y-2.611
M16
G05
G00X7.7963Y-2.8614
M15
G01X7.8199Y-2.8614
M16
G05
G00X7.7963Y-3.2016
M15
G01X7.8199Y-3.2016
M16
G05
G00X7.7963Y-3.452
M15
G01X7.8199Y-3.452
M16
G05
G00X7.7963Y-3.7921
M15
G01X7.8199Y-3.7921
M16
G05
T0
M30
