%TF.GenerationSoftware,KiCad,Pcbnew,(5.1.9-0-10_14)*%
%TF.CreationDate,2021-03-28T17:09:14+02:00*%
%TF.ProjectId,FPGA,46504741-2e6b-4696-9361-645f70636258,rev?*%
%TF.SameCoordinates,Original*%
%TF.FileFunction,Copper,L4,Bot*%
%TF.FilePolarity,Positive*%
%FSLAX46Y46*%
G04 Gerber Fmt 4.6, Leading zero omitted, Abs format (unit mm)*
G04 Created by KiCad (PCBNEW (5.1.9-0-10_14)) date 2021-03-28 17:09:14*
%MOMM*%
%LPD*%
G01*
G04 APERTURE LIST*
%TA.AperFunction,ComponentPad*%
%ADD10O,1.600000X1.000000*%
%TD*%
%TA.AperFunction,ComponentPad*%
%ADD11O,2.100000X1.000000*%
%TD*%
%TA.AperFunction,ComponentPad*%
%ADD12O,1.700000X1.700000*%
%TD*%
%TA.AperFunction,ComponentPad*%
%ADD13R,1.700000X1.700000*%
%TD*%
%TA.AperFunction,ComponentPad*%
%ADD14C,3.200000*%
%TD*%
%TA.AperFunction,ComponentPad*%
%ADD15C,1.700000*%
%TD*%
%TA.AperFunction,ComponentPad*%
%ADD16C,1.500000*%
%TD*%
%TA.AperFunction,ComponentPad*%
%ADD17C,1.600000*%
%TD*%
%TA.AperFunction,ComponentPad*%
%ADD18C,4.700000*%
%TD*%
%TA.AperFunction,ComponentPad*%
%ADD19C,2.700000*%
%TD*%
%TA.AperFunction,ViaPad*%
%ADD20C,0.600000*%
%TD*%
%TA.AperFunction,Conductor*%
%ADD21C,0.300000*%
%TD*%
%TA.AperFunction,Conductor*%
%ADD22C,0.200000*%
%TD*%
%TA.AperFunction,Conductor*%
%ADD23C,0.400000*%
%TD*%
%TA.AperFunction,Conductor*%
%ADD24C,0.190500*%
%TD*%
%TA.AperFunction,Conductor*%
%ADD25C,0.100000*%
%TD*%
G04 APERTURE END LIST*
D10*
%TO.P,J501,S1*%
%TO.N,Earth*%
X198325000Y-57680000D03*
X198325000Y-66320000D03*
D11*
X194145000Y-57680000D03*
X194145000Y-66320000D03*
%TD*%
D12*
%TO.P,J4,12*%
%TO.N,/3V3_EXP*%
X115075000Y-100635000D03*
%TO.P,J4,11*%
X112535000Y-100635000D03*
%TO.P,J4,10*%
%TO.N,GND*%
X115075000Y-98095000D03*
%TO.P,J4,9*%
X112535000Y-98095000D03*
%TO.P,J4,8*%
%TO.N,/EXP8*%
X115075000Y-95555000D03*
%TO.P,J4,7*%
%TO.N,/EXP4*%
X112535000Y-95555000D03*
%TO.P,J4,6*%
%TO.N,/EXP7*%
X115075000Y-93015000D03*
%TO.P,J4,5*%
%TO.N,/EXP3*%
X112535000Y-93015000D03*
%TO.P,J4,4*%
%TO.N,/EXP6*%
X115075000Y-90475000D03*
%TO.P,J4,3*%
%TO.N,/EXP2*%
X112535000Y-90475000D03*
%TO.P,J4,2*%
%TO.N,/EXP5*%
X115075000Y-87935000D03*
D13*
%TO.P,J4,1*%
%TO.N,/EXP1*%
X112535000Y-87935000D03*
%TD*%
D12*
%TO.P,J801,22*%
%TO.N,GND*%
X115075000Y-82855000D03*
%TO.P,J801,21*%
%TO.N,/POTI_CLK*%
X112535000Y-82855000D03*
%TO.P,J801,20*%
%TO.N,/POTI_SDO*%
X115075000Y-80315000D03*
%TO.P,J801,19*%
%TO.N,/~POTI_CS*%
X112535000Y-80315000D03*
%TO.P,J801,18*%
%TO.N,/VPOT_A0*%
X115075000Y-77775000D03*
%TO.P,J801,17*%
%TO.N,/VPOT_A3*%
X112535000Y-77775000D03*
%TO.P,J801,16*%
%TO.N,/VPOT_A1*%
X115075000Y-75235000D03*
%TO.P,J801,15*%
%TO.N,/VPOT_A2*%
X112535000Y-75235000D03*
%TO.P,J801,14*%
%TO.N,GND*%
X115075000Y-72695000D03*
%TO.P,J801,13*%
%TO.N,/A*%
X112535000Y-72695000D03*
%TO.P,J801,12*%
%TO.N,GND*%
X115075000Y-70155000D03*
%TO.P,J801,11*%
%TO.N,/B*%
X112535000Y-70155000D03*
%TO.P,J801,10*%
%TO.N,/LED_DATA*%
X115075000Y-67615000D03*
%TO.P,J801,9*%
%TO.N,/~LED_SW_OE*%
X112535000Y-67615000D03*
%TO.P,J801,8*%
%TO.N,/LED_CLK*%
X115075000Y-65075000D03*
%TO.P,J801,7*%
%TO.N,/~LED_DISPLAY_OE*%
X112535000Y-65075000D03*
%TO.P,J801,6*%
%TO.N,/LED_LE*%
X115075000Y-62535000D03*
%TO.P,J801,5*%
%TO.N,/~LED_OE*%
X112535000Y-62535000D03*
%TO.P,J801,4*%
%TO.N,/~SW_SER_CE*%
X115075000Y-59995000D03*
%TO.P,J801,3*%
%TO.N,/~SW_SER_PL*%
X112535000Y-59995000D03*
%TO.P,J801,2*%
%TO.N,/SW_SER_DATA*%
X115075000Y-57455000D03*
D13*
%TO.P,J801,1*%
%TO.N,/SW_SER_CP*%
X112535000Y-57455000D03*
%TD*%
D12*
%TO.P,J602,5*%
%TO.N,GND*%
X148730000Y-139370000D03*
%TO.P,J602,4*%
%TO.N,/DAC1_SCL*%
X148730000Y-136830000D03*
%TO.P,J602,3*%
%TO.N,/DAC1_SDA*%
X148730000Y-134290000D03*
%TO.P,J602,2*%
%TO.N,/DAC1_IRQ*%
X148730000Y-131750000D03*
D13*
%TO.P,J602,1*%
%TO.N,/DAC1_Mute*%
X148730000Y-129210000D03*
%TD*%
D12*
%TO.P,J702,8*%
%TO.N,GND*%
X162700000Y-136830000D03*
%TO.P,J702,7*%
%TO.N,/ADC2_MCLK*%
X160160000Y-136830000D03*
%TO.P,J702,6*%
%TO.N,GND*%
X162700000Y-134290000D03*
%TO.P,J702,5*%
%TO.N,/ADC2_BCLK*%
X160160000Y-134290000D03*
%TO.P,J702,4*%
%TO.N,GND*%
X162700000Y-131750000D03*
%TO.P,J702,3*%
%TO.N,/ADC2_SDOUT*%
X160160000Y-131750000D03*
%TO.P,J702,2*%
%TO.N,GND*%
X162700000Y-129210000D03*
D13*
%TO.P,J702,1*%
%TO.N,/ADC2_LRCLK*%
X160160000Y-129210000D03*
%TD*%
D12*
%TO.P,J701,8*%
%TO.N,GND*%
X174130000Y-136830000D03*
%TO.P,J701,7*%
%TO.N,/ADC1_MCLK*%
X171590000Y-136830000D03*
%TO.P,J701,6*%
%TO.N,GND*%
X174130000Y-134290000D03*
%TO.P,J701,5*%
%TO.N,/ADC1_BCLK*%
X171590000Y-134290000D03*
%TO.P,J701,4*%
%TO.N,GND*%
X174130000Y-131750000D03*
%TO.P,J701,3*%
%TO.N,/ADC1_SDOUT*%
X171590000Y-131750000D03*
%TO.P,J701,2*%
%TO.N,GND*%
X174130000Y-129210000D03*
D13*
%TO.P,J701,1*%
%TO.N,/ADC1_LRCLK*%
X171590000Y-129210000D03*
%TD*%
D12*
%TO.P,J621,8*%
%TO.N,GND*%
X109360000Y-136830000D03*
%TO.P,J621,7*%
%TO.N,/DAC3_SDIN*%
X106820000Y-136830000D03*
%TO.P,J621,6*%
%TO.N,GND*%
X109360000Y-134290000D03*
%TO.P,J621,5*%
%TO.N,/DAC3_BCLK*%
X106820000Y-134290000D03*
%TO.P,J621,4*%
%TO.N,GND*%
X109360000Y-131750000D03*
%TO.P,J621,3*%
%TO.N,/DAC3_LRCLK*%
X106820000Y-131750000D03*
%TO.P,J621,2*%
%TO.N,GND*%
X109360000Y-129210000D03*
D13*
%TO.P,J621,1*%
%TO.N,/DAC3_MCLK*%
X106820000Y-129210000D03*
%TD*%
D12*
%TO.P,J611,8*%
%TO.N,GND*%
X127140000Y-136830000D03*
%TO.P,J611,7*%
%TO.N,/DAC2_SDIN*%
X124600000Y-136830000D03*
%TO.P,J611,6*%
%TO.N,GND*%
X127140000Y-134290000D03*
%TO.P,J611,5*%
%TO.N,/DAC2_BCLK*%
X124600000Y-134290000D03*
%TO.P,J611,4*%
%TO.N,GND*%
X127140000Y-131750000D03*
%TO.P,J611,3*%
%TO.N,/DAC2_LRCLK*%
X124600000Y-131750000D03*
%TO.P,J611,2*%
%TO.N,GND*%
X127140000Y-129210000D03*
D13*
%TO.P,J611,1*%
%TO.N,/DAC2_MCLK*%
X124600000Y-129210000D03*
%TD*%
D12*
%TO.P,J622,5*%
%TO.N,GND*%
X113170000Y-139370000D03*
%TO.P,J622,4*%
%TO.N,/DAC3_SCL*%
X113170000Y-136830000D03*
%TO.P,J622,3*%
%TO.N,/DAC3_SDA*%
X113170000Y-134290000D03*
%TO.P,J622,2*%
%TO.N,/DAC3_IRQ*%
X113170000Y-131750000D03*
D13*
%TO.P,J622,1*%
%TO.N,/DAC3_Mute*%
X113170000Y-129210000D03*
%TD*%
D12*
%TO.P,J612,5*%
%TO.N,GND*%
X130950000Y-139370000D03*
%TO.P,J612,4*%
%TO.N,/DAC2_SCL*%
X130950000Y-136830000D03*
%TO.P,J612,3*%
%TO.N,/DAC2_SDA*%
X130950000Y-134290000D03*
%TO.P,J612,2*%
%TO.N,/DAC2_IRQ*%
X130950000Y-131750000D03*
D13*
%TO.P,J612,1*%
%TO.N,/DAC2_Mute*%
X130950000Y-129210000D03*
%TD*%
D12*
%TO.P,J601,8*%
%TO.N,GND*%
X144920000Y-136830000D03*
%TO.P,J601,7*%
%TO.N,/DAC1_SDIN*%
X142380000Y-136830000D03*
%TO.P,J601,6*%
%TO.N,GND*%
X144920000Y-134290000D03*
%TO.P,J601,5*%
%TO.N,/DAC1_BCLK*%
X142380000Y-134290000D03*
%TO.P,J601,4*%
%TO.N,GND*%
X144920000Y-131750000D03*
%TO.P,J601,3*%
%TO.N,/DAC1_LRCLK*%
X142380000Y-131750000D03*
%TO.P,J601,2*%
%TO.N,GND*%
X144920000Y-129210000D03*
D13*
%TO.P,J601,1*%
%TO.N,/DAC1_MCLK*%
X142380000Y-129210000D03*
%TD*%
D14*
%TO.P,J401,*%
%TO.N,*%
X191600000Y-124285000D03*
X191600000Y-135715000D03*
D15*
X188550000Y-122250000D03*
X188550000Y-137750000D03*
D16*
%TO.P,J401,10*%
%TO.N,/ETH2_4P*%
X185250000Y-124285000D03*
%TO.P,J401,9*%
%TO.N,/ETH2_4N*%
X182710000Y-125555000D03*
%TO.P,J401,8*%
%TO.N,/ETH2_3N*%
X185250000Y-126825000D03*
%TO.P,J401,7*%
%TO.N,/ETH2_3P*%
X182710000Y-128095000D03*
%TO.P,J401,6*%
%TO.N,Net-(C401-Pad1)*%
X185250000Y-129365000D03*
%TO.P,J401,5*%
X182710000Y-130635000D03*
%TO.P,J401,4*%
%TO.N,/ETH2_2P*%
X185250000Y-131905000D03*
%TO.P,J401,3*%
%TO.N,/ETH2_2N*%
X182710000Y-133175000D03*
%TO.P,J401,2*%
%TO.N,/ETH2_1N*%
X185250000Y-134445000D03*
%TO.P,J401,1*%
%TO.N,/ETH2_1P*%
X182710000Y-135715000D03*
D17*
%TO.P,J401,14*%
%TO.N,Net-(J401-Pad14)*%
X196500000Y-123370000D03*
%TO.P,J401,13*%
%TO.N,/ETH2_LED_Y*%
X196500000Y-125910000D03*
%TO.P,J401,12*%
%TO.N,Net-(J401-Pad12)*%
X196500000Y-134090000D03*
%TO.P,J401,11*%
%TO.N,/ETH2_LED_G*%
X196500000Y-136630000D03*
%TD*%
D10*
%TO.P,J201,S1*%
%TO.N,Earth*%
X198325000Y-87680000D03*
X198325000Y-96320000D03*
D11*
X194145000Y-87680000D03*
X194145000Y-96320000D03*
%TD*%
D14*
%TO.P,J301,*%
%TO.N,*%
X191600000Y-104285000D03*
X191600000Y-115715000D03*
D15*
X188550000Y-102250000D03*
X188550000Y-117750000D03*
D16*
%TO.P,J301,10*%
%TO.N,/ETH1_4P*%
X185250000Y-104285000D03*
%TO.P,J301,9*%
%TO.N,/ETH1_4N*%
X182710000Y-105555000D03*
%TO.P,J301,8*%
%TO.N,/ETH1_3N*%
X185250000Y-106825000D03*
%TO.P,J301,7*%
%TO.N,/ETH1_3P*%
X182710000Y-108095000D03*
%TO.P,J301,6*%
%TO.N,Net-(C301-Pad1)*%
X185250000Y-109365000D03*
%TO.P,J301,5*%
X182710000Y-110635000D03*
%TO.P,J301,4*%
%TO.N,/ETH1_2P*%
X185250000Y-111905000D03*
%TO.P,J301,3*%
%TO.N,/ETH1_2N*%
X182710000Y-113175000D03*
%TO.P,J301,2*%
%TO.N,/ETH1_1N*%
X185250000Y-114445000D03*
%TO.P,J301,1*%
%TO.N,/ETH1_1P*%
X182710000Y-115715000D03*
D17*
%TO.P,J301,14*%
%TO.N,Net-(J301-Pad14)*%
X196500000Y-103370000D03*
%TO.P,J301,13*%
%TO.N,/ETH1_LED_Y*%
X196500000Y-105910000D03*
%TO.P,J301,12*%
%TO.N,Net-(J301-Pad12)*%
X196500000Y-114090000D03*
%TO.P,J301,11*%
%TO.N,/ETH1_LED_G*%
X196500000Y-116630000D03*
%TD*%
D10*
%TO.P,J101,S1*%
%TO.N,Earth*%
X198325000Y-72680000D03*
X198325000Y-81320000D03*
D11*
X194145000Y-72680000D03*
X194145000Y-81320000D03*
%TD*%
D12*
%TO.P,J16,5*%
%TO.N,GND*%
X166510000Y-52125000D03*
%TO.P,J16,4*%
%TO.N,/TCK*%
X169050000Y-52125000D03*
%TO.P,J16,3*%
%TO.N,/TMS*%
X171590000Y-52125000D03*
%TO.P,J16,2*%
%TO.N,/TDI*%
X174130000Y-52125000D03*
D13*
%TO.P,J16,1*%
%TO.N,/TDO*%
X176670000Y-52125000D03*
%TD*%
D18*
%TO.P,H4,1*%
%TO.N,Earth*%
X196000000Y-141000000D03*
%TD*%
%TO.P,H3,1*%
%TO.N,Earth*%
X196000000Y-54000000D03*
%TD*%
%TO.P,H2,1*%
%TO.N,Earth*%
X104000000Y-141000000D03*
%TD*%
%TO.P,H1,1*%
%TO.N,Earth*%
X104000000Y-54000000D03*
%TD*%
D12*
%TO.P,J3,4*%
%TO.N,/TCK*%
X136980000Y-106510000D03*
%TO.P,J3,3*%
%TO.N,/TMS*%
X136980000Y-109050000D03*
%TO.P,J3,2*%
%TO.N,/TDI*%
X136980000Y-111590000D03*
D13*
%TO.P,J3,1*%
%TO.N,/TDO*%
X136980000Y-114130000D03*
%TD*%
D19*
%TO.P,J2,4*%
%TO.N,GND*%
X106820000Y-120770000D03*
%TO.P,J2,3*%
X106820000Y-116810000D03*
%TO.P,J2,2*%
%TO.N,+5V*%
X106820000Y-112850000D03*
%TO.P,J2,1*%
%TA.AperFunction,ComponentPad*%
G36*
G01*
X105720001Y-107540000D02*
X107919999Y-107540000D01*
G75*
G02*
X108170000Y-107790001I0J-250001D01*
G01*
X108170000Y-109989999D01*
G75*
G02*
X107919999Y-110240000I-250001J0D01*
G01*
X105720001Y-110240000D01*
G75*
G02*
X105470000Y-109989999I0J250001D01*
G01*
X105470000Y-107790001D01*
G75*
G02*
X105720001Y-107540000I250001J0D01*
G01*
G37*
%TD.AperFunction*%
%TD*%
D20*
%TO.N,GND*%
X119393000Y-114605000D03*
X117742000Y-114605000D03*
X185500000Y-62250000D03*
X181500000Y-60250000D03*
X185500000Y-58250000D03*
X183500000Y-58250000D03*
X181500000Y-62250000D03*
X181500000Y-58250000D03*
X185500000Y-60250000D03*
X183500000Y-62250000D03*
X198875000Y-68250000D03*
X192625000Y-65875000D03*
X157000000Y-123550000D03*
X159000000Y-123550000D03*
X159000000Y-121550000D03*
X157000000Y-121550000D03*
X159000000Y-56450000D03*
X159000000Y-58450000D03*
X157000000Y-58450000D03*
X157000000Y-56450000D03*
X189125000Y-95375000D03*
X184000000Y-83875000D03*
X198875000Y-98250000D03*
X189250000Y-83875000D03*
X185750000Y-83875000D03*
X189500000Y-91000000D03*
X189500000Y-90000000D03*
X187500000Y-91000000D03*
X189500000Y-92000000D03*
X188500000Y-91000000D03*
X188500000Y-90000000D03*
X187500000Y-92000000D03*
X188500000Y-92000000D03*
X187500000Y-90000000D03*
X185500000Y-96500000D03*
X185500000Y-97500000D03*
X190500000Y-96750000D03*
X192625000Y-95875000D03*
X187125000Y-96750000D03*
X181250000Y-87000000D03*
X187500000Y-83875000D03*
X183125000Y-90000000D03*
X188500000Y-76000000D03*
X188500000Y-75000000D03*
X189500000Y-75000000D03*
X189500000Y-76000000D03*
X189500000Y-77000000D03*
X188500000Y-77000000D03*
X187500000Y-77000000D03*
X187500000Y-76000000D03*
X187500000Y-75000000D03*
X181250000Y-72000000D03*
X183125000Y-75000000D03*
X185750000Y-68875000D03*
X184000000Y-68875000D03*
X189125000Y-80375000D03*
X190500000Y-81750000D03*
X187125000Y-81750000D03*
X198875000Y-83250000D03*
X185500000Y-81500000D03*
X185500000Y-82500000D03*
X192625000Y-80875000D03*
X172600000Y-58650000D03*
X172600000Y-71250000D03*
X172600000Y-86550000D03*
X172600000Y-101850000D03*
X172600000Y-118950000D03*
X172600000Y-120150000D03*
X172600000Y-121350000D03*
X175600000Y-121350000D03*
X175600000Y-120150000D03*
X175600000Y-118950000D03*
X175600000Y-101850000D03*
X175600000Y-86550000D03*
X175600000Y-71250000D03*
X175600000Y-58650000D03*
X167400000Y-58350000D03*
X164400000Y-58350000D03*
X167400000Y-70950000D03*
X164400000Y-70950000D03*
X167400000Y-86250000D03*
X164400000Y-86250000D03*
X167400000Y-101550000D03*
X164400000Y-101550000D03*
X167400000Y-109950000D03*
X164400000Y-109950000D03*
X175600000Y-110250000D03*
X172600000Y-110250000D03*
X189500000Y-100000000D03*
X180500000Y-109250000D03*
X180500000Y-129250000D03*
X179500000Y-140000000D03*
X179500000Y-142000000D03*
X198875000Y-68250000D03*
X198875000Y-70000000D03*
X193875000Y-70000000D03*
X187473000Y-65125000D03*
X190375000Y-61000000D03*
X190375000Y-59000000D03*
X181500000Y-68625000D03*
X185000000Y-68625000D03*
X183250000Y-68625000D03*
X179750000Y-68625000D03*
X178375000Y-68625000D03*
X192000000Y-54000000D03*
X183125000Y-54250000D03*
X183500000Y-60250000D03*
X123330000Y-103810000D03*
X120790000Y-103810000D03*
X123647500Y-106350000D03*
X123647500Y-108890000D03*
X124917500Y-111430000D03*
X124917500Y-112382500D03*
X124917500Y-113335000D03*
X121742500Y-113335000D03*
X121742500Y-112382500D03*
X121742500Y-111430000D03*
X114440000Y-106350000D03*
X115710000Y-106350000D03*
X195466000Y-58500000D03*
X195402500Y-88500000D03*
X195402500Y-73500000D03*
X188375000Y-69675000D03*
X192000000Y-67750000D03*
X190250000Y-68750000D03*
X187500000Y-52250000D03*
X146000000Y-55500000D03*
X142500000Y-55500000D03*
X139000000Y-55500000D03*
X114500000Y-119250000D03*
X128875000Y-99875000D03*
X119393000Y-117145000D03*
X117742000Y-117145000D03*
%TO.N,+5V*%
X125000000Y-116500000D03*
X125000000Y-117500000D03*
X126000000Y-116500000D03*
X126000000Y-117500000D03*
%TO.N,/ETH2_1P*%
X167725125Y-117200250D03*
%TO.N,/ETH2_1N*%
X167400000Y-116550000D03*
%TO.N,/ETH2_2N*%
X167725125Y-115400250D03*
%TO.N,/ETH2_2P*%
X167400000Y-114750000D03*
%TO.N,/ETH2_3P*%
X167725125Y-113600250D03*
%TO.N,/ETH2_3N*%
X167400000Y-112950000D03*
%TO.N,/ETH2_4N*%
X167725125Y-111800250D03*
%TO.N,/ETH2_4P*%
X167400000Y-111150000D03*
%TO.N,/TCK*%
X179000000Y-51750000D03*
%TO.N,+3V3*%
X178300000Y-98600000D03*
X120325000Y-128000000D03*
X117075000Y-128000000D03*
X138075000Y-128000000D03*
X134825000Y-128000000D03*
X190750000Y-55750000D03*
X190750000Y-64250000D03*
X182370000Y-66225000D03*
X189500000Y-53250000D03*
X155825000Y-128000000D03*
X152575000Y-128000000D03*
X118567500Y-112065000D03*
X118567500Y-111112500D03*
X119520000Y-111112500D03*
X119520000Y-112065000D03*
X119520000Y-113017500D03*
X120472500Y-113017500D03*
X120472500Y-112065000D03*
X120472500Y-111112500D03*
X111900000Y-106350000D03*
X113170000Y-106350000D03*
X175723000Y-60250000D03*
X179750000Y-54250000D03*
X115175000Y-115425000D03*
X118567500Y-113017500D03*
X178300000Y-83800000D03*
%TO.N,/USB2/VBUS*%
X194750000Y-94000000D03*
X197250000Y-94000000D03*
X191000000Y-87000000D03*
X196500000Y-89750000D03*
%TO.N,/USB2/D+*%
X192625000Y-91223000D03*
X192625000Y-92277000D03*
%TO.N,/USB1/VBUS*%
X194750000Y-79000000D03*
X197250000Y-79000000D03*
X191000000Y-72000000D03*
X196500000Y-74750000D03*
%TO.N,/USB1/D+*%
X192625000Y-76223000D03*
X192625000Y-77277000D03*
%TO.N,/USB1/3V3_USB*%
X191750000Y-76000000D03*
X191750000Y-74723000D03*
X187777000Y-79500000D03*
X182200000Y-72000000D03*
X180300000Y-72000000D03*
X181375000Y-75000000D03*
X184000000Y-72223000D03*
X186000000Y-78500000D03*
X192375000Y-80000000D03*
X189125000Y-79500000D03*
X183625000Y-81500000D03*
X183625000Y-82500000D03*
%TO.N,/USB2/3V3_USB*%
X191750000Y-89723000D03*
X187777000Y-94500000D03*
X186000000Y-93500000D03*
X182200000Y-87000000D03*
X183625000Y-97500000D03*
X191750000Y-91000000D03*
X189125000Y-94500000D03*
X183625000Y-96500000D03*
X180300000Y-87000000D03*
X192375000Y-95000000D03*
X181375000Y-90000000D03*
X184000000Y-87223000D03*
%TO.N,/USB1_DIR*%
X186250000Y-72500000D03*
X178900000Y-73650000D03*
%TO.N,/USB1_STP*%
X188223000Y-72527000D03*
X179500000Y-74250000D03*
%TO.N,/USB1_RESET*%
X189277000Y-72500000D03*
X178900000Y-74850000D03*
%TO.N,/USB1_CLK*%
X190004003Y-72500000D03*
X179500000Y-75450000D03*
%TO.N,/USB2_DIR*%
X186250000Y-87500000D03*
X178900000Y-88050000D03*
%TO.N,/USB2_STP*%
X179500000Y-88650000D03*
X188223000Y-87527000D03*
%TO.N,/USB2_RESET*%
X189277000Y-87500000D03*
X178900000Y-89250000D03*
%TO.N,/USB2_CLK*%
X190004003Y-87500000D03*
X179500000Y-89850000D03*
%TO.N,/ETH1_LED_Y*%
X178500000Y-101250000D03*
%TO.N,/ETH1_LED_G*%
X178500000Y-102000000D03*
%TO.N,/ETH2_LED_Y*%
X178500000Y-102750000D03*
%TO.N,/ETH2_LED_G*%
X178500000Y-103500000D03*
%TO.N,/Debug/VBUS*%
X196500000Y-59750000D03*
X197250000Y-64000000D03*
X194750000Y-64000000D03*
%TO.N,/Debug/CC1*%
X195500000Y-70000000D03*
X195500000Y-67000000D03*
%TO.N,/Debug/D+*%
X192625000Y-62277000D03*
X192625000Y-61223000D03*
%TO.N,/Debug/CC2*%
X197125000Y-70000000D03*
X196625000Y-67000000D03*
%TO.N,Net-(R508-Pad2)*%
X187500000Y-55750000D03*
X186500000Y-60973000D03*
%TO.N,/5V_FPGA*%
X123012500Y-120637500D03*
X167400000Y-118650000D03*
X167400000Y-119850000D03*
X167400000Y-121050000D03*
X164400000Y-118650000D03*
X164400000Y-119850000D03*
X164400000Y-121050000D03*
X123012500Y-121590000D03*
X123965000Y-120637500D03*
X123965000Y-121590000D03*
%TO.N,/FPGA_EN*%
X116750000Y-115250000D03*
X128750000Y-103500000D03*
%TD*%
D21*
%TO.N,/ETH2_1P*%
X167725125Y-117200250D02*
X176750250Y-117200250D01*
X176750250Y-117200250D02*
X177000000Y-117450000D01*
X177000000Y-117450000D02*
X177000000Y-135450000D01*
X177265000Y-135715000D02*
X182710000Y-135715000D01*
X177000000Y-135450000D02*
X177265000Y-135715000D01*
%TO.N,/ETH2_1N*%
X178095000Y-134445000D02*
X185250000Y-134445000D01*
X177600000Y-133950000D02*
X178095000Y-134445000D01*
X167400000Y-116550000D02*
X177300000Y-116550000D01*
X177300000Y-116550000D02*
X177600000Y-116850000D01*
X177600000Y-116850000D02*
X177600000Y-133950000D01*
%TO.N,/ETH2_2N*%
X178625000Y-133175000D02*
X182710000Y-133175000D01*
X178200000Y-115650000D02*
X178200000Y-132750000D01*
X178200000Y-132750000D02*
X178625000Y-133175000D01*
X177950250Y-115400250D02*
X178200000Y-115650000D01*
X167725125Y-115400250D02*
X177950250Y-115400250D01*
%TO.N,/ETH2_2P*%
X179155000Y-131905000D02*
X185250000Y-131905000D01*
X178800000Y-115050000D02*
X178800000Y-131550000D01*
X178500000Y-114750000D02*
X178800000Y-115050000D01*
X178800000Y-131550000D02*
X179155000Y-131905000D01*
X167400000Y-114750000D02*
X178500000Y-114750000D01*
%TO.N,/ETH2_3P*%
X167725125Y-113600250D02*
X179150250Y-113600250D01*
X179150250Y-113600250D02*
X179400000Y-113850000D01*
X179400000Y-113850000D02*
X179400000Y-127650000D01*
X179845000Y-128095000D02*
X182710000Y-128095000D01*
X179400000Y-127650000D02*
X179845000Y-128095000D01*
%TO.N,/ETH2_3N*%
X167400000Y-112950000D02*
X179700000Y-112950000D01*
X179700000Y-112950000D02*
X180000000Y-113250000D01*
X180000000Y-113250000D02*
X180000000Y-126150000D01*
X180675000Y-126825000D02*
X185250000Y-126825000D01*
X180000000Y-126150000D02*
X180675000Y-126825000D01*
%TO.N,/ETH2_4N*%
X181270000Y-125555000D02*
X182710000Y-125555000D01*
X180600000Y-124885000D02*
X181270000Y-125555000D01*
X180600000Y-112050000D02*
X180600000Y-124885000D01*
X180350250Y-111800250D02*
X180600000Y-112050000D01*
X167725125Y-111800250D02*
X180350250Y-111800250D01*
%TO.N,/ETH2_4P*%
X181905000Y-124285000D02*
X185250000Y-124285000D01*
X181200000Y-123580000D02*
X181905000Y-124285000D01*
X180900000Y-111150000D02*
X181200000Y-111450000D01*
X181200000Y-111450000D02*
X181200000Y-123580000D01*
X167400000Y-111150000D02*
X180900000Y-111150000D01*
D22*
%TO.N,/TCK*%
X176000000Y-107500000D02*
X137970000Y-107500000D01*
X176250000Y-107250000D02*
X176000000Y-107500000D01*
X176250000Y-55250000D02*
X176250000Y-107250000D01*
X176000000Y-55000000D02*
X176250000Y-55250000D01*
X137970000Y-107500000D02*
X136980000Y-106510000D01*
X169250000Y-55000000D02*
X176000000Y-55000000D01*
X169050000Y-54800000D02*
X169250000Y-55000000D01*
X169050000Y-52125000D02*
X169050000Y-54800000D01*
X169050000Y-51200000D02*
X169050000Y-52125000D01*
X169500000Y-50750000D02*
X169050000Y-51200000D01*
X177750000Y-50750000D02*
X169500000Y-50750000D01*
X179000000Y-51750000D02*
X177750000Y-50750000D01*
%TO.N,/TMS*%
X176500000Y-108000000D02*
X138030000Y-108000000D01*
X176750000Y-107750000D02*
X176500000Y-108000000D01*
X138030000Y-108000000D02*
X136980000Y-109050000D01*
X176750000Y-54750000D02*
X176750000Y-107750000D01*
X176500000Y-54500000D02*
X176750000Y-54750000D01*
X171930000Y-54500000D02*
X176500000Y-54500000D01*
X171590000Y-54160000D02*
X171930000Y-54500000D01*
X171590000Y-52125000D02*
X171590000Y-54160000D01*
%TO.N,/TDI*%
X140070000Y-108500000D02*
X136980000Y-111590000D01*
X177250000Y-108250000D02*
X177000000Y-108500000D01*
X177000000Y-54000000D02*
X177250000Y-54250000D01*
X177000000Y-108500000D02*
X140070000Y-108500000D01*
X174500000Y-54000000D02*
X177000000Y-54000000D01*
X177250000Y-54250000D02*
X177250000Y-108250000D01*
X174130000Y-53630000D02*
X174500000Y-54000000D01*
X174130000Y-52125000D02*
X174130000Y-53630000D01*
%TO.N,/TDO*%
X177750000Y-108750000D02*
X177500000Y-109000000D01*
X176875000Y-53500000D02*
X177500000Y-53500000D01*
X177750000Y-53750000D02*
X177750000Y-108750000D01*
X177500000Y-53500000D02*
X177750000Y-53750000D01*
X142110000Y-109000000D02*
X136980000Y-114130000D01*
X176670000Y-53295000D02*
X176875000Y-53500000D01*
X177500000Y-109000000D02*
X142110000Y-109000000D01*
X176670000Y-52125000D02*
X176670000Y-53295000D01*
D23*
%TO.N,Earth*%
X194145000Y-66320000D02*
X198325000Y-66320000D01*
X194145000Y-57680000D02*
X198325000Y-57680000D01*
X194145000Y-87680000D02*
X198325000Y-87680000D01*
X194145000Y-96320000D02*
X198325000Y-96320000D01*
X194145000Y-81320000D02*
X198325000Y-81320000D01*
X194145000Y-72680000D02*
X198325000Y-72680000D01*
D22*
%TO.N,/USB2/VBUS*%
X194750000Y-94000000D02*
X197250000Y-94000000D01*
X193750000Y-89750000D02*
X196500000Y-89750000D01*
X191000000Y-87000000D02*
X193750000Y-89750000D01*
%TO.N,/USB2/D+*%
X192625000Y-92277000D02*
X192625000Y-91223000D01*
%TO.N,/USB1/VBUS*%
X194750000Y-79000000D02*
X197250000Y-79000000D01*
X193750000Y-74750000D02*
X196500000Y-74750000D01*
X191000000Y-72000000D02*
X193750000Y-74750000D01*
%TO.N,/USB1/D+*%
X192625000Y-77277000D02*
X192625000Y-76223000D01*
%TO.N,/USB1_DIR*%
X186250000Y-72500000D02*
X186000000Y-72750000D01*
X186000000Y-72750000D02*
X181000000Y-72750000D01*
X179800000Y-72750000D02*
X178900000Y-73650000D01*
X181000000Y-72750000D02*
X179800000Y-72750000D01*
%TO.N,/USB1_STP*%
X188223000Y-73027000D02*
X188000000Y-73250000D01*
X188223000Y-72527000D02*
X188223000Y-73027000D01*
X180500000Y-73250000D02*
X180900000Y-73250000D01*
X179500000Y-74250000D02*
X180500000Y-73250000D01*
X188000000Y-73250000D02*
X180900000Y-73250000D01*
%TO.N,/USB1_RESET*%
X180948632Y-73801368D02*
X179973000Y-74777000D01*
X188948632Y-73801368D02*
X180948632Y-73801368D01*
X189277000Y-73473000D02*
X188948632Y-73801368D01*
X189277000Y-72500000D02*
X189277000Y-73473000D01*
X179900000Y-74850000D02*
X180948632Y-73801368D01*
X178900000Y-74850000D02*
X179900000Y-74850000D01*
%TO.N,/USB1_CLK*%
X189750000Y-74250000D02*
X181750000Y-74250000D01*
X190004003Y-73995997D02*
X189750000Y-74250000D01*
X190004003Y-72500000D02*
X190004003Y-73995997D01*
X179500000Y-75450000D02*
X180100000Y-75450000D01*
X181300000Y-74250000D02*
X181750000Y-74250000D01*
X180100000Y-75450000D02*
X181300000Y-74250000D01*
%TO.N,/USB2_DIR*%
X186000000Y-87750000D02*
X181000000Y-87750000D01*
X186250000Y-87500000D02*
X186000000Y-87750000D01*
X179199999Y-87750001D02*
X178900000Y-88050000D01*
X180050000Y-87750000D02*
X179199999Y-87750001D01*
X181000000Y-87750000D02*
X180050000Y-87750000D01*
%TO.N,/USB2_STP*%
X188223000Y-88027000D02*
X188000000Y-88250000D01*
X188223000Y-87527000D02*
X188223000Y-88027000D01*
X188000000Y-88250000D02*
X180900000Y-88250000D01*
X179900000Y-88250000D02*
X179500000Y-88650000D01*
X180900000Y-88250000D02*
X179900000Y-88250000D01*
%TO.N,/USB2_RESET*%
X189277000Y-88473000D02*
X188948632Y-88801368D01*
X188948632Y-88801368D02*
X180948632Y-88801368D01*
X189277000Y-87500000D02*
X189277000Y-88473000D01*
X178900000Y-89250000D02*
X179950000Y-89250000D01*
X180398632Y-88801368D02*
X180948632Y-88801368D01*
X179950000Y-89250000D02*
X180398632Y-88801368D01*
%TO.N,/USB2_CLK*%
X190004003Y-87500000D02*
X190004003Y-88995997D01*
X189750000Y-89250000D02*
X181750000Y-89250000D01*
X190004003Y-88995997D02*
X189750000Y-89250000D01*
X181300000Y-89250000D02*
X181750000Y-89250000D01*
X179500000Y-89850000D02*
X180150000Y-89850000D01*
X180750000Y-89250000D02*
X181300000Y-89250000D01*
X180150000Y-89850000D02*
X180750000Y-89250000D01*
%TO.N,/ETH1_LED_Y*%
X191209999Y-106709999D02*
X186250000Y-101750000D01*
X179000000Y-101750000D02*
X178500000Y-101250000D01*
X186250000Y-101750000D02*
X179000000Y-101750000D01*
X195700001Y-106709999D02*
X191209999Y-106709999D01*
X196500000Y-105910000D02*
X195700001Y-106709999D01*
%TO.N,/ETH1_LED_G*%
X186250000Y-102250000D02*
X178750000Y-102250000D01*
X178750000Y-102250000D02*
X178500000Y-102000000D01*
X196500000Y-116630000D02*
X195630000Y-116630000D01*
X195250000Y-116250000D02*
X195250000Y-111250000D01*
X195630000Y-116630000D02*
X195250000Y-116250000D01*
X195250000Y-111250000D02*
X186250000Y-102250000D01*
%TO.N,/ETH2_LED_Y*%
X194750000Y-125750000D02*
X195112001Y-126112001D01*
X195112001Y-126112001D02*
X196297999Y-126112001D01*
X194750000Y-111250000D02*
X194750000Y-125750000D01*
X196297999Y-126112001D02*
X196500000Y-125910000D01*
X186250000Y-102750000D02*
X194750000Y-111250000D01*
X178500000Y-102750000D02*
X186250000Y-102750000D01*
%TO.N,/ETH2_LED_G*%
X178750000Y-103250000D02*
X178500000Y-103500000D01*
X186250000Y-103250000D02*
X178750000Y-103250000D01*
X189250000Y-106250000D02*
X186250000Y-103250000D01*
X189250000Y-106250000D02*
X194250000Y-111250000D01*
X194630000Y-136630000D02*
X194250000Y-136250000D01*
X196500000Y-136630000D02*
X194630000Y-136630000D01*
X194250000Y-111250000D02*
X194250000Y-136250000D01*
%TO.N,/Debug/VBUS*%
X193750000Y-59750000D02*
X196500000Y-59750000D01*
X194750000Y-64000000D02*
X197250000Y-64000000D01*
%TO.N,/Debug/CC1*%
X195500000Y-67000000D02*
X195500000Y-67125000D01*
X195500000Y-67125000D02*
X195500000Y-70000000D01*
%TO.N,/Debug/D+*%
X192625000Y-62277000D02*
X192625000Y-61223000D01*
%TO.N,/Debug/CC2*%
X197125000Y-67500000D02*
X196625000Y-67000000D01*
X197125000Y-70000000D02*
X197125000Y-67500000D01*
%TO.N,Net-(R508-Pad2)*%
X186500000Y-56750000D02*
X187500000Y-55750000D01*
X186500000Y-60973000D02*
X186500000Y-56750000D01*
%TO.N,/FPGA_EN*%
X116750000Y-115250000D02*
X116750000Y-112150038D01*
X125400038Y-103500000D02*
X124700019Y-104200019D01*
X128750000Y-103500000D02*
X125400038Y-103500000D01*
X124700019Y-104200019D02*
X124750000Y-104150038D01*
X116750000Y-112150038D02*
X124700019Y-104200019D01*
%TD*%
D24*
%TO.N,Earth*%
X196716289Y-50382473D02*
X197405297Y-50590497D01*
X198040775Y-50928386D01*
X198598523Y-51383274D01*
X199057292Y-51937832D01*
X199399610Y-52570936D01*
X199612438Y-53258472D01*
X199689210Y-53988904D01*
X199689251Y-54000791D01*
X199689250Y-140984801D01*
X199617527Y-141716289D01*
X199409504Y-142405295D01*
X199071614Y-143040775D01*
X198616726Y-143598523D01*
X198062171Y-144057290D01*
X197429066Y-144399609D01*
X196741528Y-144612438D01*
X196011097Y-144689210D01*
X195999497Y-144689250D01*
X104015199Y-144689250D01*
X103283711Y-144617527D01*
X102594705Y-144409504D01*
X101959225Y-144071614D01*
X101401477Y-143616726D01*
X100942710Y-143062171D01*
X100600391Y-142429066D01*
X100387562Y-141741528D01*
X100310790Y-141011097D01*
X100310750Y-140999497D01*
X100310750Y-57210420D01*
X101904750Y-57210420D01*
X101904750Y-137789580D01*
X101905565Y-137802013D01*
X101922875Y-137933493D01*
X101929310Y-137957510D01*
X101980059Y-138080030D01*
X101992492Y-138101565D01*
X102073223Y-138206775D01*
X102081438Y-138216142D01*
X106783858Y-142918562D01*
X106793225Y-142926777D01*
X106898435Y-143007508D01*
X106919970Y-143019941D01*
X107042490Y-143070690D01*
X107066507Y-143077125D01*
X107197987Y-143094435D01*
X107210420Y-143095250D01*
X192789580Y-143095250D01*
X192802013Y-143094435D01*
X192933493Y-143077125D01*
X192957510Y-143070690D01*
X193080030Y-143019941D01*
X193101565Y-143007508D01*
X193206775Y-142926777D01*
X193216142Y-142918562D01*
X197918562Y-138216142D01*
X197926777Y-138206775D01*
X198007508Y-138101565D01*
X198019941Y-138080030D01*
X198070690Y-137957510D01*
X198077125Y-137933493D01*
X198094435Y-137802013D01*
X198095250Y-137789580D01*
X198095250Y-98192309D01*
X198289250Y-98192309D01*
X198289250Y-98307691D01*
X198311760Y-98420857D01*
X198355915Y-98527457D01*
X198420018Y-98623394D01*
X198501606Y-98704982D01*
X198597543Y-98769085D01*
X198704143Y-98813240D01*
X198817309Y-98835750D01*
X198932691Y-98835750D01*
X199045857Y-98813240D01*
X199152457Y-98769085D01*
X199248394Y-98704982D01*
X199329982Y-98623394D01*
X199394085Y-98527457D01*
X199438240Y-98420857D01*
X199460750Y-98307691D01*
X199460750Y-98192309D01*
X199438240Y-98079143D01*
X199394085Y-97972543D01*
X199329982Y-97876606D01*
X199248394Y-97795018D01*
X199152457Y-97730915D01*
X199045857Y-97686760D01*
X198932691Y-97664250D01*
X198817309Y-97664250D01*
X198704143Y-97686760D01*
X198597543Y-97730915D01*
X198501606Y-97795018D01*
X198420018Y-97876606D01*
X198355915Y-97972543D01*
X198311760Y-98079143D01*
X198289250Y-98192309D01*
X198095250Y-98192309D01*
X198095250Y-83192309D01*
X198289250Y-83192309D01*
X198289250Y-83307691D01*
X198311760Y-83420857D01*
X198355915Y-83527457D01*
X198420018Y-83623394D01*
X198501606Y-83704982D01*
X198597543Y-83769085D01*
X198704143Y-83813240D01*
X198817309Y-83835750D01*
X198932691Y-83835750D01*
X199045857Y-83813240D01*
X199152457Y-83769085D01*
X199248394Y-83704982D01*
X199329982Y-83623394D01*
X199394085Y-83527457D01*
X199438240Y-83420857D01*
X199460750Y-83307691D01*
X199460750Y-83192309D01*
X199438240Y-83079143D01*
X199394085Y-82972543D01*
X199329982Y-82876606D01*
X199248394Y-82795018D01*
X199152457Y-82730915D01*
X199045857Y-82686760D01*
X198932691Y-82664250D01*
X198817309Y-82664250D01*
X198704143Y-82686760D01*
X198597543Y-82730915D01*
X198501606Y-82795018D01*
X198420018Y-82876606D01*
X198355915Y-82972543D01*
X198311760Y-83079143D01*
X198289250Y-83192309D01*
X198095250Y-83192309D01*
X198095250Y-69942309D01*
X198289250Y-69942309D01*
X198289250Y-70057691D01*
X198311760Y-70170857D01*
X198355915Y-70277457D01*
X198420018Y-70373394D01*
X198501606Y-70454982D01*
X198597543Y-70519085D01*
X198704143Y-70563240D01*
X198817309Y-70585750D01*
X198932691Y-70585750D01*
X199045857Y-70563240D01*
X199152457Y-70519085D01*
X199248394Y-70454982D01*
X199329982Y-70373394D01*
X199394085Y-70277457D01*
X199438240Y-70170857D01*
X199460750Y-70057691D01*
X199460750Y-69942309D01*
X199438240Y-69829143D01*
X199394085Y-69722543D01*
X199329982Y-69626606D01*
X199248394Y-69545018D01*
X199152457Y-69480915D01*
X199045857Y-69436760D01*
X198932691Y-69414250D01*
X198817309Y-69414250D01*
X198704143Y-69436760D01*
X198597543Y-69480915D01*
X198501606Y-69545018D01*
X198420018Y-69626606D01*
X198355915Y-69722543D01*
X198311760Y-69829143D01*
X198289250Y-69942309D01*
X198095250Y-69942309D01*
X198095250Y-68192309D01*
X198289250Y-68192309D01*
X198289250Y-68307691D01*
X198311760Y-68420857D01*
X198355915Y-68527457D01*
X198420018Y-68623394D01*
X198501606Y-68704982D01*
X198597543Y-68769085D01*
X198704143Y-68813240D01*
X198817309Y-68835750D01*
X198932691Y-68835750D01*
X199045857Y-68813240D01*
X199152457Y-68769085D01*
X199248394Y-68704982D01*
X199329982Y-68623394D01*
X199394085Y-68527457D01*
X199438240Y-68420857D01*
X199460750Y-68307691D01*
X199460750Y-68192309D01*
X199438240Y-68079143D01*
X199394085Y-67972543D01*
X199329982Y-67876606D01*
X199248394Y-67795018D01*
X199152457Y-67730915D01*
X199045857Y-67686760D01*
X198932691Y-67664250D01*
X198817309Y-67664250D01*
X198704143Y-67686760D01*
X198597543Y-67730915D01*
X198501606Y-67795018D01*
X198420018Y-67876606D01*
X198355915Y-67972543D01*
X198311760Y-68079143D01*
X198289250Y-68192309D01*
X198095250Y-68192309D01*
X198095250Y-57210420D01*
X198094435Y-57197987D01*
X198077125Y-57066507D01*
X198070690Y-57042490D01*
X198019941Y-56919970D01*
X198007508Y-56898435D01*
X197926777Y-56793225D01*
X197918562Y-56783858D01*
X193216142Y-52081438D01*
X193206775Y-52073223D01*
X193101565Y-51992492D01*
X193080030Y-51980059D01*
X192957510Y-51929310D01*
X192933493Y-51922875D01*
X192802013Y-51905565D01*
X192789580Y-51904750D01*
X187973787Y-51904750D01*
X187954982Y-51876606D01*
X187873394Y-51795018D01*
X187777457Y-51730915D01*
X187670857Y-51686760D01*
X187557691Y-51664250D01*
X187442309Y-51664250D01*
X187329143Y-51686760D01*
X187222543Y-51730915D01*
X187126606Y-51795018D01*
X187045018Y-51876606D01*
X187026213Y-51904750D01*
X179566444Y-51904750D01*
X179585750Y-51807691D01*
X179585750Y-51692309D01*
X179563240Y-51579143D01*
X179519085Y-51472543D01*
X179454982Y-51376606D01*
X179373394Y-51295018D01*
X179277457Y-51230915D01*
X179170857Y-51186760D01*
X179057691Y-51164250D01*
X178942309Y-51164250D01*
X178896663Y-51173330D01*
X177992893Y-50450315D01*
X177965348Y-50427709D01*
X177946416Y-50417590D01*
X177928439Y-50405900D01*
X177913004Y-50399731D01*
X177898334Y-50391890D01*
X177877796Y-50385660D01*
X177857880Y-50377700D01*
X177841539Y-50374661D01*
X177825620Y-50369832D01*
X177804260Y-50367728D01*
X177783175Y-50363807D01*
X177747670Y-50364250D01*
X169518945Y-50364250D01*
X169499999Y-50362384D01*
X169424379Y-50369832D01*
X169411741Y-50373666D01*
X169351666Y-50391890D01*
X169284652Y-50427709D01*
X169225914Y-50475914D01*
X169213836Y-50490631D01*
X168790636Y-50913832D01*
X168775914Y-50925914D01*
X168727709Y-50984653D01*
X168697148Y-51041830D01*
X168512021Y-51118512D01*
X168326002Y-51242806D01*
X168167806Y-51401002D01*
X168043512Y-51587021D01*
X167957897Y-51793714D01*
X167935810Y-51904750D01*
X167624190Y-51904750D01*
X167602103Y-51793714D01*
X167516488Y-51587021D01*
X167392194Y-51401002D01*
X167233998Y-51242806D01*
X167047979Y-51118512D01*
X166841286Y-51032897D01*
X166621862Y-50989250D01*
X166398138Y-50989250D01*
X166178714Y-51032897D01*
X165972021Y-51118512D01*
X165786002Y-51242806D01*
X165627806Y-51401002D01*
X165503512Y-51587021D01*
X165417897Y-51793714D01*
X165395810Y-51904750D01*
X107210420Y-51904750D01*
X107197987Y-51905565D01*
X107066507Y-51922875D01*
X107042490Y-51929310D01*
X106919970Y-51980059D01*
X106898435Y-51992492D01*
X106793225Y-52073223D01*
X106783858Y-52081438D01*
X102081438Y-56783858D01*
X102073223Y-56793225D01*
X101992492Y-56898435D01*
X101980059Y-56919970D01*
X101929310Y-57042490D01*
X101922875Y-57066507D01*
X101905565Y-57197987D01*
X101904750Y-57210420D01*
X100310750Y-57210420D01*
X100310750Y-54015199D01*
X100382473Y-53283711D01*
X100590497Y-52594703D01*
X100928386Y-51959225D01*
X101383274Y-51401477D01*
X101937832Y-50942708D01*
X102570936Y-50600390D01*
X103258472Y-50387562D01*
X103988904Y-50310790D01*
X104000503Y-50310750D01*
X195984801Y-50310750D01*
X196716289Y-50382473D01*
%TA.AperFunction,Conductor*%
D25*
G36*
X196716289Y-50382473D02*
G01*
X197405297Y-50590497D01*
X198040775Y-50928386D01*
X198598523Y-51383274D01*
X199057292Y-51937832D01*
X199399610Y-52570936D01*
X199612438Y-53258472D01*
X199689210Y-53988904D01*
X199689251Y-54000791D01*
X199689250Y-140984801D01*
X199617527Y-141716289D01*
X199409504Y-142405295D01*
X199071614Y-143040775D01*
X198616726Y-143598523D01*
X198062171Y-144057290D01*
X197429066Y-144399609D01*
X196741528Y-144612438D01*
X196011097Y-144689210D01*
X195999497Y-144689250D01*
X104015199Y-144689250D01*
X103283711Y-144617527D01*
X102594705Y-144409504D01*
X101959225Y-144071614D01*
X101401477Y-143616726D01*
X100942710Y-143062171D01*
X100600391Y-142429066D01*
X100387562Y-141741528D01*
X100310790Y-141011097D01*
X100310750Y-140999497D01*
X100310750Y-57210420D01*
X101904750Y-57210420D01*
X101904750Y-137789580D01*
X101905565Y-137802013D01*
X101922875Y-137933493D01*
X101929310Y-137957510D01*
X101980059Y-138080030D01*
X101992492Y-138101565D01*
X102073223Y-138206775D01*
X102081438Y-138216142D01*
X106783858Y-142918562D01*
X106793225Y-142926777D01*
X106898435Y-143007508D01*
X106919970Y-143019941D01*
X107042490Y-143070690D01*
X107066507Y-143077125D01*
X107197987Y-143094435D01*
X107210420Y-143095250D01*
X192789580Y-143095250D01*
X192802013Y-143094435D01*
X192933493Y-143077125D01*
X192957510Y-143070690D01*
X193080030Y-143019941D01*
X193101565Y-143007508D01*
X193206775Y-142926777D01*
X193216142Y-142918562D01*
X197918562Y-138216142D01*
X197926777Y-138206775D01*
X198007508Y-138101565D01*
X198019941Y-138080030D01*
X198070690Y-137957510D01*
X198077125Y-137933493D01*
X198094435Y-137802013D01*
X198095250Y-137789580D01*
X198095250Y-98192309D01*
X198289250Y-98192309D01*
X198289250Y-98307691D01*
X198311760Y-98420857D01*
X198355915Y-98527457D01*
X198420018Y-98623394D01*
X198501606Y-98704982D01*
X198597543Y-98769085D01*
X198704143Y-98813240D01*
X198817309Y-98835750D01*
X198932691Y-98835750D01*
X199045857Y-98813240D01*
X199152457Y-98769085D01*
X199248394Y-98704982D01*
X199329982Y-98623394D01*
X199394085Y-98527457D01*
X199438240Y-98420857D01*
X199460750Y-98307691D01*
X199460750Y-98192309D01*
X199438240Y-98079143D01*
X199394085Y-97972543D01*
X199329982Y-97876606D01*
X199248394Y-97795018D01*
X199152457Y-97730915D01*
X199045857Y-97686760D01*
X198932691Y-97664250D01*
X198817309Y-97664250D01*
X198704143Y-97686760D01*
X198597543Y-97730915D01*
X198501606Y-97795018D01*
X198420018Y-97876606D01*
X198355915Y-97972543D01*
X198311760Y-98079143D01*
X198289250Y-98192309D01*
X198095250Y-98192309D01*
X198095250Y-83192309D01*
X198289250Y-83192309D01*
X198289250Y-83307691D01*
X198311760Y-83420857D01*
X198355915Y-83527457D01*
X198420018Y-83623394D01*
X198501606Y-83704982D01*
X198597543Y-83769085D01*
X198704143Y-83813240D01*
X198817309Y-83835750D01*
X198932691Y-83835750D01*
X199045857Y-83813240D01*
X199152457Y-83769085D01*
X199248394Y-83704982D01*
X199329982Y-83623394D01*
X199394085Y-83527457D01*
X199438240Y-83420857D01*
X199460750Y-83307691D01*
X199460750Y-83192309D01*
X199438240Y-83079143D01*
X199394085Y-82972543D01*
X199329982Y-82876606D01*
X199248394Y-82795018D01*
X199152457Y-82730915D01*
X199045857Y-82686760D01*
X198932691Y-82664250D01*
X198817309Y-82664250D01*
X198704143Y-82686760D01*
X198597543Y-82730915D01*
X198501606Y-82795018D01*
X198420018Y-82876606D01*
X198355915Y-82972543D01*
X198311760Y-83079143D01*
X198289250Y-83192309D01*
X198095250Y-83192309D01*
X198095250Y-69942309D01*
X198289250Y-69942309D01*
X198289250Y-70057691D01*
X198311760Y-70170857D01*
X198355915Y-70277457D01*
X198420018Y-70373394D01*
X198501606Y-70454982D01*
X198597543Y-70519085D01*
X198704143Y-70563240D01*
X198817309Y-70585750D01*
X198932691Y-70585750D01*
X199045857Y-70563240D01*
X199152457Y-70519085D01*
X199248394Y-70454982D01*
X199329982Y-70373394D01*
X199394085Y-70277457D01*
X199438240Y-70170857D01*
X199460750Y-70057691D01*
X199460750Y-69942309D01*
X199438240Y-69829143D01*
X199394085Y-69722543D01*
X199329982Y-69626606D01*
X199248394Y-69545018D01*
X199152457Y-69480915D01*
X199045857Y-69436760D01*
X198932691Y-69414250D01*
X198817309Y-69414250D01*
X198704143Y-69436760D01*
X198597543Y-69480915D01*
X198501606Y-69545018D01*
X198420018Y-69626606D01*
X198355915Y-69722543D01*
X198311760Y-69829143D01*
X198289250Y-69942309D01*
X198095250Y-69942309D01*
X198095250Y-68192309D01*
X198289250Y-68192309D01*
X198289250Y-68307691D01*
X198311760Y-68420857D01*
X198355915Y-68527457D01*
X198420018Y-68623394D01*
X198501606Y-68704982D01*
X198597543Y-68769085D01*
X198704143Y-68813240D01*
X198817309Y-68835750D01*
X198932691Y-68835750D01*
X199045857Y-68813240D01*
X199152457Y-68769085D01*
X199248394Y-68704982D01*
X199329982Y-68623394D01*
X199394085Y-68527457D01*
X199438240Y-68420857D01*
X199460750Y-68307691D01*
X199460750Y-68192309D01*
X199438240Y-68079143D01*
X199394085Y-67972543D01*
X199329982Y-67876606D01*
X199248394Y-67795018D01*
X199152457Y-67730915D01*
X199045857Y-67686760D01*
X198932691Y-67664250D01*
X198817309Y-67664250D01*
X198704143Y-67686760D01*
X198597543Y-67730915D01*
X198501606Y-67795018D01*
X198420018Y-67876606D01*
X198355915Y-67972543D01*
X198311760Y-68079143D01*
X198289250Y-68192309D01*
X198095250Y-68192309D01*
X198095250Y-57210420D01*
X198094435Y-57197987D01*
X198077125Y-57066507D01*
X198070690Y-57042490D01*
X198019941Y-56919970D01*
X198007508Y-56898435D01*
X197926777Y-56793225D01*
X197918562Y-56783858D01*
X193216142Y-52081438D01*
X193206775Y-52073223D01*
X193101565Y-51992492D01*
X193080030Y-51980059D01*
X192957510Y-51929310D01*
X192933493Y-51922875D01*
X192802013Y-51905565D01*
X192789580Y-51904750D01*
X187973787Y-51904750D01*
X187954982Y-51876606D01*
X187873394Y-51795018D01*
X187777457Y-51730915D01*
X187670857Y-51686760D01*
X187557691Y-51664250D01*
X187442309Y-51664250D01*
X187329143Y-51686760D01*
X187222543Y-51730915D01*
X187126606Y-51795018D01*
X187045018Y-51876606D01*
X187026213Y-51904750D01*
X179566444Y-51904750D01*
X179585750Y-51807691D01*
X179585750Y-51692309D01*
X179563240Y-51579143D01*
X179519085Y-51472543D01*
X179454982Y-51376606D01*
X179373394Y-51295018D01*
X179277457Y-51230915D01*
X179170857Y-51186760D01*
X179057691Y-51164250D01*
X178942309Y-51164250D01*
X178896663Y-51173330D01*
X177992893Y-50450315D01*
X177965348Y-50427709D01*
X177946416Y-50417590D01*
X177928439Y-50405900D01*
X177913004Y-50399731D01*
X177898334Y-50391890D01*
X177877796Y-50385660D01*
X177857880Y-50377700D01*
X177841539Y-50374661D01*
X177825620Y-50369832D01*
X177804260Y-50367728D01*
X177783175Y-50363807D01*
X177747670Y-50364250D01*
X169518945Y-50364250D01*
X169499999Y-50362384D01*
X169424379Y-50369832D01*
X169411741Y-50373666D01*
X169351666Y-50391890D01*
X169284652Y-50427709D01*
X169225914Y-50475914D01*
X169213836Y-50490631D01*
X168790636Y-50913832D01*
X168775914Y-50925914D01*
X168727709Y-50984653D01*
X168697148Y-51041830D01*
X168512021Y-51118512D01*
X168326002Y-51242806D01*
X168167806Y-51401002D01*
X168043512Y-51587021D01*
X167957897Y-51793714D01*
X167935810Y-51904750D01*
X167624190Y-51904750D01*
X167602103Y-51793714D01*
X167516488Y-51587021D01*
X167392194Y-51401002D01*
X167233998Y-51242806D01*
X167047979Y-51118512D01*
X166841286Y-51032897D01*
X166621862Y-50989250D01*
X166398138Y-50989250D01*
X166178714Y-51032897D01*
X165972021Y-51118512D01*
X165786002Y-51242806D01*
X165627806Y-51401002D01*
X165503512Y-51587021D01*
X165417897Y-51793714D01*
X165395810Y-51904750D01*
X107210420Y-51904750D01*
X107197987Y-51905565D01*
X107066507Y-51922875D01*
X107042490Y-51929310D01*
X106919970Y-51980059D01*
X106898435Y-51992492D01*
X106793225Y-52073223D01*
X106783858Y-52081438D01*
X102081438Y-56783858D01*
X102073223Y-56793225D01*
X101992492Y-56898435D01*
X101980059Y-56919970D01*
X101929310Y-57042490D01*
X101922875Y-57066507D01*
X101905565Y-57197987D01*
X101904750Y-57210420D01*
X100310750Y-57210420D01*
X100310750Y-54015199D01*
X100382473Y-53283711D01*
X100590497Y-52594703D01*
X100928386Y-51959225D01*
X101383274Y-51401477D01*
X101937832Y-50942708D01*
X102570936Y-50600390D01*
X103258472Y-50387562D01*
X103988904Y-50310790D01*
X104000503Y-50310750D01*
X195984801Y-50310750D01*
X196716289Y-50382473D01*
G37*
%TD.AperFunction*%
%TD*%
M02*
