%TF.GenerationSoftware,KiCad,Pcbnew,(5.1.9-0-10_14)*%
%TF.CreationDate,2021-03-28T17:09:14+02:00*%
%TF.ProjectId,FPGA,46504741-2e6b-4696-9361-645f70636258,rev?*%
%TF.SameCoordinates,Original*%
%TF.FileFunction,Legend,Bot*%
%TF.FilePolarity,Positive*%
%FSLAX46Y46*%
G04 Gerber Fmt 4.6, Leading zero omitted, Abs format (unit mm)*
G04 Created by KiCad (PCBNEW (5.1.9-0-10_14)) date 2021-03-28 17:09:14*
%MOMM*%
%LPD*%
G01*
G04 APERTURE LIST*
%ADD10C,0.150000*%
G04 APERTURE END LIST*
D10*
X156928571Y-98278571D02*
X157261904Y-98278571D01*
X157261904Y-98802380D02*
X157261904Y-97802380D01*
X156785714Y-97802380D01*
X156404761Y-98802380D02*
X156404761Y-97802380D01*
X156023809Y-97802380D01*
X155928571Y-97850000D01*
X155880952Y-97897619D01*
X155833333Y-97992857D01*
X155833333Y-98135714D01*
X155880952Y-98230952D01*
X155928571Y-98278571D01*
X156023809Y-98326190D01*
X156404761Y-98326190D01*
X154880952Y-97850000D02*
X154976190Y-97802380D01*
X155119047Y-97802380D01*
X155261904Y-97850000D01*
X155357142Y-97945238D01*
X155404761Y-98040476D01*
X155452380Y-98230952D01*
X155452380Y-98373809D01*
X155404761Y-98564285D01*
X155357142Y-98659523D01*
X155261904Y-98754761D01*
X155119047Y-98802380D01*
X155023809Y-98802380D01*
X154880952Y-98754761D01*
X154833333Y-98707142D01*
X154833333Y-98373809D01*
X155023809Y-98373809D01*
X154452380Y-98516666D02*
X153976190Y-98516666D01*
X154547619Y-98802380D02*
X154214285Y-97802380D01*
X153880952Y-98802380D01*
X152214285Y-98707142D02*
X152261904Y-98754761D01*
X152404761Y-98802380D01*
X152500000Y-98802380D01*
X152642857Y-98754761D01*
X152738095Y-98659523D01*
X152785714Y-98564285D01*
X152833333Y-98373809D01*
X152833333Y-98230952D01*
X152785714Y-98040476D01*
X152738095Y-97945238D01*
X152642857Y-97850000D01*
X152500000Y-97802380D01*
X152404761Y-97802380D01*
X152261904Y-97850000D01*
X152214285Y-97897619D01*
X151642857Y-98802380D02*
X151738095Y-98754761D01*
X151785714Y-98707142D01*
X151833333Y-98611904D01*
X151833333Y-98326190D01*
X151785714Y-98230952D01*
X151738095Y-98183333D01*
X151642857Y-98135714D01*
X151500000Y-98135714D01*
X151404761Y-98183333D01*
X151357142Y-98230952D01*
X151309523Y-98326190D01*
X151309523Y-98611904D01*
X151357142Y-98707142D01*
X151404761Y-98754761D01*
X151500000Y-98802380D01*
X151642857Y-98802380D01*
X150880952Y-98135714D02*
X150880952Y-98802380D01*
X150880952Y-98230952D02*
X150833333Y-98183333D01*
X150738095Y-98135714D01*
X150595238Y-98135714D01*
X150500000Y-98183333D01*
X150452380Y-98278571D01*
X150452380Y-98802380D01*
X150119047Y-98135714D02*
X149738095Y-98135714D01*
X149976190Y-97802380D02*
X149976190Y-98659523D01*
X149928571Y-98754761D01*
X149833333Y-98802380D01*
X149738095Y-98802380D01*
X149404761Y-98802380D02*
X149404761Y-98135714D01*
X149404761Y-98326190D02*
X149357142Y-98230952D01*
X149309523Y-98183333D01*
X149214285Y-98135714D01*
X149119047Y-98135714D01*
X148642857Y-98802380D02*
X148738095Y-98754761D01*
X148785714Y-98707142D01*
X148833333Y-98611904D01*
X148833333Y-98326190D01*
X148785714Y-98230952D01*
X148738095Y-98183333D01*
X148642857Y-98135714D01*
X148500000Y-98135714D01*
X148404761Y-98183333D01*
X148357142Y-98230952D01*
X148309523Y-98326190D01*
X148309523Y-98611904D01*
X148357142Y-98707142D01*
X148404761Y-98754761D01*
X148500000Y-98802380D01*
X148642857Y-98802380D01*
X147738095Y-98802380D02*
X147833333Y-98754761D01*
X147880952Y-98659523D01*
X147880952Y-97802380D01*
X146261904Y-98278571D02*
X146119047Y-98326190D01*
X146071428Y-98373809D01*
X146023809Y-98469047D01*
X146023809Y-98611904D01*
X146071428Y-98707142D01*
X146119047Y-98754761D01*
X146214285Y-98802380D01*
X146595238Y-98802380D01*
X146595238Y-97802380D01*
X146261904Y-97802380D01*
X146166666Y-97850000D01*
X146119047Y-97897619D01*
X146071428Y-97992857D01*
X146071428Y-98088095D01*
X146119047Y-98183333D01*
X146166666Y-98230952D01*
X146261904Y-98278571D01*
X146595238Y-98278571D01*
X145452380Y-98802380D02*
X145547619Y-98754761D01*
X145595238Y-98707142D01*
X145642857Y-98611904D01*
X145642857Y-98326190D01*
X145595238Y-98230952D01*
X145547619Y-98183333D01*
X145452380Y-98135714D01*
X145309523Y-98135714D01*
X145214285Y-98183333D01*
X145166666Y-98230952D01*
X145119047Y-98326190D01*
X145119047Y-98611904D01*
X145166666Y-98707142D01*
X145214285Y-98754761D01*
X145309523Y-98802380D01*
X145452380Y-98802380D01*
X144261904Y-98802380D02*
X144261904Y-98278571D01*
X144309523Y-98183333D01*
X144404761Y-98135714D01*
X144595238Y-98135714D01*
X144690476Y-98183333D01*
X144261904Y-98754761D02*
X144357142Y-98802380D01*
X144595238Y-98802380D01*
X144690476Y-98754761D01*
X144738095Y-98659523D01*
X144738095Y-98564285D01*
X144690476Y-98469047D01*
X144595238Y-98421428D01*
X144357142Y-98421428D01*
X144261904Y-98373809D01*
X143785714Y-98802380D02*
X143785714Y-98135714D01*
X143785714Y-98326190D02*
X143738095Y-98230952D01*
X143690476Y-98183333D01*
X143595238Y-98135714D01*
X143500000Y-98135714D01*
X142738095Y-98802380D02*
X142738095Y-97802380D01*
X142738095Y-98754761D02*
X142833333Y-98802380D01*
X143023809Y-98802380D01*
X143119047Y-98754761D01*
X143166666Y-98707142D01*
X143214285Y-98611904D01*
X143214285Y-98326190D01*
X143166666Y-98230952D01*
X143119047Y-98183333D01*
X143023809Y-98135714D01*
X142833333Y-98135714D01*
X142738095Y-98183333D01*
X157261904Y-100452380D02*
X157595238Y-99976190D01*
X157833333Y-100452380D02*
X157833333Y-99452380D01*
X157452380Y-99452380D01*
X157357142Y-99500000D01*
X157309523Y-99547619D01*
X157261904Y-99642857D01*
X157261904Y-99785714D01*
X157309523Y-99880952D01*
X157357142Y-99928571D01*
X157452380Y-99976190D01*
X157833333Y-99976190D01*
X156452380Y-100404761D02*
X156547619Y-100452380D01*
X156738095Y-100452380D01*
X156833333Y-100404761D01*
X156880952Y-100309523D01*
X156880952Y-99928571D01*
X156833333Y-99833333D01*
X156738095Y-99785714D01*
X156547619Y-99785714D01*
X156452380Y-99833333D01*
X156404761Y-99928571D01*
X156404761Y-100023809D01*
X156880952Y-100119047D01*
X156071428Y-99785714D02*
X155833333Y-100452380D01*
X155595238Y-99785714D01*
X155214285Y-100357142D02*
X155166666Y-100404761D01*
X155214285Y-100452380D01*
X155261904Y-100404761D01*
X155214285Y-100357142D01*
X155214285Y-100452380D01*
X153452380Y-100452380D02*
X154023809Y-100452380D01*
X153738095Y-100452380D02*
X153738095Y-99452380D01*
X153833333Y-99595238D01*
X153928571Y-99690476D01*
X154023809Y-99738095D01*
X152976190Y-100404761D02*
X152976190Y-100452380D01*
X153023809Y-100547619D01*
X153071428Y-100595238D01*
X151833333Y-99547619D02*
X151785714Y-99500000D01*
X151690476Y-99452380D01*
X151452380Y-99452380D01*
X151357142Y-99500000D01*
X151309523Y-99547619D01*
X151261904Y-99642857D01*
X151261904Y-99738095D01*
X151309523Y-99880952D01*
X151880952Y-100452380D01*
X151261904Y-100452380D01*
X150642857Y-99452380D02*
X150547619Y-99452380D01*
X150452380Y-99500000D01*
X150404761Y-99547619D01*
X150357142Y-99642857D01*
X150309523Y-99833333D01*
X150309523Y-100071428D01*
X150357142Y-100261904D01*
X150404761Y-100357142D01*
X150452380Y-100404761D01*
X150547619Y-100452380D01*
X150642857Y-100452380D01*
X150738095Y-100404761D01*
X150785714Y-100357142D01*
X150833333Y-100261904D01*
X150880952Y-100071428D01*
X150880952Y-99833333D01*
X150833333Y-99642857D01*
X150785714Y-99547619D01*
X150738095Y-99500000D01*
X150642857Y-99452380D01*
X149928571Y-99547619D02*
X149880952Y-99500000D01*
X149785714Y-99452380D01*
X149547619Y-99452380D01*
X149452380Y-99500000D01*
X149404761Y-99547619D01*
X149357142Y-99642857D01*
X149357142Y-99738095D01*
X149404761Y-99880952D01*
X149976190Y-100452380D01*
X149357142Y-100452380D01*
X148404761Y-100452380D02*
X148976190Y-100452380D01*
X148690476Y-100452380D02*
X148690476Y-99452380D01*
X148785714Y-99595238D01*
X148880952Y-99690476D01*
X148976190Y-99738095D01*
X147976190Y-100071428D02*
X147214285Y-100071428D01*
X146547619Y-99452380D02*
X146452380Y-99452380D01*
X146357142Y-99500000D01*
X146309523Y-99547619D01*
X146261904Y-99642857D01*
X146214285Y-99833333D01*
X146214285Y-100071428D01*
X146261904Y-100261904D01*
X146309523Y-100357142D01*
X146357142Y-100404761D01*
X146452380Y-100452380D01*
X146547619Y-100452380D01*
X146642857Y-100404761D01*
X146690476Y-100357142D01*
X146738095Y-100261904D01*
X146785714Y-100071428D01*
X146785714Y-99833333D01*
X146738095Y-99642857D01*
X146690476Y-99547619D01*
X146642857Y-99500000D01*
X146547619Y-99452380D01*
X145880952Y-99452380D02*
X145261904Y-99452380D01*
X145595238Y-99833333D01*
X145452380Y-99833333D01*
X145357142Y-99880952D01*
X145309523Y-99928571D01*
X145261904Y-100023809D01*
X145261904Y-100261904D01*
X145309523Y-100357142D01*
X145357142Y-100404761D01*
X145452380Y-100452380D01*
X145738095Y-100452380D01*
X145833333Y-100404761D01*
X145880952Y-100357142D01*
X144833333Y-100071428D02*
X144071428Y-100071428D01*
X143642857Y-99547619D02*
X143595238Y-99500000D01*
X143500000Y-99452380D01*
X143261904Y-99452380D01*
X143166666Y-99500000D01*
X143119047Y-99547619D01*
X143071428Y-99642857D01*
X143071428Y-99738095D01*
X143119047Y-99880952D01*
X143690476Y-100452380D01*
X143071428Y-100452380D01*
X142500000Y-99880952D02*
X142595238Y-99833333D01*
X142642857Y-99785714D01*
X142690476Y-99690476D01*
X142690476Y-99642857D01*
X142642857Y-99547619D01*
X142595238Y-99500000D01*
X142500000Y-99452380D01*
X142309523Y-99452380D01*
X142214285Y-99500000D01*
X142166666Y-99547619D01*
X142119047Y-99642857D01*
X142119047Y-99690476D01*
X142166666Y-99785714D01*
X142214285Y-99833333D01*
X142309523Y-99880952D01*
X142500000Y-99880952D01*
X142595238Y-99928571D01*
X142642857Y-99976190D01*
X142690476Y-100071428D01*
X142690476Y-100261904D01*
X142642857Y-100357142D01*
X142595238Y-100404761D01*
X142500000Y-100452380D01*
X142309523Y-100452380D01*
X142214285Y-100404761D01*
X142166666Y-100357142D01*
X142119047Y-100261904D01*
X142119047Y-100071428D01*
X142166666Y-99976190D01*
X142214285Y-99928571D01*
X142309523Y-99880952D01*
X159166666Y-101102380D02*
X158595238Y-101102380D01*
X158880952Y-102102380D02*
X158880952Y-101102380D01*
X158119047Y-102102380D02*
X158214285Y-102054761D01*
X158261904Y-102007142D01*
X158309523Y-101911904D01*
X158309523Y-101626190D01*
X158261904Y-101530952D01*
X158214285Y-101483333D01*
X158119047Y-101435714D01*
X157976190Y-101435714D01*
X157880952Y-101483333D01*
X157833333Y-101530952D01*
X157785714Y-101626190D01*
X157785714Y-101911904D01*
X157833333Y-102007142D01*
X157880952Y-102054761D01*
X157976190Y-102102380D01*
X158119047Y-102102380D01*
X157357142Y-102102380D02*
X157357142Y-101102380D01*
X157357142Y-101483333D02*
X157261904Y-101435714D01*
X157071428Y-101435714D01*
X156976190Y-101483333D01*
X156928571Y-101530952D01*
X156880952Y-101626190D01*
X156880952Y-101911904D01*
X156928571Y-102007142D01*
X156976190Y-102054761D01*
X157071428Y-102102380D01*
X157261904Y-102102380D01*
X157357142Y-102054761D01*
X156452380Y-102102380D02*
X156452380Y-101435714D01*
X156452380Y-101102380D02*
X156500000Y-101150000D01*
X156452380Y-101197619D01*
X156404761Y-101150000D01*
X156452380Y-101102380D01*
X156452380Y-101197619D01*
X155547619Y-102102380D02*
X155547619Y-101578571D01*
X155595238Y-101483333D01*
X155690476Y-101435714D01*
X155880952Y-101435714D01*
X155976190Y-101483333D01*
X155547619Y-102054761D02*
X155642857Y-102102380D01*
X155880952Y-102102380D01*
X155976190Y-102054761D01*
X156023809Y-101959523D01*
X156023809Y-101864285D01*
X155976190Y-101769047D01*
X155880952Y-101721428D01*
X155642857Y-101721428D01*
X155547619Y-101673809D01*
X155119047Y-102054761D02*
X155023809Y-102102380D01*
X154833333Y-102102380D01*
X154738095Y-102054761D01*
X154690476Y-101959523D01*
X154690476Y-101911904D01*
X154738095Y-101816666D01*
X154833333Y-101769047D01*
X154976190Y-101769047D01*
X155071428Y-101721428D01*
X155119047Y-101626190D01*
X155119047Y-101578571D01*
X155071428Y-101483333D01*
X154976190Y-101435714D01*
X154833333Y-101435714D01*
X154738095Y-101483333D01*
X153500000Y-102102380D02*
X153500000Y-101102380D01*
X153166666Y-101816666D01*
X152833333Y-101102380D01*
X152833333Y-102102380D01*
X151928571Y-101435714D02*
X151928571Y-102102380D01*
X152357142Y-101435714D02*
X152357142Y-101959523D01*
X152309523Y-102054761D01*
X152214285Y-102102380D01*
X152071428Y-102102380D01*
X151976190Y-102054761D01*
X151928571Y-102007142D01*
X152309523Y-101102380D02*
X152261904Y-101150000D01*
X152309523Y-101197619D01*
X152357142Y-101150000D01*
X152309523Y-101102380D01*
X152309523Y-101197619D01*
X151928571Y-101102380D02*
X151880952Y-101150000D01*
X151928571Y-101197619D01*
X151976190Y-101150000D01*
X151928571Y-101102380D01*
X151928571Y-101197619D01*
X151309523Y-102102380D02*
X151404761Y-102054761D01*
X151452380Y-101959523D01*
X151452380Y-101102380D01*
X150785714Y-102102380D02*
X150880952Y-102054761D01*
X150928571Y-101959523D01*
X150928571Y-101102380D01*
X150023809Y-102054761D02*
X150119047Y-102102380D01*
X150309523Y-102102380D01*
X150404761Y-102054761D01*
X150452380Y-101959523D01*
X150452380Y-101578571D01*
X150404761Y-101483333D01*
X150309523Y-101435714D01*
X150119047Y-101435714D01*
X150023809Y-101483333D01*
X149976190Y-101578571D01*
X149976190Y-101673809D01*
X150452380Y-101769047D01*
X149547619Y-102102380D02*
X149547619Y-101435714D01*
X149547619Y-101626190D02*
X149500000Y-101530952D01*
X149452380Y-101483333D01*
X149357142Y-101435714D01*
X149261904Y-101435714D01*
X148880952Y-102054761D02*
X148880952Y-102102380D01*
X148928571Y-102197619D01*
X148976190Y-102245238D01*
X147833333Y-101435714D02*
X147452380Y-101435714D01*
X147690476Y-101102380D02*
X147690476Y-101959523D01*
X147642857Y-102054761D01*
X147547619Y-102102380D01*
X147452380Y-102102380D01*
X147214285Y-101435714D02*
X147023809Y-102102380D01*
X146833333Y-101626190D01*
X146642857Y-102102380D01*
X146452380Y-101435714D01*
X145642857Y-102102380D02*
X145642857Y-101578571D01*
X145690476Y-101483333D01*
X145785714Y-101435714D01*
X145976190Y-101435714D01*
X146071428Y-101483333D01*
X145642857Y-102054761D02*
X145738095Y-102102380D01*
X145976190Y-102102380D01*
X146071428Y-102054761D01*
X146119047Y-101959523D01*
X146119047Y-101864285D01*
X146071428Y-101769047D01*
X145976190Y-101721428D01*
X145738095Y-101721428D01*
X145642857Y-101673809D01*
X145166666Y-102102380D02*
X145166666Y-101435714D01*
X145166666Y-101530952D02*
X145119047Y-101483333D01*
X145023809Y-101435714D01*
X144880952Y-101435714D01*
X144785714Y-101483333D01*
X144738095Y-101578571D01*
X144738095Y-102102380D01*
X144738095Y-101578571D02*
X144690476Y-101483333D01*
X144595238Y-101435714D01*
X144452380Y-101435714D01*
X144357142Y-101483333D01*
X144309523Y-101578571D01*
X144309523Y-102102380D01*
X143833333Y-102007142D02*
X143785714Y-102054761D01*
X143833333Y-102102380D01*
X143880952Y-102054761D01*
X143833333Y-102007142D01*
X143833333Y-102102380D01*
X143357142Y-102102380D02*
X143357142Y-101435714D01*
X143357142Y-101102380D02*
X143404761Y-101150000D01*
X143357142Y-101197619D01*
X143309523Y-101150000D01*
X143357142Y-101102380D01*
X143357142Y-101197619D01*
X142880952Y-101435714D02*
X142880952Y-102102380D01*
X142880952Y-101530952D02*
X142833333Y-101483333D01*
X142738095Y-101435714D01*
X142595238Y-101435714D01*
X142500000Y-101483333D01*
X142452380Y-101578571D01*
X142452380Y-102102380D01*
X142119047Y-101435714D02*
X141738095Y-101435714D01*
X141976190Y-102102380D02*
X141976190Y-101245238D01*
X141928571Y-101150000D01*
X141833333Y-101102380D01*
X141738095Y-101102380D01*
X141261904Y-102102380D02*
X141357142Y-102054761D01*
X141404761Y-102007142D01*
X141452380Y-101911904D01*
X141452380Y-101626190D01*
X141404761Y-101530952D01*
X141357142Y-101483333D01*
X141261904Y-101435714D01*
X141119047Y-101435714D01*
X141023809Y-101483333D01*
X140976190Y-101530952D01*
X140928571Y-101626190D01*
X140928571Y-101911904D01*
X140976190Y-102007142D01*
X141023809Y-102054761D01*
X141119047Y-102102380D01*
X141261904Y-102102380D01*
M02*
